<svg xmlns="http://www.w3.org/2000/svg" viewBox="0 0 500 500"><g id="freepik--Floor--inject-7"><path id="freepik--floor--inject-7" d="M98.85,282.61c-83.48,48.2-83.48,126.34,0,174.53s218.83,48.2,302.3,0,83.48-126.33,0-174.53S182.32,234.41,98.85,282.61Z" style="fill:#fafafa"></path></g><g id="freepik--Shadows--inject-7"><path id="freepik--Shadow--inject-7" d="M395.91,328.58c-11.79,6.8-31,6.71-43-.2s-12.12-18-.33-24.82,31-6.71,43,.2S407.69,321.79,395.91,328.58Z" style="fill:#e0e0e0"></path><polygon id="freepik--shadow--inject-7" points="393.68 338.66 457.74 375.65 492.72 355.42 428.66 318.43 393.68 338.66" style="fill:#e0e0e0"></polygon><path id="freepik--shadow--inject-7" d="M474.9,413.08c-12.4,7.15-32.65,7.05-45.24-.21s-12.74-19-.35-26.11,32.65-7.05,45.24.22S487.29,405.93,474.9,413.08Z" style="fill:#e0e0e0"></path><path id="freepik--shadow--inject-7" d="M408.37,387.7c-8.87,5.12-23.35,5.05-32.36-.15s-9.11-13.56-.25-18.67,23.35-5,32.36.15S417.23,382.59,408.37,387.7Z" style="fill:#e0e0e0"></path><path id="freepik--shadow--inject-7" d="M68.72,425.27c-11.77,6.79-31,6.7-43-.21s-12.11-18-.33-24.8,31-6.71,43,.2S80.5,418.47,68.72,425.27Z" style="fill:#e0e0e0"></path><path id="freepik--shadow--inject-7" d="M142.58,403.3,69.39,361a1.35,1.35,0,0,1,0-2.55l135.93-78.76a4.85,4.85,0,0,1,4.42,0L282.93,322a1.35,1.35,0,0,1,0,2.55L147,403.3A4.85,4.85,0,0,1,142.58,403.3Z" style="fill:#e0e0e0"></path><path id="freepik--shadow--inject-7" d="M261.18,453.39c28.15,16.24,74.14,16,102.74-.49s28.94-43,.79-59.28-74.15-16-102.74.49S233,437.16,261.18,453.39Z" style="fill:#e0e0e0"></path><path id="freepik--shadow--inject-7" d="M182.87,440c11.09,6.4,29.22,6.31,40.49-.2s11.41-17,.31-23.36-29.22-6.32-40.49.19S171.77,433.58,182.87,440Z" style="fill:#e0e0e0"></path></g><g id="freepik--Clock--inject-7"><g id="freepik--clock--inject-7"><path d="M420.57,41.75h0l0,0h0l3.41-2h0l.05,0h0c3.68-1.87,8.61-1.32,13.92,2.09,10.66,6.87,18.8,22.69,18.18,35.36-.31,6.31-2.73,10.64-6.4,12.55h0l0,0h0l-3.42,2h0l0,0h0c-3.69,1.87-8.62,1.32-13.93-2.1C421.69,82.79,413.55,67,414.16,54.3,414.47,48,416.9,43.66,420.57,41.75Z" style="fill:#455a64"></path><path d="M446.59,91.58l3.15-1.84h0l0,0c3.67-1.92,6.09-6.25,6.4-12.55a39.41,39.41,0,0,0-3.85-17.75l-3.42,2a39.24,39.24,0,0,1,3.85,17.74C452.46,85.33,450.13,89.61,446.59,91.58Z" style="fill:#263238"></path><path d="M432.35,89.65C421.69,82.79,413.55,67,414.16,54.3s9.76-17.36,20.42-10.5,18.79,22.69,18.18,35.36S443,96.52,432.35,89.65Z" style="fill:#37474f"></path><path d="M441.28,88.77c6.28.31,7.31-6.76,7.45-9.81.55-11.17-6.94-25.72-16.34-31.77a14.25,14.25,0,0,0-6.75-2.51c-6.28-.3-7.3,6.76-7.45,9.82-.54,11.16,6.94,25.71,16.34,31.77a14.26,14.26,0,0,0,6.75,2.5Z" style="fill:#fff"></path><path d="M431.69,68.56a.67.67,0,0,0,.54.26.57.57,0,0,0,.22,0,.67.67,0,0,0,.46-.64V52a.68.68,0,0,0-.68-.69.69.69,0,0,0-.69.69V66.14" style="fill:#263238"></path><path d="M432.61,68.48l6.06-7.81a.68.68,0,0,0-1.08-.84l-6.06,7.81Z" style="fill:#455a64"></path><path d="M436.09,80.75h.09a.29.29,0,0,0,.2-.36l-3.79-12.77a.29.29,0,0,0-.36-.2.3.3,0,0,0-.2.36l3.8,12.78A.27.27,0,0,0,436.09,80.75Z" style="fill:#BA68C8"></path><path d="M432.45,64.91c-1.26-.81-2.33-.26-2.41,1.23a5.19,5.19,0,0,0,2.14,4.16c1.26.81,2.33.25,2.4-1.23A5.14,5.14,0,0,0,432.45,64.91Z" style="fill:#BA68C8"></path></g></g><g id="freepik--Window--inject-7"><g id="freepik--window--inject-7"><g id="freepik--window--inject-7"><g id="freepik--Frame--inject-7"><polygon points="198.15 29.57 201.72 31.57 201.72 139.26 198.14 137.26 198.15 29.57" style="fill:#fafafa"></polygon><polygon points="198.14 137.26 198.14 33.65 80.19 101.73 80.22 205.33 198.14 137.26" style="fill:#fff"></polygon><path d="M208.37,143.1v-123L73.54,97.89v123ZM80.19,209.41V101.73L201.72,31.57V139.26Z" style="fill:#f0f0f0"></path><polygon points="201.72 139.26 198.14 137.26 80.22 205.33 80.19 209.41 201.72 139.26" style="fill:#e0e0e0"></polygon><polygon points="161.6 54.74 165.18 52.67 165.18 160.36 161.6 158.36 161.6 54.74" style="fill:#fafafa"></polygon><polygon points="106.65 86.45 110.23 84.39 110.23 192.07 106.65 190.07 106.65 86.45" style="fill:#fafafa"></polygon><polygon points="73.55 220.92 69.98 218.85 69.98 95.82 73.54 97.89 73.55 220.92" style="fill:#e0e0e0"></polygon><polygon points="69.98 95.82 73.54 97.89 208.37 20.07 204.81 17.99 69.98 95.82" style="fill:#fafafa"></polygon></g><polygon points="110.23 199.75 116.86 195.91 116.86 72.88 110.23 76.71 110.23 199.75" style="fill:#f0f0f0"></polygon><polygon points="165.17 168.04 171.8 164.21 171.8 41.18 165.17 45.01 165.17 168.04" style="fill:#f0f0f0"></polygon></g></g></g><g id="freepik--Plant--inject-7"><g id="freepik--hanging-flowerpot--inject-7"><path d="M24.61,189.61h-.12a.57.57,0,0,1-.43-.67l20.06-88.69a.56.56,0,0,1,1.1.23L25.16,189.16A.56.56,0,0,1,24.61,189.61Z" style="fill:#ebebeb"></path><path d="M64.72,190.1a.56.56,0,0,1-.55-.45L44.12,100.47a.55.55,0,0,1,.43-.66.56.56,0,0,1,.67.43l20,89.18a.57.57,0,0,1-.44.67Z" style="fill:#ebebeb"></path><g id="freepik--Pot--inject-7"><path d="M62.69,195.58H26.38l3.75,15.64h0c.28,1.88,1.67,3.72,4.17,5.17,5.65,3.26,14.8,3.26,20.45,0,2.69-1.56,4.08-3.57,4.21-5.61Z" style="fill:#BA68C8"></path><path d="M62.69,195.58H26.38l3.75,15.64h0c.28,1.88,1.67,3.72,4.17,5.17,5.65,3.26,14.8,3.26,20.45,0,2.69-1.56,4.08-3.57,4.21-5.61Z" style="fill:#fff;opacity:0.6000000000000001"></path><path d="M62.69,195.58H26.38l3.75,15.64h0c.28,1.88,1.67,3.72,4.17,5.17,5.65,3.26,14.8,3.26,20.45,0,2.69-1.56,4.08-3.57,4.21-5.61Z" style="fill:#fff;opacity:0.6000000000000001"></path><path d="M58.26,206.3a14.7,14.7,0,0,0,2.18-1.52l2-8.36a14.48,14.48,0,0,1-3.67,2.92c-7.66,4.43-19.94,4.54-27.86.36l.92-3.72-.28-.4H26.38l3.75,15.64h0c.28,1.88,1.67,3.72,4.17,5.17,4,2.32,9.82,3,14.87,2-9,.68-15.26-3.28-16.19-6.93-.37-1.45-1-4.67-1-4.67C39.53,210.62,51,210.47,58.26,206.3Z" style="fill:#BA68C8;opacity:0.2"></path><path d="M64.58,191a7.73,7.73,0,0,1-1.22,2.82,13.32,13.32,0,0,1-4.55,4c-7.88,4.55-20.67,4.55-28.55,0a13.32,13.32,0,0,1-4.55-4A7.71,7.71,0,0,1,24.5,191h0c-.7-3.42,1.23-7,5.77-9.61,7.88-4.56,20.67-4.56,28.55,0C63.35,184,65.28,187.54,64.58,191Z" style="fill:#BA68C8"></path><path d="M64.58,191a7.73,7.73,0,0,1-1.22,2.82,13.32,13.32,0,0,1-4.55,4c-7.88,4.55-20.67,4.55-28.55,0a13.32,13.32,0,0,1-4.55-4A7.71,7.71,0,0,1,24.5,191h0c-.7-3.42,1.23-7,5.77-9.61,7.88-4.56,20.67-4.56,28.55,0C63.35,184,65.28,187.54,64.58,191Z" style="fill:#fff;opacity:0.8"></path><path d="M63.36,193.78a13.32,13.32,0,0,1-4.55,4c-7.88,4.55-20.67,4.55-28.55,0a13.32,13.32,0,0,1-4.55-4A7.71,7.71,0,0,1,24.5,191h0l.9,6.15c.41,2.48,2.25,4.89,5.54,6.79,7.52,4.33,19.69,4.33,27.2,0,3.25-1.88,5.09-4.26,5.53-6.7l.05-.32.87-5.92A7.73,7.73,0,0,1,63.36,193.78Z" style="fill:#BA68C8"></path><path d="M63.36,193.78a13.32,13.32,0,0,1-4.55,4c-7.88,4.55-20.67,4.55-28.55,0a13.32,13.32,0,0,1-4.55-4A7.71,7.71,0,0,1,24.5,191h0l.9,6.15c.41,2.48,2.25,4.89,5.54,6.79,7.52,4.33,19.69,4.33,27.2,0,3.25-1.88,5.09-4.26,5.53-6.7l.05-.32.87-5.92A7.73,7.73,0,0,1,63.36,193.78Z" style="fill:#fff;opacity:0.6000000000000001"></path><path d="M56.43,182.72c-6.57-3.8-17.22-3.8-23.79,0-3.71,2.15-5.32,5-4.84,7.84.38,2.15,2,4.24,4.84,5.89,6.57,3.79,17.22,3.79,23.79,0,2.85-1.65,4.46-3.74,4.84-5.88C61.76,187.76,60.15,184.87,56.43,182.72Z" style="fill:#BA68C8"></path><path d="M56.43,182.72c-6.57-3.8-17.22-3.8-23.79,0-3.71,2.15-5.32,5-4.84,7.84.38,2.15,2,4.24,4.84,5.89,6.57,3.79,17.22,3.79,23.79,0,2.85-1.65,4.46-3.74,4.84-5.88C61.76,187.76,60.15,184.87,56.43,182.72Z" style="fill:#fff;opacity:0.6000000000000001"></path><path d="M28.91,193.16a11.3,11.3,0,0,0,3.73,3.29c6.57,3.79,17.22,3.79,23.79,0a11.3,11.3,0,0,0,3.73-3.29c0-2.27-1.57-4.53-4.57-6.26-6.11-3.53-16-3.53-22.1,0C30.48,188.63,29,190.89,28.91,193.16Z" style="fill:#fafafa"></path></g><path d="M39.46,168.69c-.32-9.28-3.81-23.7-7.17-29.52a47.42,47.42,0,0,1,10.57,27.45Z" style="fill:#263238"></path><path d="M49.53,188.71c.31-6.45,5.06-8.55,10.4-6.45,3.8,1.49,9.28,7.14,11,16.13C69.24,193.75,56.93,178.11,49.53,188.71Z" style="fill:#455a64"></path><path d="M49.81,191.82c.31-2.4,2.47-5.56,6.24-4.78s12.66,7.71,16.43,19.09c-.69-7.64-3.16-14.22-8.27-18.49s-8.81-4.93-12.54-2.71C48.47,186.83,49.81,191.82,49.81,191.82Z" style="fill:#37474f"></path><path d="M43,194.93c-3.06-10.26-3.52-29.33-.57-39.63,4.18-14.58,12.84-21,19.31-22.51-6.12,2.56-12.59,11.89-14.4,21s-.78,41.11-.78,41.11Z" style="fill:#455a64"></path><path d="M45.57,184.93c.39-5.74,3.74-18.46,10.37-23.59a12.19,12.19,0,0,1,16.26,1,9.93,9.93,0,0,0-12.32.19c-3.49,2.88-7,11.52-8.82,19.73Z" style="fill:#263238"></path><path d="M54.59,162.53c4.17-4.09,7.43-6.85,12.61-6.59s12.08,7.5,16.09,22.82c-4.14-9.73-9.5-18.29-18.09-19.2A13.79,13.79,0,0,0,54.59,162.53Z" style="fill:#37474f"></path><path d="M8,153.43a31.53,31.53,0,0,1,22.93,7.9A31.66,31.66,0,0,1,42.26,181.6l-4.6-.75s-3.81-12.06-10.43-18.32C21.34,157,17,154.75,8,153.43Z" style="fill:#455a64"></path><path d="M43.39,178.71c.36-5.17-2.08-16.06-10-23.43s-10.77-9-18.91-11.07a51.52,51.52,0,0,1,17,14.1c5.23,6.84,5.47,14.94,5.47,18C37.8,178.71,41,183.71,43.39,178.71Z" style="fill:#37474f"></path><path d="M43,181.26c-1-6.6,2.52-18.4,6.66-24.18,5-7,12.41-12.21,20.62-13.64-8.79,3.37-17.63,13.18-20.22,22.42A50.1,50.1,0,0,0,49,184.68Z" style="fill:#37474f"></path><path d="M45.85,194.93c-1.12-6.16.84-19,11-26.06s17.15-5.21,19.82-4.41c-7.85-.53-15.74,3.84-20.56,9.25-3.35,3.76-6.49,9.91-6.68,20.11Z" style="fill:#455a64"></path><path d="M46,195.45s2.65-.07,3.72-1.32c0-4,1.07-11.95,6.66-16.66s9.95-3.81,10.83-2c0-2.71-3.41-5.12-7.19-4.32C53.69,172.53,44.8,180.7,46,195.45Z" style="fill:#263238"></path><path d="M56.71,172.41c3.45-1.88,6.4-3.49,10.23-1.7.17-.1,2.36-.65,3.19.33,3.2,3.78,2.16,13.19-3.7,22.22,2.7-6.77,2.83-19.26-2.17-21.21A10,10,0,0,0,56.71,172.41Z" style="fill:#37474f"></path><path d="M66.94,170.71c1.55.71,4.72,6.13,2.67,13.68,1.91-5.71,1.23-11.19-2-13.85A3.48,3.48,0,0,0,66.94,170.71Z" style="fill:#263238"></path><path d="M39.23,193.6c-.31-2.4-2.47-5.55-6.24-4.78s-12.66,7.72-16.43,19.09c.69-7.63,3.47-14,8.05-18.86,4.1-4.33,9.49-6.41,13.76-4.12S39.23,193.6,39.23,193.6Z" style="fill:#263238"></path><path d="M37.66,179.22c-3.31-3.31-5.63-6.49-11.72-5.23S15.68,181.87,14,190.81c1-3.45,4.17-11.35,10.4-12.7S33.69,177.24,37.66,179.22Z" style="fill:#455a64"></path><path d="M39.23,193.6c-.87-5.84-3.09-14.18-9.32-14.51s-13,3.58-15.89,11.72c1.46-7.41,7.78-14.48,14.37-14.5S41.47,177.73,43,194.93Z" style="fill:#37474f"></path><path d="M34,168.8a16.82,16.82,0,0,0-8.58-4.25c-2.12-.36-6.24-2-10.65,2.12s-9.07,13.71-7.42,20.42C8,180,17.61,160,34,168.8Z" style="fill:#37474f"></path><path d="M43.93,195.51c0-5.42-4-22.61-10.22-27-7.82-5.48-13.06-.82-13.06-.82A10.48,10.48,0,0,1,30,169.19c4,3,7.81,11.6,9.25,24.41A5.62,5.62,0,0,0,43.93,195.51Z" style="fill:#263238"></path><path d="M40.38,179.37c-.38,1.59,1.26,13.41,2.53,16.08a11.41,11.41,0,0,0,3.78-.06c1.19-2.07,0-15.45,2.33-15.7C47.24,178.86,41.2,176.64,40.38,179.37Z" style="fill:#37474f"></path><path d="M40.38,179.37c1.84-1.9,9.33,1.84,10.74,13,1.87-5.3,1-11.85-.83-13.51a3.38,3.38,0,0,0-3.85-.52S40.63,175.8,40.38,179.37Z" style="fill:#455a64"></path><path d="M46.44,178.35c2.3,1,4.92,4.15,4.9,9.59.17-2.79-.36-7.67-4.3-9.83A6.22,6.22,0,0,0,46.44,178.35Z" style="fill:#37474f"></path><path d="M44.67,208a.56.56,0,0,1-.56-.56V100.36a.56.56,0,1,1,1.12,0V207.45A.56.56,0,0,1,44.67,208Z" style="fill:#ebebeb"></path><path d="M44.67,100.92a5,5,0,1,1,5-5A5,5,0,0,1,44.67,100.92Zm0-8.9a3.89,3.89,0,1,0,3.88,3.89A3.9,3.9,0,0,0,44.67,92Z" style="fill:#ebebeb"></path><path d="M44.67,92a.56.56,0,0,1-.56-.56V22.08a.56.56,0,1,1,1.12,0V91.46A.56.56,0,0,1,44.67,92Z" style="fill:#ebebeb"></path><path d="M44.53,208a29.35,29.35,0,0,1-14.14-3.31c-3.36-1.9-5.47-4.45-5.93-7.18a.58.58,0,0,1,.47-.66.57.57,0,0,1,.65.47c.4,2.38,2.31,4.65,5.37,6.39,7.49,4.23,19.68,4.23,27.17,0,3-1.72,4.92-4,5.35-6.31a.57.57,0,1,1,1.12.2c-.5,2.69-2.59,5.21-5.91,7.09A29.36,29.36,0,0,1,44.53,208Z" style="fill:#ebebeb"></path></g></g><g id="freepik--Mirror--inject-7"><g id="freepik--mirror--inject-7"><g id="freepik--mirror--inject-7"><path d="M477.51,352.09a6.22,6.22,0,0,1-3.06-.95l-39.18-22.63a17.7,17.7,0,0,1-7.56-10.45l-17.42-83.59a1.3,1.3,0,0,1,2.54-.53l17.42,83.59a15.26,15.26,0,0,0,6.32,8.73l39.18,22.63c1.11.64,1.89.71,2.19.5s.46-1,.21-2.23L461,263.75a1.3,1.3,0,0,1,2.55-.52l17.14,83.41c.62,3-.51,4.33-1.24,4.86A3.25,3.25,0,0,1,477.51,352.09Z" style="fill:#e0e0e0"></path><g style="opacity:0.1"><path d="M477.51,352.09a6.22,6.22,0,0,1-3.06-.95l-39.18-22.63a17.7,17.7,0,0,1-7.56-10.45l-17.42-83.59a1.3,1.3,0,0,1,2.54-.53l17.42,83.59a15.26,15.26,0,0,0,6.32,8.73l39.18,22.63c1.11.64,1.89.71,2.19.5s.46-1,.21-2.23L461,263.75a1.3,1.3,0,0,1,2.55-.52l17.14,83.41c.62,3-.51,4.33-1.24,4.86A3.25,3.25,0,0,1,477.51,352.09Z"></path></g><polygon points="401.66 338.04 459.64 371.52 472.66 145.84 414.68 112.37 401.66 338.04" style="fill:#ebebeb"></polygon><polygon points="405.68 335.87 418.21 118.9 468.64 148.02 456.11 364.98 405.68 335.87" style="fill:#fafafa"></polygon><polygon points="475.34 144.3 472.66 145.84 459.64 371.52 462.32 369.97 475.34 144.3" style="fill:#e0e0e0"></polygon><polygon points="417.36 110.82 414.68 112.37 472.66 145.84 475.34 144.3 417.36 110.82" style="fill:#f5f5f5"></polygon><g id="freepik--Shines--inject-7"><polygon points="410.09 259.63 409.67 266.89 464.98 211.58 465.39 204.32 410.09 259.63" style="fill:#f5f5f5"></polygon><polygon points="417.3 134.76 416.88 142.02 432.02 126.88 427.68 124.37 417.3 134.76" style="fill:#f5f5f5"></polygon><polygon points="449.78 137.13 438.97 130.89 416.2 153.65 415.16 171.75 449.78 137.13" style="fill:#f5f5f5"></polygon><polygon points="464.38 221.81 409.08 277.12 408.33 290.13 463.63 234.82 464.38 221.81" style="fill:#f5f5f5"></polygon><polygon points="468.11 156.87 412.81 212.17 412.06 225.18 467.36 169.88 468.11 156.87" style="fill:#f5f5f5"></polygon><polygon points="458.32 326.6 459.37 308.5 422.37 345.5 433.18 351.75 458.32 326.6" style="fill:#f5f5f5"></polygon><polygon points="460.1 295.88 460.52 288.62 410.49 338.64 414.83 341.15 460.1 295.88" style="fill:#f5f5f5"></polygon><polygon points="462.78 249.58 463.2 242.32 407.89 297.63 407.47 304.89 462.78 249.58" style="fill:#f5f5f5"></polygon></g></g></g></g><g id="freepik--Mannequin--inject-7"><g id="freepik--mannequin--inject-7"><path d="M359,301.62c8.39-4.83,22.09-4.77,30.61.15,4.3,2.48,6.44,5.72,6.44,8.94,0,.55,0,2.7,0,3.23,0,3.19-2,6.36-6.2,8.77-8.39,4.84-22.09,4.77-30.61-.15-4.32-2.49-6.46-5.75-6.44-9,0-.53,0-2.73,0-3.3C352.79,307.13,354.84,304,359,301.62Z" style="fill:#37474f"></path><path d="M389.82,319.43c-8.39,4.84-22.09,4.78-30.61-.14s-8.62-12.83-.24-17.67,22.09-4.77,30.61.15S398.21,314.6,389.82,319.43Z" style="fill:#455a64"></path><path d="M371.28,309.77a1.46,1.46,0,0,0,.88,1.29,4.8,4.8,0,0,0,4.35,0,1.68,1.68,0,0,0,1-1.28h0V197.08l-6.15.08Z" style="fill:#37474f"></path><path d="M374.75,311.55a4,4,0,0,0,1.76-.51,1.68,1.68,0,0,0,1-1.28h0V197.08l-2.76,0Z" style="fill:#263238"></path><path d="M372.24,198.4a4.8,4.8,0,0,0,4.35,0c1.21-.7,1.22-1.82,0-2.51a4.78,4.78,0,0,0-4.34,0C371.07,196.59,371.05,197.71,372.24,198.4Z" style="fill:#263238"></path><path d="M349.88,139c-.44,3.07-6.62,16.76-5.13,40.62.61,9.77,1.41,20.55,1.41,20.55h0c.3,3.87,3,7.7,8.13,10.65,10.9,6.29,28.56,6.29,39.45,0,5.55-3.2,8.26-7.42,8.16-11.61h0c.55-6.21.83-9.49,1.22-15,.85-12,1.71-18.82-1.22-27.18-4.47-12.8-7.31-13-7.51-24.22a29.63,29.63,0,0,1,.37-3c.94-5.48,1.78-8.28,5.92-10.54h0c.2-.09.42-.19.63-.31,4.32-2.5,7.82-9.91,7.82-16.55,0-3.44-.95-6-2.45-7.32h0a82.41,82.41,0,0,0-10.29-7.92c-.73-.49-4.64-2.67-5.48-3.16l-16.4-9.5c-3-1.73-12.48-6.32-17.71,2.46a16.54,16.54,0,0,0-2.07,9.56c-2.68,3.84-5.21,7.71-7.67,11.33s-6,12.93,2.38,19.71l.89,14.12A50.69,50.69,0,0,1,349.88,139Z" style="fill:#BA68C8"></path><path d="M361.76,122.75c4.84,6.88,18.72,5.6,23.22-1.64C383.21,131.36,365.23,133.32,361.76,122.75Z" style="opacity:0.2"></path><path d="M401.33,118.94c4.32-2.5,7.82-9.91,7.82-16.55,0-3.74-1.11-6.45-2.85-7.65-1.35-.94-3.08-1-5,.12-4.32,2.49-7.82,9.9-7.82,16.55,0,3.12.77,5.51,2,6.92C397,119.93,399,120.26,401.33,118.94Z" style="opacity:0.2"></path><path d="M356.23,78.06l3.58,2.3s-3.18,3.67-5.06,6.14V84.36A16.18,16.18,0,0,1,356.23,78.06Z" style="opacity:0.1"></path><path d="M388.07,74.49V84c.26,1.52-.94,5.4-2.63,7-3.54,3.4-12.91,7.64-16.5,5.57-1.8-1,0-7.65.45-12.16s.35-10,.35-10Z" style="fill:#BA68C8"></path><path d="M388.07,74.49V84c.26,1.52-.94,5.4-2.63,7-3.54,3.4-12.91,7.64-16.5,5.57-1.8-1,0-7.65.45-12.16s.35-10,.35-10Z" style="opacity:0.1"></path><path d="M355.2,145.57c.22-1.16.4-2.13.52-2.91a17.85,17.85,0,0,1-5.8-4c.07-.53.14-1,.19-1.55a14.93,14.93,0,0,0,5.75,4.34h0a91,91,0,0,0-.61-17.46c-1-8.66.33-12.12,3.82-17,1.26-1.79,2.87-3.63,4.42-5.41,2.49-2.85,5.06-5.8,6.43-8.71,2-4.16,1.94-12.31,1.93-16.69v-.91H373v.91c0,4.47,0,12.79-2,17.18-1.44,3.05-4.07,6.06-6.61,9-1.6,1.84-3.12,3.58-4.35,5.31-3.2,4.52-4.6,7.6-3.62,16.27a92.4,92.4,0,0,1,.62,17.58c0,.15,0,.32,0,.5a38.5,38.5,0,0,0,11.8,2.53c10.72.75,21.15-1.9,26-6.52.06.47.14.91.22,1.34-5.22,4.52-14.4,6.45-22.7,6.45-1.23,0-2.45-.05-3.62-.13a39.58,39.58,0,0,1-11.88-2.53c-.12.75-.29,1.62-.48,2.66a142,142,0,0,0-2.56,32.89c.54,15.46,1.24,27.1,1.61,32.75-.36-.18-.73-.36-1.07-.56l-.11-.06c-.38-5.9-1.05-17.23-1.57-32.09A143.16,143.16,0,0,1,355.2,145.57Z" style="fill:#fff"></path><path d="M385.44,91a24.35,24.35,0,0,1-6.51,4.11V74.49h9.14V84C388.33,85.54,387.13,89.42,385.44,91Z" style="opacity:0.2"></path><path d="M372.42,78.24a14.38,14.38,0,0,0,13,0c2-1.16,2.91-2.74,2.65-4.26a4.9,4.9,0,0,0-2.65-3.25,14.38,14.38,0,0,0-13,0,4.73,4.73,0,0,0-2.68,3.5C369.62,75.67,370.51,77.14,372.42,78.24Z" style="fill:#BA68C8"></path><path d="M372.42,78.24a14.38,14.38,0,0,0,13,0c2-1.16,2.91-2.74,2.65-4.26a4.9,4.9,0,0,0-2.65-3.25,14.38,14.38,0,0,0-13,0,4.73,4.73,0,0,0-2.68,3.5C369.62,75.67,370.51,77.14,372.42,78.24Z" style="fill:#fff;opacity:0.1"></path><path d="M368.31,95.61a1.56,1.56,0,0,0,.63,1l.06,0a23,23,0,0,0,2-3.27c1.74-3.71,2-10.19,2-14.81a6,6,0,0,1-.56-.3,5.5,5.5,0,0,1-.57-.36c0,4.54-.2,11.32-1.93,15A18.7,18.7,0,0,1,368.31,95.61Z" style="fill:#e0e0e0"></path></g></g><g id="freepik--Fabrics--inject-7"><g id="freepik--fabrics--inject-7"><g id="freepik--Fabric--inject-7"><path d="M272.2,265.31c0-1.2-.79-2.4-2.38-3.32a12.73,12.73,0,0,0-11.5,0,4,4,0,0,0-2.39,3.32v8.57c0,1.2.8,2.4,2.38,3.32a12.73,12.73,0,0,0,11.5,0c1.59-.92,2.39-2.12,2.39-3.32Z" style="fill:#37474f"></path><path d="M258.32,262a4,4,0,0,0-2.39,3.32c0,1.2.8,2.4,2.39,3.32a12.73,12.73,0,0,0,11.5,0,4,4,0,0,0,2.38-3.32c0-1.2-.79-2.4-2.38-3.32A12.73,12.73,0,0,0,258.32,262Z" style="fill:#455a64"></path><path d="M260.11,263.11a2.3,2.3,0,0,0,0,4.4,9,9,0,0,0,7.91,0,2.3,2.3,0,0,0,0-4.4A9,9,0,0,0,260.11,263.11Z" style="fill:#263238"></path><path d="M280,259.8c0-1.44.06-199,.06-200.42h0c0-6.14-7.16-11.12-16-11.12s-16,5-16,11.1v0h0c0,1.43-.06,199-.06,200.42h0v0c0,6.14,7.17,11.12,16,11.12s16-5,16-11.1v0Z" style="fill:#e6e6e6"></path><path d="M253.29,257.8c0-4.44,0-162.48,0-175.79s.09-18,4.57-17.48l2.86-16.06c-7.26,1.06-12.71,5.52-12.71,10.87v0h0c0,1.43-.06,199-.06,200.42h0v0c0,6.14,7.17,11.12,16,11.12a22.67,22.67,0,0,0,4.88-.52C256.73,271.51,253.28,262.24,253.29,257.8Z" style="opacity:0.1"></path><path d="M254.22,51.62c-2.73,1.57-4.09,3.63-4.09,5.69s1.36,4.12,4.08,5.69c5.44,3.14,14.26,3.14,19.71,0,2.72-1.57,4.08-3.63,4.08-5.69s-1.36-4.12-4.08-5.69C268.48,48.49,259.66,48.48,254.22,51.62Z" style="fill:#f5f5f5"></path><path d="M272.2,46.93c0-1.2-.79-2.4-2.38-3.32a12.7,12.7,0,0,0-11.5,0,4.07,4.07,0,0,0-2.39,3.32v8.57a4,4,0,0,0,2.38,3.32,12.7,12.7,0,0,0,11.5,0c1.59-.92,2.39-2.12,2.39-3.32Z" style="fill:#37474f"></path><path d="M258.32,43.6a4.07,4.07,0,0,0-2.39,3.32c0,1.2.8,2.41,2.39,3.32a12.7,12.7,0,0,0,11.5,0c1.58-.92,2.38-2.12,2.38-3.32s-.79-2.4-2.38-3.32A12.7,12.7,0,0,0,258.32,43.6Z" style="fill:#455a64"></path><path d="M260.11,44.72a2.68,2.68,0,0,0-1.63,2.2,2.68,2.68,0,0,0,1.63,2.21,9,9,0,0,0,7.91,0,2.69,2.69,0,0,0,1.64-2.2,2.67,2.67,0,0,0-1.64-2.2A9,9,0,0,0,260.11,44.72Z" style="fill:#263238"></path></g><g id="freepik--fabric--inject-7"><path d="M242.47,275.62c0-1.2-.8-2.4-2.38-3.32a12.73,12.73,0,0,0-11.5,0c-1.59.91-2.39,2.11-2.39,3.32v8.57c0,1.2.79,2.4,2.38,3.32a12.73,12.73,0,0,0,11.5,0c1.59-.92,2.38-2.12,2.38-3.32C242.47,283.46,242.47,276.35,242.47,275.62Z" style="fill:#37474f"></path><path d="M228.59,272.3c-1.59.91-2.39,2.11-2.39,3.32s.8,2.4,2.38,3.32a12.73,12.73,0,0,0,11.5,0c1.59-.92,2.39-2.12,2.39-3.32s-.8-2.4-2.38-3.32A12.73,12.73,0,0,0,228.59,272.3Z" style="fill:#455a64"></path><path d="M230.38,273.42a2.3,2.3,0,0,0,0,4.4,9,9,0,0,0,7.91,0,2.3,2.3,0,0,0,0-4.4A9,9,0,0,0,230.38,273.42Z" style="fill:#263238"></path><path d="M250.29,270.11c0-1.44.06-199,.06-200.42h0c0-6.14-7.17-11.12-16-11.12s-16,5-16,11.1v0h0c0,1.43-.06,199-.06,200.42h0v0c0,6.14,7.16,11.12,16,11.12s16-5,16-11.11v0Z" style="fill:#e6e6e6"></path><path d="M223.56,268.11c0-4.44,0-162.48,0-175.79s.09-18,4.57-17.48L231,58.78c-7.26,1.06-12.71,5.52-12.72,10.87v0h0c0,1.43-.06,199-.06,200.42h0v0c0,6.14,7.16,11.12,16,11.12a22.67,22.67,0,0,0,4.88-.52C227,281.82,223.55,272.55,223.56,268.11Z" style="opacity:0.1"></path><path d="M224.48,61.93c-2.72,1.57-4.08,3.63-4.08,5.69s1.36,4.12,4.08,5.69c5.44,3.14,14.26,3.14,19.7,0,2.73-1.56,4.09-3.62,4.09-5.68s-1.36-4.12-4.08-5.69C238.75,58.8,229.93,58.79,224.48,61.93Z" style="fill:#f5f5f5"></path><path d="M242.47,57.24c0-1.2-.8-2.4-2.38-3.32a12.7,12.7,0,0,0-11.5,0c-1.59.92-2.39,2.12-2.39,3.32V65.8a4,4,0,0,0,2.38,3.32,12.7,12.7,0,0,0,11.5,0c1.59-.92,2.38-2.12,2.38-3.32C242.47,65.08,242.47,58,242.47,57.24Z" style="fill:#37474f"></path><path d="M228.59,53.91c-1.59.92-2.39,2.12-2.39,3.32a4,4,0,0,0,2.38,3.32,12.7,12.7,0,0,0,11.5,0c1.59-.92,2.39-2.12,2.39-3.32s-.8-2.4-2.38-3.32A12.7,12.7,0,0,0,228.59,53.91Z" style="fill:#455a64"></path><path d="M230.38,55a2.31,2.31,0,0,0,0,4.41,9,9,0,0,0,7.91,0,2.67,2.67,0,0,0,1.63-2.2,2.64,2.64,0,0,0-1.63-2.2A9,9,0,0,0,230.38,55Z" style="fill:#263238"></path></g></g></g><g id="freepik--Thimble--inject-7"><g id="freepik--thimble--inject-7"><path d="M404.06,356.41v-.23h0c-.34-4.45-5.64-8-12.14-8s-11.79,3.53-12.13,8h0s0,.06,0,.19v0c-.12,2.06-1,17.28-1.1,20.2a5,5,0,0,0,1,2.88l.12.17a9.25,9.25,0,0,0,2.79,2.36c5.17,3,13.56,3,18.73,0a9.08,9.08,0,0,0,2.78-2.36,5.06,5.06,0,0,0,1.1-3.05C405.06,373.69,404.18,358.47,404.06,356.41Z" style="fill:#37474f"></path><path d="M384.44,349.8c-2.06,1.19-3.09,2.75-3.09,4.32s1,3.12,3.09,4.31a16.54,16.54,0,0,0,14.95,0c2.06-1.19,3.09-2.75,3.09-4.31s-1-3.13-3.09-4.32A16.54,16.54,0,0,0,384.44,349.8Z" style="fill:#455a64"></path><path d="M397.9,356.76a1.57,1.57,0,0,0-1.4,0,.43.43,0,0,0,0,.81,1.57,1.57,0,0,0,1.4,0A.43.43,0,0,0,397.9,356.76Zm-10.57-6.1a1.57,1.57,0,0,0-1.4,0,.43.43,0,0,0,0,.81,1.57,1.57,0,0,0,1.4,0A.43.43,0,0,0,387.33,350.66Zm6.26,7.07c-.53.08-.84.4-.7.7a1.19,1.19,0,0,0,1.22.41c.52-.09.84-.4.7-.71A1.22,1.22,0,0,0,393.59,357.73Zm-3.87-8.33c-.52.08-.84.39-.7.7a1.21,1.21,0,0,0,1.22.4c.53-.08.84-.39.7-.7A1.17,1.17,0,0,0,389.72,349.4Zm.52,8.33a1.21,1.21,0,0,0-1.22.4c-.14.31.18.62.7.71a1.19,1.19,0,0,0,1.22-.41C391.08,358.13,390.77,357.81,390.24,357.73Zm3.87-8.33a1.17,1.17,0,0,0-1.22.4c-.14.31.17.62.7.7a1.22,1.22,0,0,0,1.22-.4C395,349.79,394.63,349.48,394.11,349.4Zm-6.78,7.36a1.57,1.57,0,0,0-1.4,0,.43.43,0,0,0,0,.81,1.57,1.57,0,0,0,1.4,0A.43.43,0,0,0,387.33,356.76Zm9.17-5.29a1.57,1.57,0,0,0,1.4,0,.43.43,0,0,0,0-.81,1.57,1.57,0,0,0-1.4,0A.43.43,0,0,0,396.5,351.47Zm1.67,1.68a1.22,1.22,0,0,0,1.22.4c.53-.08.84-.39.7-.7a1.18,1.18,0,0,0-1.21-.4C398.35,352.53,398,352.84,398.17,353.15Zm-12.52,1.93a1.19,1.19,0,0,0-1.21-.4c-.53.08-.84.39-.7.7a1.15,1.15,0,0,0,1.21.4C385.48,355.7,385.8,355.39,385.65,355.08Zm-1.21-1.53a1.19,1.19,0,0,0,1.21-.4c.15-.31-.17-.62-.7-.7a1.17,1.17,0,0,0-1.21.4C383.6,353.16,383.91,353.47,384.44,353.55Zm3.46-.2a1.19,1.19,0,0,0,1.22-.4c.14-.31-.17-.62-.7-.7a1.21,1.21,0,0,0-1.22.4C387.06,353,387.37,353.27,387.9,353.35Zm3.76-1.15a1.17,1.17,0,0,0,1.21-.41c.14-.3-.17-.62-.7-.7a1.17,1.17,0,0,0-1.21.41C390.82,351.8,391.13,352.11,391.66,352.2Zm0,2.15a1.17,1.17,0,0,0,1.21-.41c.14-.3-.17-.62-.7-.7a1.17,1.17,0,0,0-1.21.41C390.82,354,391.13,354.27,391.66,354.35Zm-3.56,1.28a1.2,1.2,0,0,0,1.22-.41c.14-.3-.18-.61-.71-.7a1.18,1.18,0,0,0-1.21.41C387.26,355.23,387.57,355.55,388.1,355.63Zm8.49-3a1.19,1.19,0,0,0-1.21-.4c-.53.08-.84.39-.7.7a1.17,1.17,0,0,0,1.21.4C396.42,353.27,396.73,353,396.59,352.65Zm-.2,2.28a1.17,1.17,0,0,0-1.21-.41c-.53.09-.84.4-.7.7a1.17,1.17,0,0,0,1.21.41C396.22,355.55,396.54,355.23,396.39,354.93Zm-4.78,1.64a1.17,1.17,0,0,0,1.21-.4c.14-.31-.17-.62-.7-.7a1.19,1.19,0,0,0-1.21.4C390.77,356.18,391.08,356.49,391.61,356.57Zm7.78-1.89a1.22,1.22,0,0,0-1.22.4c-.14.31.18.62.71.7a1.16,1.16,0,0,0,1.21-.4C400.23,355.07,399.92,354.76,399.39,354.68Z" style="fill:#37474f"></path><path d="M403.27,359.21a1.87,1.87,0,0,1-.79,1.51c-.43.25-.79,0-.79-.59a1.9,1.9,0,0,1,.79-1.51C402.92,358.37,403.27,358.63,403.27,359.21Z" style="fill:#455a64"></path><path d="M400,361.15a1.44,1.44,0,0,1-.83,1.3c-.45.17-.82-.14-.82-.7a1.45,1.45,0,0,1,.82-1.3C399.6,360.28,400,360.59,400,361.15Z" style="fill:#455a64"></path><path d="M396.54,362.34a1.13,1.13,0,0,1-.87,1.11.74.74,0,0,1-.87-.8,1.13,1.13,0,0,1,.87-1.11A.75.75,0,0,1,396.54,362.34Z" style="fill:#455a64"></path><circle cx="392.06" cy="362.8" r="0.91" style="fill:#455a64"></circle><path d="M380.86,359.21a1.87,1.87,0,0,0,.79,1.51c.43.25.79,0,.79-.59a1.9,1.9,0,0,0-.79-1.51C381.21,358.37,380.86,358.63,380.86,359.21Z" style="fill:#455a64"></path><path d="M384.16,361.15a1.45,1.45,0,0,0,.82,1.3c.46.17.83-.14.83-.7a1.44,1.44,0,0,0-.83-1.3C384.53,360.28,384.16,360.59,384.16,361.15Z" style="fill:#455a64"></path><path d="M387.59,362.34a1.13,1.13,0,0,0,.87,1.11.74.74,0,0,0,.87-.8,1.13,1.13,0,0,0-.87-1.11A.75.75,0,0,0,387.59,362.34Z" style="fill:#455a64"></path><circle cx="392.06" cy="362.8" r="0.91" style="fill:#455a64"></circle><path d="M403.51,363a2,2,0,0,1-.8,1.54c-.45.26-.81,0-.81-.61a1.93,1.93,0,0,1,.81-1.54C403.15,362.14,403.51,362.42,403.51,363Z" style="fill:#455a64"></path><path d="M400.14,365a1.5,1.5,0,0,1-.84,1.34c-.47.17-.85-.15-.85-.72a1.48,1.48,0,0,1,.85-1.33C399.76,364.1,400.14,364.42,400.14,365Z" style="fill:#455a64"></path><path d="M396.64,366.21a1.16,1.16,0,0,1-.89,1.13.77.77,0,0,1-.89-.82,1.18,1.18,0,0,1,.89-1.14A.77.77,0,0,1,396.64,366.21Z" style="fill:#455a64"></path><path d="M393,366.68a.93.93,0,1,1-.93-.93A.93.93,0,0,1,393,366.68Z" style="fill:#455a64"></path><path d="M380.62,363a2,2,0,0,0,.8,1.54c.45.26.81,0,.81-.61a1.93,1.93,0,0,0-.81-1.54C381,362.14,380.62,362.42,380.62,363Z" style="fill:#455a64"></path><path d="M384,365a1.48,1.48,0,0,0,.84,1.34c.47.17.85-.15.85-.72a1.48,1.48,0,0,0-.85-1.33C384.36,364.1,384,364.42,384,365Z" style="fill:#455a64"></path><path d="M387.49,366.21a1.16,1.16,0,0,0,.89,1.13.77.77,0,0,0,.89-.82,1.18,1.18,0,0,0-.89-1.14A.77.77,0,0,0,387.49,366.21Z" style="fill:#455a64"></path><path d="M391.14,366.68a.93.93,0,1,0,.92-.93A.93.93,0,0,0,391.14,366.68Z" style="fill:#455a64"></path><path d="M403.91,367a2,2,0,0,1-.84,1.6c-.46.26-.83,0-.83-.63a2,2,0,0,1,.83-1.6C403.53,366.13,403.91,366.41,403.91,367Z" style="fill:#455a64"></path><path d="M400.42,369.07a1.55,1.55,0,0,1-.87,1.38c-.49.17-.88-.16-.88-.74a1.52,1.52,0,0,1,.88-1.38C400,368.15,400.42,368.48,400.42,369.07Z" style="fill:#455a64"></path><ellipse cx="395.88" cy="370.49" rx="1.06" ry="0.87" transform="translate(-115.94 549.43) rotate(-62.37)" style="fill:#455a64"></ellipse><circle cx="392.06" cy="370.82" r="0.96" style="fill:#455a64"></circle><path d="M380.22,367a2,2,0,0,0,.84,1.6c.46.26.83,0,.83-.63a2,2,0,0,0-.83-1.6C380.6,366.13,380.22,366.41,380.22,367Z" style="fill:#455a64"></path><path d="M383.71,369.07a1.55,1.55,0,0,0,.87,1.38c.49.17.88-.16.88-.74a1.52,1.52,0,0,0-.88-1.38C384.1,368.15,383.71,368.48,383.71,369.07Z" style="fill:#455a64"></path><ellipse cx="388.25" cy="370.49" rx="0.87" ry="1.06" transform="translate(-127.53 222.28) rotate(-27.63)" style="fill:#455a64"></ellipse><circle cx="392.06" cy="370.82" r="0.96" style="fill:#455a64"></circle><path d="M404.12,371.37a2,2,0,0,1-.84,1.62c-.47.27-.85,0-.85-.64a2,2,0,0,1,.85-1.62C403.74,370.46,404.12,370.75,404.12,371.37Z" style="fill:#455a64"></path><path d="M400.58,373.45a1.56,1.56,0,0,1-.9,1.41c-.49.18-.89-.16-.89-.76a1.57,1.57,0,0,1,.89-1.4C400.18,372.52,400.58,372.85,400.58,373.45Z" style="fill:#455a64"></path><path d="M396.88,374.74a1.22,1.22,0,0,1-.93,1.19.81.81,0,0,1-.94-.87,1.23,1.23,0,0,1,.94-1.19A.81.81,0,0,1,396.88,374.74Z" style="fill:#455a64"></path><circle cx="392.06" cy="375.23" r="0.98" style="fill:#455a64"></circle><path d="M380,371.37a2,2,0,0,0,.84,1.62c.47.27.85,0,.85-.64a2,2,0,0,0-.85-1.62C380.39,370.46,380,370.75,380,371.37Z" style="fill:#455a64"></path><path d="M383.55,373.45a1.56,1.56,0,0,0,.9,1.41c.49.18.89-.16.89-.76a1.57,1.57,0,0,0-.89-1.4C384,372.52,383.55,372.85,383.55,373.45Z" style="fill:#455a64"></path><path d="M387.25,374.74a1.22,1.22,0,0,0,.93,1.19.81.81,0,0,0,.94-.87,1.23,1.23,0,0,0-.94-1.19A.81.81,0,0,0,387.25,374.74Z" style="fill:#455a64"></path><circle cx="392.06" cy="375.23" r="0.98" style="fill:#455a64"></circle><path d="M404.47,375.82a2.1,2.1,0,0,1-.87,1.67c-.48.27-.87,0-.87-.66a2.09,2.09,0,0,1,.87-1.67C404.08,374.88,404.47,375.17,404.47,375.82Z" style="fill:#455a64"></path><path d="M400.82,378a1.59,1.59,0,0,1-.92,1.44c-.5.19-.91-.16-.91-.77a1.62,1.62,0,0,1,.91-1.45C400.41,377,400.82,377.34,400.82,378Z" style="fill:#455a64"></path><path d="M397,379.28a1.25,1.25,0,0,1-1,1.23.83.83,0,0,1-1-.89,1.25,1.25,0,0,1,1-1.23A.83.83,0,0,1,397,379.28Z" style="fill:#455a64"></path><circle cx="392.06" cy="379.79" r="1.01" style="fill:#455a64"></circle><path d="M379.66,375.82a2.1,2.1,0,0,0,.87,1.67c.48.27.87,0,.87-.66a2.09,2.09,0,0,0-.87-1.67C380.05,374.88,379.66,375.17,379.66,375.82Z" style="fill:#455a64"></path><path d="M383.31,378a1.59,1.59,0,0,0,.92,1.44c.5.19.91-.16.91-.77a1.62,1.62,0,0,0-.91-1.45C383.72,377,383.31,377.34,383.31,378Z" style="fill:#455a64"></path><path d="M387.11,379.28a1.25,1.25,0,0,0,1,1.23.83.83,0,0,0,1-.89,1.25,1.25,0,0,0-1-1.23A.83.83,0,0,0,387.11,379.28Z" style="fill:#455a64"></path><circle cx="392.06" cy="379.79" r="1.01" style="fill:#455a64"></circle><path d="M404.91,371.51l.19,4.76a4.27,4.27,0,0,1-.94,2.57,8.77,8.77,0,0,1-2.67,2.24c-5.28,3.05-13.87,3.05-19.16,0a8.72,8.72,0,0,1-2.66-2.24l-.08-.11,0,0a4.21,4.21,0,0,1-.83-2.42l.19-4.76a4.92,4.92,0,0,0-2.68,4.76,6.62,6.62,0,0,0,1.29,3.86l0,.05.12.16a11.34,11.34,0,0,0,3.41,2.9,23.83,23.83,0,0,0,21.65,0,11.32,11.32,0,0,0,3.41-2.9,6.78,6.78,0,0,0,1.44-4.07A4.92,4.92,0,0,0,404.91,371.51Z" style="fill:#263238"></path></g></g><g id="freepik--Bobbin--inject-7"><g id="freepik--bobbin--inject-7"><path d="M469.28,385.91c-9.49-5.48-24.87-5.48-34.35,0-4.74,2.74-7.12,6.33-7.12,9.92v2.05c0,3.59,2.38,7.18,7.12,9.92,9.48,5.47,24.86,5.47,34.35,0,4.74-2.74,7.11-6.33,7.11-9.92v-2.05C476.39,392.24,474,388.65,469.28,385.91Zm-24.85,5.48a17,17,0,0,1,15.35,0c2.12,1.23,3.18,2.83,3.18,4.44s-1.06,3.2-3.18,4.43a17,17,0,0,1-15.35,0c-2.13-1.23-3.19-2.83-3.19-4.43S442.3,392.62,444.43,391.39Z" style="fill:#BA68C8"></path><path d="M469.28,385.91c-9.49-5.48-24.87-5.48-34.35,0-4.74,2.74-7.12,6.33-7.12,9.92v2.05c0,3.59,2.38,7.18,7.12,9.92,9.48,5.47,24.86,5.47,34.35,0,4.74-2.74,7.11-6.33,7.11-9.92v-2.05C476.39,392.24,474,388.65,469.28,385.91Zm-24.85,5.48a17,17,0,0,1,15.35,0c2.12,1.23,3.18,2.83,3.18,4.44s-1.06,3.2-3.18,4.43a17,17,0,0,1-15.35,0c-2.13-1.23-3.19-2.83-3.19-4.43S442.3,392.62,444.43,391.39Z" style="fill:#fff;opacity:0.35000000000000003"></path><path d="M469.28,385.91c-9.49-5.48-24.87-5.48-34.35,0-4.74,2.74-7.12,6.33-7.12,9.92s2.38,7.17,7.12,9.91c9.48,5.48,24.86,5.48,34.35,0,4.74-2.74,7.11-6.32,7.11-9.91S474,388.65,469.28,385.91Zm-9.5,14.35a17,17,0,0,1-15.35,0c-2.13-1.23-3.19-2.83-3.19-4.43s1.06-3.21,3.19-4.44a17,17,0,0,1,15.35,0c2.12,1.23,3.18,2.83,3.18,4.44S461.9,399,459.78,400.26Z" style="fill:#BA68C8"></path><path d="M469.28,385.91c-9.49-5.48-24.87-5.48-34.35,0-4.74,2.74-7.12,6.33-7.12,9.92s2.38,7.17,7.12,9.91c9.48,5.48,24.86,5.48,34.35,0,4.74-2.74,7.11-6.32,7.11-9.91S474,388.65,469.28,385.91Zm-9.5,14.35a17,17,0,0,1-15.35,0c-2.13-1.23-3.19-2.83-3.19-4.43s1.06-3.21,3.19-4.44a17,17,0,0,1,15.35,0c2.12,1.23,3.18,2.83,3.18,4.44S461.9,399,459.78,400.26Z" style="fill:#fff;opacity:0.6000000000000001"></path><path d="M463,395.83c0,1.6-1.06,3.2-3.18,4.43a17,17,0,0,1-15.35,0c-2.13-1.23-3.19-2.83-3.19-4.43s1.06-3.21,3.19-4.44a17,17,0,0,1,15.35,0C461.9,392.62,463,394.22,463,395.83Z" style="fill:#BA68C8"></path><path d="M463,395.83c0,1.6-1.06,3.2-3.18,4.43a17,17,0,0,1-15.35,0c-2.13-1.23-3.19-2.83-3.19-4.43s1.06-3.21,3.19-4.44a17,17,0,0,1,15.35,0C461.9,392.62,463,394.22,463,395.83Z" style="fill:#fff;opacity:0.35000000000000003"></path><path d="M466.05,402a3.6,3.6,0,0,0-3.26,0,1,1,0,0,0,0,1.88,3.6,3.6,0,0,0,3.26,0A1,1,0,0,0,466.05,402Zm-24.59-14.21a3.62,3.62,0,0,0-3.27,0,1,1,0,0,0,0,1.89,3.62,3.62,0,0,0,3.27,0A1,1,0,0,0,441.46,387.79ZM456,404.25c-1.23.19-2,.92-1.63,1.63s1.59,1.13,2.82.94,2-.92,1.63-1.63S457.26,404.06,456,404.25Zm-9-19.4c-1.23.19-2,.92-1.63,1.63s1.6,1.13,2.83.94,2-.92,1.63-1.63S448.26,384.66,447,384.85Zm1.2,19.4c-1.23-.19-2.5.23-2.83.94s.4,1.44,1.63,1.63,2.5-.23,2.83-.94S449.45,404.44,448.22,404.25Zm9-19.4c-1.23-.19-2.49.23-2.82.94s.4,1.44,1.63,1.63,2.49-.23,2.82-.94S458.45,385,457.22,384.85ZM441.46,402a3.62,3.62,0,0,0-3.27,0,1,1,0,0,0,0,1.88,3.62,3.62,0,0,0,3.27,0A1,1,0,0,0,441.46,402Zm21.33-12.32a3.6,3.6,0,0,0,3.26,0,1,1,0,0,0,0-1.89,3.6,3.6,0,0,0-3.26,0A1,1,0,0,0,462.79,389.68Zm3.9,3.9c.33.71,1.6,1.14,2.83.95s2-.93,1.63-1.64-1.59-1.13-2.82-.94S466.36,392.87,466.69,393.58Zm-29.14,4.51c-.33-.71-1.59-1.13-2.83-.94s-2,.92-1.63,1.63,1.6,1.13,2.83.94S437.88,398.8,437.55,398.09Zm-2.83-3.56c1.24.19,2.5-.24,2.83-.95s-.4-1.44-1.63-1.63-2.5.23-2.83.94S433.49,394.33,434.72,394.53Zm34.8,2.62c-1.23-.19-2.5.23-2.83.94s.4,1.44,1.64,1.63,2.49-.23,2.82-.94S470.75,397.34,469.52,397.15Z" style="fill:#BA68C8"></path><path d="M466.05,402a3.6,3.6,0,0,0-3.26,0,1,1,0,0,0,0,1.88,3.6,3.6,0,0,0,3.26,0A1,1,0,0,0,466.05,402Zm-24.59-14.21a3.62,3.62,0,0,0-3.27,0,1,1,0,0,0,0,1.89,3.62,3.62,0,0,0,3.27,0A1,1,0,0,0,441.46,387.79ZM456,404.25c-1.23.19-2,.92-1.63,1.63s1.59,1.13,2.82.94,2-.92,1.63-1.63S457.26,404.06,456,404.25Zm-9-19.4c-1.23.19-2,.92-1.63,1.63s1.6,1.13,2.83.94,2-.92,1.63-1.63S448.26,384.66,447,384.85Zm1.2,19.4c-1.23-.19-2.5.23-2.83.94s.4,1.44,1.63,1.63,2.5-.23,2.83-.94S449.45,404.44,448.22,404.25Zm9-19.4c-1.23-.19-2.49.23-2.82.94s.4,1.44,1.63,1.63,2.49-.23,2.82-.94S458.45,385,457.22,384.85ZM441.46,402a3.62,3.62,0,0,0-3.27,0,1,1,0,0,0,0,1.88,3.62,3.62,0,0,0,3.27,0A1,1,0,0,0,441.46,402Zm21.33-12.32a3.6,3.6,0,0,0,3.26,0,1,1,0,0,0,0-1.89,3.6,3.6,0,0,0-3.26,0A1,1,0,0,0,462.79,389.68Zm3.9,3.9c.33.71,1.6,1.14,2.83.95s2-.93,1.63-1.64-1.59-1.13-2.82-.94S466.36,392.87,466.69,393.58Zm-29.14,4.51c-.33-.71-1.59-1.13-2.83-.94s-2,.92-1.63,1.63,1.6,1.13,2.83.94S437.88,398.8,437.55,398.09Zm-2.83-3.56c1.24.19,2.5-.24,2.83-.95s-.4-1.44-1.63-1.63-2.5.23-2.83.94S433.49,394.33,434.72,394.53Zm34.8,2.62c-1.23-.19-2.5.23-2.83.94s.4,1.44,1.64,1.63,2.49-.23,2.82-.94S470.75,397.34,469.52,397.15Z" style="fill:#fff;opacity:0.35000000000000003"></path><path d="M470.69,399.29a2.78,2.78,0,0,0-1.17-.43,3.44,3.44,0,0,0-2.36.43,2.78,2.78,0,0,0,1.17.43A3.4,3.4,0,0,0,470.69,399.29Z" style="fill:#BA68C8"></path><path d="M466.05,403.88l.14-.09-.14-.08a3.6,3.6,0,0,0-3.26,0l-.14.08.14.09A3.6,3.6,0,0,0,466.05,403.88Z" style="fill:#BA68C8"></path><path d="M454.86,387a2.65,2.65,0,0,0,1.17.43,3.4,3.4,0,0,0,2.36-.43,2.78,2.78,0,0,0-1.17-.43A3.45,3.45,0,0,0,454.86,387Z" style="fill:#BA68C8"></path><path d="M468.33,393.66a2.92,2.92,0,0,0-1.17.43,3.44,3.44,0,0,0,2.36.44,2.78,2.78,0,0,0,1.17-.44A3.45,3.45,0,0,0,468.33,393.66Z" style="fill:#BA68C8"></path><path d="M457.22,406.82a2.65,2.65,0,0,0,1.17-.43A3.45,3.45,0,0,0,456,406a2.78,2.78,0,0,0-1.17.43A3.4,3.4,0,0,0,457.22,406.82Z" style="fill:#BA68C8"></path><path d="M462.79,389.5l-.14.09.14.09a3.6,3.6,0,0,0,3.26,0l.14-.09-.14-.09A3.6,3.6,0,0,0,462.79,389.5Z" style="fill:#BA68C8"></path><path d="M435.92,399.72a2.78,2.78,0,0,0,1.17-.43,3.47,3.47,0,0,0-2.37-.43,2.89,2.89,0,0,0-1.17.43A3.41,3.41,0,0,0,435.92,399.72Z" style="fill:#BA68C8"></path><path d="M433.55,394.09a2.89,2.89,0,0,0,1.17.44,3.47,3.47,0,0,0,2.37-.44,2.92,2.92,0,0,0-1.17-.43A3.47,3.47,0,0,0,433.55,394.09Z" style="fill:#BA68C8"></path><path d="M441.46,403.88l.13-.09-.13-.08a3.62,3.62,0,0,0-3.27,0,.57.57,0,0,0-.13.08l.13.09A3.62,3.62,0,0,0,441.46,403.88Z" style="fill:#BA68C8"></path><path d="M447,386.56a2.89,2.89,0,0,0-1.17.43,3.41,3.41,0,0,0,2.37.43,2.75,2.75,0,0,0,1.17-.43A3.47,3.47,0,0,0,447,386.56Z" style="fill:#BA68C8"></path><path d="M441.46,389.5a3.62,3.62,0,0,0-3.27,0l-.13.09.13.09a3.62,3.62,0,0,0,3.27,0l.13-.09Z" style="fill:#BA68C8"></path><path d="M449.39,406.39a2.89,2.89,0,0,0-1.17-.43,3.47,3.47,0,0,0-2.37.43,2.75,2.75,0,0,0,1.17.43A3.41,3.41,0,0,0,449.39,406.39Z" style="fill:#BA68C8"></path><path d="M472.77,380.29c0-3.05-2-6.1-6-8.43-8.07-4.66-21.16-4.66-29.23,0-4,2.33-6.05,5.38-6.05,8.43v15.1c0,3.05,2,6.1,6.05,8.43,8.07,4.66,21.16,4.66,29.23,0,4-2.33,6-5.38,6-8.43Z" style="fill:#BA68C8"></path><path d="M464.46,401.08c-.61,0-1.23,0-1.85,0s-1.18,0-1.77,0c-1.17,0-2.34-.08-3.51-.19a46.13,46.13,0,0,1-6.79-1.08,36.93,36.93,0,0,1-11.4-4.74c-.95-.61-1.87-1.25-2.76-1.95s-1.77-1.5-2.66-2.26c-.1-.08-.22,0-.13.14a17.11,17.11,0,0,0,2.25,2.17c.79.65,1.61,1.27,2.46,1.84a34.05,34.05,0,0,0,5.36,2.95,41.63,41.63,0,0,0,12.8,3.23c1.31.12,2.63.18,4,.2h2a20.75,20.75,0,0,0,2.09-.12C464.66,401.25,464.55,401.08,464.46,401.08ZM469,398.2c-1.53.1-3.05.27-4.58.31s-3,0-4.57-.09a47.9,47.9,0,0,1-9-1.45c-1.72-.45-3.39-1-5.08-1.57-.11,0-.08.14,0,.17a33.3,33.3,0,0,0,4.34,1.52c1.48.42,3,.76,4.49,1a46.65,46.65,0,0,0,9.14.72,31.36,31.36,0,0,0,5.3-.47C469.13,398.36,469.05,398.2,469,398.2Zm1.95-8.62a35.37,35.37,0,0,1-5,3.82,28.46,28.46,0,0,1-5.63,2.67c-1.16.4-2.34.71-3.53,1-.13,0,0,.21.1.2A23.65,23.65,0,0,0,463,395.4a28,28,0,0,0,5.44-3.26,18.45,18.45,0,0,0,2.67-2.4C471.17,389.65,471,389.51,470.93,389.58ZM444.5,400a6.09,6.09,0,0,0,1.41-.15c.09,0,0-.16-.05-.16-.4,0-.8,0-1.2,0l-1.13,0c-.79,0-1.58-.07-2.36-.15a23.71,23.71,0,0,1-4.63-1c-.42-.13-.83-.27-1.24-.42s-.9-.35-1.36-.47c-.09,0-.05.11,0,.13a9,9,0,0,0,2.27,1c.75.24,1.51.45,2.28.62a23.56,23.56,0,0,0,4.65.57C443.59,400,444,400,444.5,400Zm12.72,2.25a12.6,12.6,0,0,0-1.47.36c-.48.13-1,.24-1.44.35-.95.2-1.91.37-2.88.5a37.08,37.08,0,0,1-6,.29c-1.11,0-2.22-.11-3.32-.2,0,0,0,.09,0,.09a27.13,27.13,0,0,0,6,.41,32,32,0,0,0,5.85-.72c.57-.12,1.13-.26,1.69-.41l.78-.22a3.14,3.14,0,0,0,.79-.3C457.38,402.35,457.29,402.23,457.22,402.24Z" style="opacity:0.1"></path><path d="M469.28,367.54c-9.49-5.48-24.87-5.48-34.35,0-4.74,2.73-7.12,6.32-7.12,9.91v2.06c0,3.59,2.38,7.18,7.12,9.91,9.48,5.48,24.86,5.48,34.35,0,4.74-2.73,7.11-6.32,7.11-9.91v-2.06C476.39,373.86,474,370.27,469.28,367.54ZM444.43,373a17,17,0,0,1,15.35,0c2.12,1.22,3.18,2.83,3.18,4.43s-1.06,3.21-3.18,4.44a17,17,0,0,1-15.35,0c-2.13-1.23-3.19-2.83-3.19-4.44S442.3,374.24,444.43,373Z" style="fill:#BA68C8"></path><path d="M469.28,367.54c-9.49-5.48-24.87-5.48-34.35,0-4.74,2.73-7.12,6.32-7.12,9.91v2.06c0,3.59,2.38,7.18,7.12,9.91,9.48,5.48,24.86,5.48,34.35,0,4.74-2.73,7.11-6.32,7.11-9.91v-2.06C476.39,373.86,474,370.27,469.28,367.54ZM444.43,373a17,17,0,0,1,15.35,0c2.12,1.22,3.18,2.83,3.18,4.43s-1.06,3.21-3.18,4.44a17,17,0,0,1-15.35,0c-2.13-1.23-3.19-2.83-3.19-4.44S442.3,374.24,444.43,373Z" style="fill:#fff;opacity:0.35000000000000003"></path><path d="M469.28,367.54c-9.49-5.48-24.87-5.48-34.35,0-4.74,2.73-7.12,6.32-7.12,9.91s2.38,7.18,7.12,9.92c9.48,5.47,24.86,5.47,34.35,0,4.74-2.74,7.11-6.33,7.11-9.92S474,370.27,469.28,367.54Zm-9.5,14.35a17,17,0,0,1-15.35,0c-2.13-1.23-3.19-2.83-3.19-4.44s1.06-3.21,3.19-4.43a17,17,0,0,1,15.35,0c2.12,1.22,3.18,2.83,3.18,4.43S461.9,380.66,459.78,381.89Z" style="fill:#BA68C8"></path><path d="M469.28,367.54c-9.49-5.48-24.87-5.48-34.35,0-4.74,2.73-7.12,6.32-7.12,9.91s2.38,7.18,7.12,9.92c9.48,5.47,24.86,5.47,34.35,0,4.74-2.74,7.11-6.33,7.11-9.92S474,370.27,469.28,367.54Zm-9.5,14.35a17,17,0,0,1-15.35,0c-2.13-1.23-3.19-2.83-3.19-4.44s1.06-3.21,3.19-4.43a17,17,0,0,1,15.35,0c2.12,1.22,3.18,2.83,3.18,4.43S461.9,380.66,459.78,381.89Z" style="fill:#fff;opacity:0.7000000000000001"></path><path d="M463,377.45c0,1.61-1.06,3.21-3.18,4.44a17,17,0,0,1-15.35,0c-2.13-1.23-3.19-2.83-3.19-4.44s1.06-3.21,3.19-4.43a17,17,0,0,1,15.35,0C461.9,374.24,463,375.85,463,377.45Z" style="fill:#BA68C8"></path><path d="M463,377.45c0,1.61-1.06,3.21-3.18,4.44a17,17,0,0,1-15.35,0c-2.13-1.23-3.19-2.83-3.19-4.44s1.06-3.21,3.19-4.43a17,17,0,0,1,15.35,0C461.9,374.24,463,375.85,463,377.45Z" style="fill:#fff;opacity:0.35000000000000003"></path><path d="M466.05,383.62a3.6,3.6,0,0,0-3.26,0,1,1,0,0,0,0,1.89,3.6,3.6,0,0,0,3.26,0A1,1,0,0,0,466.05,383.62Zm-24.59-14.2a3.62,3.62,0,0,0-3.27,0,1,1,0,0,0,0,1.88,3.62,3.62,0,0,0,3.27,0A1,1,0,0,0,441.46,369.42ZM456,385.88c-1.23.19-2,.92-1.63,1.63s1.59,1.13,2.82.94,2-.92,1.63-1.63S457.26,385.68,456,385.88Zm-9-19.4c-1.23.19-2,.92-1.63,1.63s1.6,1.13,2.83.94,2-.92,1.63-1.63S448.26,366.28,447,366.48Zm1.2,19.4c-1.23-.2-2.5.23-2.83.94s.4,1.44,1.63,1.63,2.5-.23,2.83-.94S449.45,386.07,448.22,385.88Zm9-19.4c-1.23-.2-2.49.23-2.82.94s.4,1.44,1.63,1.63,2.49-.23,2.82-.94S458.45,366.67,457.22,366.48Zm-15.76,17.14a3.62,3.62,0,0,0-3.27,0,1,1,0,0,0,0,1.89,3.62,3.62,0,0,0,3.27,0A1,1,0,0,0,441.46,383.62Zm21.33-12.32a3.6,3.6,0,0,0,3.26,0,1,1,0,0,0,0-1.88,3.6,3.6,0,0,0-3.26,0A1,1,0,0,0,462.79,371.3Zm3.9,3.91c.33.71,1.6,1.13,2.83.94s2-.92,1.63-1.63-1.59-1.13-2.82-.94S466.36,374.5,466.69,375.21Zm-29.14,4.51c-.33-.71-1.59-1.14-2.83-1s-2,.93-1.63,1.64,1.6,1.13,2.83.94S437.88,380.43,437.55,379.72Zm-2.83-3.57c1.24.19,2.5-.23,2.83-.94s-.4-1.44-1.63-1.63-2.5.23-2.83.94S433.49,376,434.72,376.15Zm34.8,2.62c-1.23-.19-2.5.24-2.83,1s.4,1.44,1.64,1.63,2.49-.23,2.82-.94S470.75,379,469.52,378.77Z" style="fill:#BA68C8"></path><path d="M466.05,383.62a3.6,3.6,0,0,0-3.26,0,1,1,0,0,0,0,1.89,3.6,3.6,0,0,0,3.26,0A1,1,0,0,0,466.05,383.62Zm-24.59-14.2a3.62,3.62,0,0,0-3.27,0,1,1,0,0,0,0,1.88,3.62,3.62,0,0,0,3.27,0A1,1,0,0,0,441.46,369.42ZM456,385.88c-1.23.19-2,.92-1.63,1.63s1.59,1.13,2.82.94,2-.92,1.63-1.63S457.26,385.68,456,385.88Zm-9-19.4c-1.23.19-2,.92-1.63,1.63s1.6,1.13,2.83.94,2-.92,1.63-1.63S448.26,366.28,447,366.48Zm1.2,19.4c-1.23-.2-2.5.23-2.83.94s.4,1.44,1.63,1.63,2.5-.23,2.83-.94S449.45,386.07,448.22,385.88Zm9-19.4c-1.23-.2-2.49.23-2.82.94s.4,1.44,1.63,1.63,2.49-.23,2.82-.94S458.45,366.67,457.22,366.48Zm-15.76,17.14a3.62,3.62,0,0,0-3.27,0,1,1,0,0,0,0,1.89,3.62,3.62,0,0,0,3.27,0A1,1,0,0,0,441.46,383.62Zm21.33-12.32a3.6,3.6,0,0,0,3.26,0,1,1,0,0,0,0-1.88,3.6,3.6,0,0,0-3.26,0A1,1,0,0,0,462.79,371.3Zm3.9,3.91c.33.71,1.6,1.13,2.83.94s2-.92,1.63-1.63-1.59-1.13-2.82-.94S466.36,374.5,466.69,375.21Zm-29.14,4.51c-.33-.71-1.59-1.14-2.83-1s-2,.93-1.63,1.64,1.6,1.13,2.83.94S437.88,380.43,437.55,379.72Zm-2.83-3.57c1.24.19,2.5-.23,2.83-.94s-.4-1.44-1.63-1.63-2.5.23-2.83.94S433.49,376,434.72,376.15Zm34.8,2.62c-1.23-.19-2.5.24-2.83,1s.4,1.44,1.64,1.63,2.49-.23,2.82-.94S470.75,379,469.52,378.77Z" style="fill:#fff;opacity:0.35000000000000003"></path><path d="M470.69,380.92a2.78,2.78,0,0,0-1.17-.44,3.44,3.44,0,0,0-2.36.44,2.92,2.92,0,0,0,1.17.43A3.45,3.45,0,0,0,470.69,380.92Z" style="fill:#BA68C8"></path><path d="M466.05,385.51l.14-.09-.14-.09a3.6,3.6,0,0,0-3.26,0l-.14.09.14.09A3.6,3.6,0,0,0,466.05,385.51Z" style="fill:#BA68C8"></path><path d="M454.86,368.62a2.78,2.78,0,0,0,1.17.43,3.45,3.45,0,0,0,2.36-.43,2.65,2.65,0,0,0-1.17-.43A3.4,3.4,0,0,0,454.86,368.62Z" style="fill:#BA68C8"></path><path d="M468.33,375.29a2.78,2.78,0,0,0-1.17.43,3.44,3.44,0,0,0,2.36.43,2.78,2.78,0,0,0,1.17-.43A3.4,3.4,0,0,0,468.33,375.29Z" style="fill:#BA68C8"></path><path d="M457.22,388.45a2.78,2.78,0,0,0,1.17-.43,3.4,3.4,0,0,0-2.36-.43,2.65,2.65,0,0,0-1.17.43A3.45,3.45,0,0,0,457.22,388.45Z" style="fill:#BA68C8"></path><path d="M462.79,371.13l-.14.09.14.08a3.6,3.6,0,0,0,3.26,0l.14-.08-.14-.09A3.6,3.6,0,0,0,462.79,371.13Z" style="fill:#BA68C8"></path><path d="M435.92,381.35a2.92,2.92,0,0,0,1.17-.43,3.41,3.41,0,0,0-2.37-.43,2.75,2.75,0,0,0-1.17.43A3.47,3.47,0,0,0,435.92,381.35Z" style="fill:#BA68C8"></path><path d="M433.55,375.72a2.89,2.89,0,0,0,1.17.43,3.47,3.47,0,0,0,2.37-.43,2.78,2.78,0,0,0-1.17-.43A3.41,3.41,0,0,0,433.55,375.72Z" style="fill:#BA68C8"></path><path d="M441.46,385.51l.13-.09-.13-.09a3.62,3.62,0,0,0-3.27,0l-.13.09.13.09A3.62,3.62,0,0,0,441.46,385.51Z" style="fill:#BA68C8"></path><path d="M447,368.19a2.75,2.75,0,0,0-1.17.43,3.47,3.47,0,0,0,2.37.43,2.89,2.89,0,0,0,1.17-.43A3.41,3.41,0,0,0,447,368.19Z" style="fill:#BA68C8"></path><path d="M441.46,371.13a3.62,3.62,0,0,0-3.27,0l-.13.09a.57.57,0,0,0,.13.08,3.62,3.62,0,0,0,3.27,0l.13-.08Z" style="fill:#BA68C8"></path><path d="M449.39,388a2.75,2.75,0,0,0-1.17-.43,3.41,3.41,0,0,0-2.37.43,2.89,2.89,0,0,0,1.17.43A3.47,3.47,0,0,0,449.39,388Z" style="fill:#BA68C8"></path></g></g><g id="freepik--Table--inject-7"><g id="freepik--table--inject-7"><polygon points="152.23 324.55 156.02 322.35 154.77 388.51 152.23 389.98 152.23 324.55" style="fill:#37474f"></polygon><polygon points="152.23 324.55 148.43 322.35 149.69 388.51 152.23 389.98 152.23 324.55" style="fill:#263238"></polygon><polygon points="253.93 265.83 257.73 263.63 256.48 329.79 253.93 331.25 253.93 265.83" style="fill:#37474f"></polygon><polygon points="253.93 265.83 250.14 263.63 251.39 329.79 253.93 331.25 253.93 265.83" style="fill:#263238"></polygon><polygon points="101.38 295.19 105.17 292.99 103.92 359.15 101.38 360.62 101.38 295.19" style="fill:#37474f"></polygon><polygon points="101.38 295.19 97.59 292.99 98.84 359.15 101.38 360.62 101.38 295.19" style="fill:#263238"></polygon><polygon points="203.09 236.47 206.88 234.27 205.63 300.43 203.09 301.89 203.09 236.47" style="fill:#37474f"></polygon><polygon points="203.09 236.47 199.29 234.27 200.54 300.43 203.09 301.89 203.09 236.47" style="fill:#263238"></polygon><g id="freepik--Desk--inject-7"><path d="M70,287.65v-3.27a1.85,1.85,0,0,1,.85-1.45L208.37,203.5a1.84,1.84,0,0,1,1.68,0l72.5,41.95a1.84,1.84,0,0,1,.85,1.45v3.27a1.86,1.86,0,0,1-.85,1.46L145,331.06a1.84,1.84,0,0,1-1.68,0l-72.5-41.95A1.86,1.86,0,0,1,70,287.65Z" style="fill:#BA68C8"></path><path d="M70,287.65v-3.27a1.85,1.85,0,0,1,.85-1.45L208.37,203.5a1.84,1.84,0,0,1,1.68,0l72.5,41.95a1.84,1.84,0,0,1,.85,1.45v3.27a1.86,1.86,0,0,1-.85,1.46L145,331.06a1.84,1.84,0,0,1-1.68,0l-72.5-41.95A1.86,1.86,0,0,1,70,287.65Z" style="fill:#fff;opacity:0.1"></path><path d="M144.17,326.05v5.21a1.77,1.77,0,0,1-.84-.2l-72.5-41.95a1.85,1.85,0,0,1-.85-1.45v-3.27a1.87,1.87,0,0,1,.69-1.35c-.3.26-.25.62.16.86l72.5,42A1.77,1.77,0,0,0,144.17,326.05Z" style="fill:#BA68C8"></path><path d="M70.83,283.9l72.5,42a1.91,1.91,0,0,0,1.68,0l137.54-79.43c.47-.27.47-.71,0-1l-72.5-41.95a1.84,1.84,0,0,0-1.68,0L70.83,282.93C70.36,283.2,70.36,283.63,70.83,283.9Z" style="fill:#fafafa"></path><path d="M209.21,204.3a.84.84,0,0,1,.34.06l71.85,41.57L144.51,325a.86.86,0,0,1-.68,0L72,283.41l136.89-79.05a.84.84,0,0,1,.34-.06m0-1a1.66,1.66,0,0,0-.84.2L70.83,282.93c-.47.27-.47.7,0,1l72.5,42a1.86,1.86,0,0,0,1.68,0l137.54-79.43c.47-.27.47-.71,0-1l-72.5-41.95a1.66,1.66,0,0,0-.84-.2Z" style="fill:#ebebeb"></path></g></g></g><g id="freepik--sewing-machine--inject-7"><g id="freepik--sewing-machine--inject-7"><path id="freepik--shadow--inject-7" d="M93.79,283.51l31,17.94a.83.83,0,0,0,.72,0l80.93-46.74c.2-.12.2-.31,0-.42l-31-17.93a.77.77,0,0,0-.72,0L93.79,283.1A.22.22,0,0,0,93.79,283.51Z" style="opacity:0.30000000000000004"></path><polygon points="103.29 265.11 101.07 267.85 124.21 281.21 124.21 277.19 103.29 265.11" style="fill:#BA68C8"></polygon><polygon points="103.29 265.11 101.07 267.85 124.21 281.21 124.21 277.19 103.29 265.11" style="fill:#fff;opacity:0.7000000000000001"></polygon><path d="M174.88,246.05q-.16.38-.36.72a8.89,8.89,0,0,1-2.12,2.45,9.66,9.66,0,0,1-1.16.82l-47,27.15-20.93-12.08,47.82-27.61a8.9,8.9,0,0,0,3.28-3.28Z" style="fill:#BA68C8"></path><path d="M174.88,246.05q-.16.38-.36.72a8.89,8.89,0,0,1-2.12,2.45,9.66,9.66,0,0,1-1.16.82l-47,27.15-20.93-12.08,47.82-27.61a8.9,8.9,0,0,0,3.28-3.28Z" style="fill:#fff;opacity:0.9"></path><path d="M124.22,281.22v15.54a3.51,3.51,0,0,1-1.73-.44l-.09,0-2.9-1.68h0l-17-9.8a2.94,2.94,0,0,1-1.46-2.54V267.85Z" style="fill:#BA68C8"></path><path d="M124.22,281.22v15.54a3.51,3.51,0,0,1-1.73-.44l-.09,0-2.9-1.68h0l-17-9.8a2.94,2.94,0,0,1-1.46-2.54V267.85Z" style="fill:#fff;opacity:0.6000000000000001"></path><polygon points="120.72 226.86 190.46 186.6 173.02 176.54 155.59 186.6 155.59 194.65 131.18 208.74 124.22 204.72 103.29 216.8 120.72 226.86" style="fill:#BA68C8"></polygon><polygon points="120.72 226.86 190.46 186.6 173.02 176.54 155.59 186.6 155.59 194.65 131.18 208.74 124.22 204.72 103.29 216.8 120.72 226.86" style="fill:#fff;opacity:0.9"></polygon><polygon points="103.29 216.8 101.07 219.54 120.72 230.89 120.72 226.86 103.29 216.8" style="fill:#BA68C8"></polygon><polygon points="103.29 216.8 101.07 219.54 120.72 230.89 120.72 226.86 103.29 216.8" style="fill:#fff;opacity:0.7000000000000001"></polygon><polygon points="190.46 186.6 192.68 189.34 120.72 230.89 120.72 226.86 190.46 186.6" style="fill:#BA68C8"></polygon><polygon points="190.46 186.6 192.68 189.34 120.72 230.89 120.72 226.86 190.46 186.6" style="fill:#fff;opacity:0.8"></polygon><polygon points="120.72 230.89 120.72 251.02 115.49 260.08 105.03 254.04 101.07 239.67 101.07 219.54 120.72 230.89" style="fill:#BA68C8"></polygon><polygon points="120.72 230.89 120.72 251.02 115.49 260.08 105.03 254.04 101.07 239.67 101.07 219.54 120.72 230.89" style="fill:#fff;opacity:0.6000000000000001"></polygon><polygon points="138.16 240.95 132.93 250.01 129.44 252.02 129.1 251.83 128.16 252.37 127.83 252.96 115.49 260.08 120.72 251.02 138.16 240.95" style="fill:#BA68C8"></polygon><polygon points="138.16 240.95 132.93 250.01 129.44 252.02 129.1 251.83 128.16 252.37 127.83 252.96 115.49 260.08 120.72 251.02 138.16 240.95" style="fill:#fff;opacity:0.5"></polygon><path d="M199.18,233.91v18.44a2.92,2.92,0,0,1-1.47,2.54l-68,39.24L126,296.28l0,0a3.62,3.62,0,0,1-1.77.46V281.22l34.29-19.81L172,253.65a10.66,10.66,0,0,0,5.23-10.84l-1.11-7.59-.65-4.42L173,214.66l-1.19.69-16.24,9.45-13.94,8.1-3.5,8L120.72,251V230.89l72-41.55Z" style="fill:#BA68C8"></path><path d="M199.18,233.91v18.44a2.92,2.92,0,0,1-1.47,2.54l-68,39.24L126,296.28l0,0a3.62,3.62,0,0,1-1.77.46V281.22l34.29-19.81L172,253.65a10.66,10.66,0,0,0,5.23-10.84l-1.11-7.59-.65-4.42L173,214.66l-1.19.69-16.24,9.45-13.94,8.1-3.5,8L120.72,251V230.89l72-41.55Z" style="fill:#fff;opacity:0.7000000000000001"></path><path d="M175.76,243.32l-.21,0h0c0-.07,0-.13,0-.19a10.1,10.1,0,0,0,0-1.46h.22a9.2,9.2,0,0,1,0,1.48A1.23,1.23,0,0,1,175.76,243.32Z" style="fill:#263238"></path><path d="M177.18,242.81l-1.11-7.59-.65-4.42L173,214.66l-1.19.69L175.62,241a9.2,9.2,0,0,1,0,2.82,8.87,8.87,0,0,1-.71,2.26q-.16.38-.36.72a8.72,8.72,0,0,1-2.12,2.45,7.84,7.84,0,0,1-1.16.82l-47,27.15v4l34.29-19.81L172,253.65a10.66,10.66,0,0,0,5.23-10.84Z" style="fill:#BA68C8"></path><path d="M177.18,242.81l-1.11-7.59-.65-4.42L173,214.66l-1.19.69L175.62,241a9.2,9.2,0,0,1,0,2.82,8.87,8.87,0,0,1-.71,2.26q-.16.38-.36.72a8.72,8.72,0,0,1-2.12,2.45,7.84,7.84,0,0,1-1.16.82l-47,27.15v4l34.29-19.81L172,253.65a10.66,10.66,0,0,0,5.23-10.84Z" style="fill:#fff;opacity:0.8"></path><path d="M175.66,243.31c0,.15,0,.32-.07.48a8.87,8.87,0,0,1-.71,2.26l-20.49-11.83a9,9,0,0,0,1.2-4.48V224.8l16.24-9.45L175.62,241A9.17,9.17,0,0,1,175.66,243.31Z" style="fill:#BA68C8"></path><path d="M175.66,243.31c0,.15,0,.32-.07.48a8.87,8.87,0,0,1-.71,2.26l-20.49-11.83a9,9,0,0,0,1.2-4.48V224.8l16.24-9.45L175.62,241A9.17,9.17,0,0,1,175.66,243.31Z" style="fill:#fff;opacity:0.5"></path><polygon points="132.93 219.82 124.22 214.79 122.6 215.72 131.31 220.75 133.06 223.77 133.06 243.9 127.83 252.96 128.16 252.37 129.1 251.83 129.44 252.03 134.67 242.97 134.67 222.84 132.93 219.82" style="fill:#BA68C8"></polygon><polygon points="124.22 215.57 123.28 216.11 131.31 220.75 133.06 223.77 133.06 243.9 128.16 252.37 129.1 251.83 134 243.36 134 223.23 132.25 220.21 124.22 215.57" style="fill:#263238"></polygon><path d="M181.65,229.86l10.27-5.93a.54.54,0,0,1,.87.42l.45,3.07a1.36,1.36,0,0,1-.62,1.28l-10.25,5.92a.54.54,0,0,1-.87-.42l-.47-3.06A1.37,1.37,0,0,1,181.65,229.86Z" style="fill:#455a64"></path><path d="M182.31,231l.22,1.93,3.2,1.85a1.15,1.15,0,0,0,1,0l8.37-4.83a.33.33,0,0,0,.2-.29v-1.79a.33.33,0,0,0-.2-.28l-3.43-2Z" style="fill:#fafafa"></path><path d="M186.72,233l8.37-4.83c.13-.08.2-.17.2-.27,0,.18,0,1.67,0,1.77a.37.37,0,0,1-.21.29l-8.37,4.83a1,1,0,0,1-.48.11v-1.79A1,1,0,0,0,186.72,233Z" style="fill:#e0e0e0"></path><path d="M185.73,233l-3.42-2,9.35-5.39,3.43,2a.3.3,0,0,1,0,.57L186.72,233A1.15,1.15,0,0,1,185.73,233Z" style="fill:#f0f0f0"></path><path d="M183.66,222.52a3.45,3.45,0,0,0,3.49-.35,10.89,10.89,0,0,0,4.94-8.54,3.48,3.48,0,0,0-1.45-3.2l-3.15-1.82A3.48,3.48,0,0,0,184,209a10.91,10.91,0,0,0-4.93,8.55,3.46,3.46,0,0,0,1.44,3.19Z" style="fill:#263238"></path><path d="M192.09,213.63a3,3,0,0,0-4.94-2.85,10.91,10.91,0,0,0-4.93,8.55,3,3,0,0,0,4.93,2.84A10.89,10.89,0,0,0,192.09,213.63Z" style="fill:#455a64"></path><path d="M131.87,213.94a.73.73,0,0,0-.42.59.71.71,0,0,0,.42.58,2.18,2.18,0,0,0,2,0,.71.71,0,0,0,.42-.58.73.73,0,0,0-.42-.59A2.25,2.25,0,0,0,131.87,213.94Z" style="fill:#455a64"></path><path d="M133.57,210.49a.34.34,0,0,0-.2-.28,1.06,1.06,0,0,0-1,0,.32.32,0,0,0-.2.28v3.95a.33.33,0,0,0,.2.28,1.12,1.12,0,0,0,1,0,.35.35,0,0,0,.2-.28Z" style="fill:#263238"></path><path d="M132.39,210.21a.32.32,0,0,0-.2.28.33.33,0,0,0,.2.28,1.06,1.06,0,0,0,1,0,.35.35,0,0,0,.2-.28.34.34,0,0,0-.2-.28A1.06,1.06,0,0,0,132.39,210.21Z" style="fill:#455a64"></path><path d="M182.68,184.61a.71.71,0,0,0-.42.58.73.73,0,0,0,.42.59,2.25,2.25,0,0,0,2,0,.73.73,0,0,0,.42-.59.71.71,0,0,0-.42-.58A2.25,2.25,0,0,0,182.68,184.61Z" style="fill:#455a64"></path><path d="M184.38,181.15a.35.35,0,0,0-.2-.28,1.06,1.06,0,0,0-1,0,.35.35,0,0,0-.2.28v3.95a.35.35,0,0,0,.2.28,1.06,1.06,0,0,0,1,0,.35.35,0,0,0,.2-.28Z" style="fill:#263238"></path><path d="M183.2,180.87a.35.35,0,0,0-.2.28.34.34,0,0,0,.2.28,1.06,1.06,0,0,0,1,0,.34.34,0,0,0,.2-.28.35.35,0,0,0-.2-.28A1.06,1.06,0,0,0,183.2,180.87Z" style="fill:#455a64"></path><polygon points="155.59 186.6 166.05 192.64 159.08 196.67 155.59 194.65 155.59 186.6" style="fill:#BA68C8;opacity:0.2"></polygon><polygon points="131.18 208.74 134.67 210.76 159.08 196.67 155.59 194.65 131.18 208.74" style="fill:#BA68C8;opacity:0.30000000000000004"></polygon><polygon points="152.43 281.03 152.43 265.11 151.01 261.64 140.3 255.45 113.48 270.93 112.34 274.44 112.33 290.46 112.97 290.83 112.97 274.59 114.02 271.37 140.3 256.2 150.5 262.09 151.78 265.18 151.78 281.4 152.43 281.03" style="fill:#BA68C8;opacity:0.5"></polygon><polygon points="113.75 263.02 120.47 266.9 130.93 260.86 124.21 256.99 113.75 263.02" style="fill:#f0f0f0"></polygon><polygon points="122.92 263.67 121.77 264.34 118.48 262.44 119.63 261.77 122.92 263.67" style="opacity:0.2"></polygon><polygon points="120.72 261.92 120.48 257.21 120.96 256.94 120.72 261.92" style="fill:#fff"></polygon><g id="freepik--Spool--inject-7"><path d="M159.12,196.52a.57.57,0,0,1,0,.13l-5,2.87a.24.24,0,0,1-.1-.05,6.52,6.52,0,0,1-3-5.13,2.06,2.06,0,0,1,.86-1.91l2.14-1.24a2.06,2.06,0,0,1,2.09.21A6.52,6.52,0,0,1,159.12,196.52Z" style="fill:#37474f"></path><path d="M158,197.3l-18.69,10.79a7.42,7.42,0,0,1-2.09-2.33,7.17,7.17,0,0,1-1-3.51,3.52,3.52,0,0,1,1.56-3.19h0l13.15-7.6h0c1.82-1.06,4.55.22,6.06,2.86A7.22,7.22,0,0,1,158,197.3Z" style="fill:#BA68C8"></path><path d="M158,197.3,139.3,208.09a6.55,6.55,0,0,1-1.45-1.39l4.73-3.39c.61,1.43,2.3.28,6.28-2l5.81-3.35c1.32-.77,3.76-1.56,1.34-5a7.31,7.31,0,0,1,1,1.36A7.22,7.22,0,0,1,158,197.3Z" style="opacity:0.1"></path><path d="M143.29,205.78l-3.68,2.13a7.52,7.52,0,0,1-3.09-5.68,2.06,2.06,0,0,1,3.39-2A7.59,7.59,0,0,1,143.29,205.78Z" style="fill:#BA68C8"></path><path d="M143.29,205.78l-3.68,2.13a7.52,7.52,0,0,1-3.09-5.68,2.06,2.06,0,0,1,3.39-2A7.59,7.59,0,0,1,143.29,205.78Z" style="fill:#fff;opacity:0.2"></path><path d="M142.7,206a.49.49,0,0,1,0,.12l-5,2.88a.39.39,0,0,1-.11-.06,6.52,6.52,0,0,1-3-5.13,2.07,2.07,0,0,1,.86-1.92l2.14-1.23a2.07,2.07,0,0,1,2.09.2A6.57,6.57,0,0,1,142.7,206Z" style="fill:#37474f"></path><path d="M140.56,207.24a.45.45,0,0,1,0,.12L137.71,209a.39.39,0,0,1-.11-.06,6.52,6.52,0,0,1-3-5.13,2.07,2.07,0,0,1,.86-1.92,2.1,2.1,0,0,1,2.1.21A6.55,6.55,0,0,1,140.56,207.24Z" style="fill:#455a64"></path><path d="M140.16,207.06a3.2,3.2,0,0,1,0,.56l-2,1.13a2.3,2.3,0,0,1-.51-.23A6,6,0,0,1,135,204a1.76,1.76,0,0,1,.72-1.67,1.79,1.79,0,0,1,1.8.21A5.93,5.93,0,0,1,140.16,207.06Z" style="fill:#263238"></path><path d="M146.76,202a13.09,13.09,0,0,0-4.25-2.76,5.64,5.64,0,0,0-4.92.37,6.28,6.28,0,0,1,6.39.46,14.1,14.1,0,0,1,3.76,3.11l.06,0A11.36,11.36,0,0,0,146.76,202Z" style="opacity:0.15"></path><path d="M152.66,191.41a12.47,12.47,0,0,1,.54,4A7.16,7.16,0,0,0,152.66,191.41Z" style="opacity:0.15"></path><path d="M148.45,195.88c0-.14-.11-.28-.17-.42l.14.43a10.63,10.63,0,0,1-.32,6.57A9,9,0,0,0,148.45,195.88Z" style="opacity:0.15"></path><path d="M142.65,201a13.08,13.08,0,0,1,2.73,1.87,12.69,12.69,0,0,1,1.1,1.1l.09-.05A10.46,10.46,0,0,0,142.65,201Z" style="opacity:0.15"></path><path d="M145.2,203.09a8.81,8.81,0,0,1,0,1.62l.1-.06A6.23,6.23,0,0,0,145.2,203.09Z" style="opacity:0.15"></path><path d="M142.27,197.41a14,14,0,0,1,3.15,1,15.85,15.85,0,0,1,2.15,1.25l.68.47-.64-.52A10.82,10.82,0,0,0,142.27,197.41Z" style="opacity:0.15"></path><path d="M149.92,202a10.2,10.2,0,0,0,.14-5.14l-.15-.51c-.06-.17-.12-.34-.19-.5.06.17.11.34.16.51l.13.51a11.47,11.47,0,0,1-.2,5.2Z" style="opacity:0.15"></path><path d="M153.67,198a13,13,0,0,0-4.25-2.75,5.58,5.58,0,0,0-4.91.37,6.28,6.28,0,0,1,6.39.46,13.88,13.88,0,0,1,3.76,3.11l.06,0A12.92,12.92,0,0,0,153.67,198Z" style="opacity:0.15"></path><path d="M151.46,194.9a13.08,13.08,0,0,1,2.73,1.87,15.45,15.45,0,0,1,1.67,1.76l.06,0A10.86,10.86,0,0,0,151.46,194.9Z" style="opacity:0.15"></path><path d="M150.66,198.13a11,11,0,0,1,2.08,1.71c.1.1.18.22.28.33l.08,0A8.37,8.37,0,0,0,150.66,198.13Z" style="opacity:0.15"></path></g><path d="M139.72,205.18l-3.49,2-2.62,1.52a.37.37,0,0,1-.35,0,1.13,1.13,0,0,1-.49-.85.32.32,0,0,1,.15-.31l2.61-1.51,3.51-2A6.49,6.49,0,0,1,139.72,205.18Z" style="fill:#ebebeb"></path><path d="M133.26,208.68a.35.35,0,0,0,.35,0,.33.33,0,0,0,.14-.31,1.08,1.08,0,0,0-.49-.85.31.31,0,0,0-.34,0,.34.34,0,0,0-.15.31A1.1,1.1,0,0,0,133.26,208.68Z" style="fill:#e0e0e0"></path><path d="M138.58,208.5l-1.18.69-2.73,1.57-4.07-2.35a7.13,7.13,0,0,1-.63-2.75,2.66,2.66,0,0,1,1.1-2.42l1.19-.68a2.64,2.64,0,0,1,2.64.26A8.42,8.42,0,0,1,138.58,208.5Z" style="fill:#f5f5f5"></path><path d="M137.4,209.19l-2.73,1.57-4.07-2.35a7.13,7.13,0,0,1-.63-2.75,2.28,2.28,0,0,1,3.75-2.15A8.37,8.37,0,0,1,137.4,209.19Z" style="fill:#e0e0e0"></path></g></g><g id="freepik--Thread--inject-7"><g id="freepik--spool--inject-7"><path d="M65.21,402.1c0-2.75-1.82-5.5-5.45-7.6-7.27-4.19-19.06-4.19-26.32,0-3.64,2.1-5.46,4.85-5.46,7.6v11c0,2.75,1.82,5.5,5.46,7.6,7.26,4.2,19.05,4.2,26.32,0,3.63-2.1,5.45-4.85,5.45-7.6Z" style="fill:#37474f"></path><path d="M33.44,394.5c-3.64,2.1-5.46,4.85-5.46,7.6s1.82,5.5,5.46,7.6c7.26,4.2,19.05,4.2,26.32,0,3.63-2.1,5.45-4.85,5.45-7.6s-1.82-5.5-5.45-7.6C52.49,390.31,40.7,390.31,33.44,394.5Z" style="fill:#455a64"></path><path d="M35,395.63c-3.21,1.79-4.81,4.13-4.81,6.47s1.6,4.68,4.81,6.47c6.41,3.57,16.8,3.57,23.22,0,3.2-1.79,4.81-4.13,4.81-6.47s-1.61-4.68-4.81-6.47C51.79,392.06,41.4,392.06,35,395.63Z" style="fill:#263238"></path><path d="M71.13,400.4V323.23h0v0c0-9.4-11-17-24.53-17s-24.54,7.62-24.54,17v0h0v77.22c0,9.4,11,17,24.54,17s24.53-7.62,24.53-17v-.05Z" style="fill:#BA68C8"></path><path d="M30.18,397.36V367.54c0-20.37.12-37.23,7-36.42l4.37-24.58c-11.12,1.62-19.47,8.46-19.47,16.65v0h0v77.22c0,9.4,11,17,24.54,17a34.6,34.6,0,0,0,7.46-.8C35.46,418.35,30.18,404.16,30.18,397.36Z" style="opacity:0.1"></path><path d="M31.51,311.36c-4.17,2.41-6.25,5.56-6.25,8.71s2.08,6.31,6.25,8.71c8.33,4.82,21.84,4.82,30.17,0,4.17-2.4,6.25-5.55,6.25-8.71s-2.08-6.3-6.25-8.71C53.35,306.55,39.84,306.55,31.51,311.36Z" style="fill:#BA68C8"></path><path d="M31.51,311.36c-4.17,2.41-6.25,5.56-6.25,8.71s2.08,6.31,6.25,8.71c8.33,4.82,21.84,4.82,30.17,0,4.17-2.4,6.25-5.55,6.25-8.71s-2.08-6.3-6.25-8.71C53.35,306.55,39.84,306.55,31.51,311.36Z" style="fill:#fff;opacity:0.2"></path><path d="M65.21,308.19c0-2.75-1.82-5.5-5.45-7.6-7.27-4.19-19.06-4.19-26.32,0-3.64,2.1-5.46,4.85-5.46,7.6v11c0,2.75,1.82,5.5,5.46,7.6,7.26,4.2,19.05,4.2,26.32,0,3.63-2.1,5.45-4.85,5.45-7.6Z" style="fill:#37474f"></path><path d="M33.44,300.59c-3.64,2.1-5.46,4.85-5.46,7.6s1.82,5.5,5.46,7.6c7.26,4.2,19.05,4.2,26.32,0,3.63-2.1,5.45-4.85,5.45-7.6s-1.82-5.5-5.45-7.6C52.49,296.4,40.7,296.4,33.44,300.59Z" style="fill:#455a64"></path><path d="M35,301.72c-3.21,1.79-4.81,4.13-4.81,6.47s1.6,4.68,4.81,6.47c6.41,3.57,16.8,3.57,23.22,0,3.2-1.79,4.81-4.13,4.81-6.47s-1.61-4.68-4.81-6.47C51.79,298.15,41.4,298.15,35,301.72Z" style="fill:#263238"></path><path d="M24.84,353.13a44.91,44.91,0,0,0,14.88-1.89A58.2,58.2,0,0,0,59.77,341c5.86-4.78,9.76-12.11,9.51-19.75-.13,10.55-7.1,18.71-16,23.58a62.09,62.09,0,0,1-21,7.72A43.41,43.41,0,0,1,24.84,353.13Z" style="opacity:0.15"></path><path d="M53.29,390a62.07,62.07,0,0,1-21,7.71,44.44,44.44,0,0,1-7.47.58,45.43,45.43,0,0,0,14.88-1.89,58,58,0,0,0,20.05-10.24c5.86-4.77,9.76-12.1,9.51-19.74C69.15,377,62.18,385.1,53.29,390Z" style="opacity:0.15"></path><path d="M25.26,347.3c1.23-.07,2.46-.16,3.69-.3a48.05,48.05,0,0,0,24-9.2,60,60,0,0,1-13.27,6.36,69.12,69.12,0,0,1-10.74,2.58C27.7,347,26.48,347.12,25.26,347.3Z" style="opacity:0.15"></path><path d="M43.61,361.17c1.16-.41,2.31-.85,3.45-1.33a48,48,0,0,0,20.39-15.61,59.79,59.79,0,0,1-10.93,9.85A69.35,69.35,0,0,1,47,359.6C45.85,360.16,44.72,360.65,43.61,361.17Z" style="opacity:0.15"></path><path d="M23,390.3c1,0,2,0,3,0a39.14,39.14,0,0,0,20.07-5.76,48.67,48.67,0,0,1-11.2,4.21A56.64,56.64,0,0,1,26,390.1C25,390.2,24,390.23,23,390.3Z" style="opacity:0.15"></path><path d="M43.42,401.18a70.47,70.47,0,0,1-10.73,2.59c-1.22.22-2.44.37-3.66.55,1.23-.06,2.46-.16,3.69-.29a48.07,48.07,0,0,0,24-9.21A59.55,59.55,0,0,1,43.42,401.18Z" style="opacity:0.15"></path><path d="M39.09,342.91c-5.84-3-11.48-7.33-14.09-13.51a17.14,17.14,0,0,1-1.1-4.46,13.8,13.8,0,0,0,.55,3.83C26.48,335.51,32.74,340.42,39.09,342.91Z" style="opacity:0.15"></path><path d="M26.82,362.7c5.15,9.41,15.38,17.14,25.63,20.11l2.31.56c.78.14,1.57.26,2.35.38l-2.32-.52-2.27-.67A50.39,50.39,0,0,1,26.82,362.7Z" style="opacity:0.15"></path><path d="M61.6,379l-2-.41a47.49,47.49,0,0,1-24.58-15.82c5.39,8,15.13,14.16,24.55,16Z" style="opacity:0.15"></path><path d="M67.45,407.2a55.2,55.2,0,0,1-16.51-6.76A31.91,31.91,0,0,0,67.45,407.2Z" style="opacity:0.15"></path></g><g id="freepik--Needle--inject-7"><path d="M107.34,421.47c-4-2.3-9.56-2.79-12.47-1.1a9.87,9.87,0,0,1-1.73.68s0,1.47,0,1.92c0,1.51,1.26,3.22,3.64,4.6a16.6,16.6,0,0,0,6.45,2,17.83,17.83,0,0,1,6.32,1.8L173,463.6,114,428.84a7,7,0,0,1-3.12-3.65A7.19,7.19,0,0,0,107.34,421.47ZM105,422.81c2.23,1.28,2.71,3.09,1.07,4s-4.77.67-7-.61-2.71-3.1-1.07-4S102.79,421.52,105,422.81Z" style="fill:#37474f"></path><path d="M107.34,419.58c-4-2.3-9.56-2.79-12.47-1.11s-2.07,4.91,1.9,7.21a16.6,16.6,0,0,0,6.45,2,17.83,17.83,0,0,1,6.32,1.8L173,463.6,114,427a7,7,0,0,1-3.12-3.65A7.16,7.16,0,0,0,107.34,419.58ZM105,420.91c2.23,1.29,2.71,3.1,1.07,4s-4.77.67-7-.61-2.71-3.1-1.07-4S102.79,419.63,105,420.91Z" style="fill:#455a64"></path><path d="M101.91,397.06c-6.75-8.8-17.22-13-30.78-16.15v2.43c13.09,3,22.61,7,28.9,15.16a17.24,17.24,0,0,1,3.52,13.09c-.57,4.12-2.47,7.48-4.06,8.68a1.18,1.18,0,0,0,.71,2.13,1.17,1.17,0,0,0,.71-.24c1.92-1.44,4.3-5.26,5-10.25A19.6,19.6,0,0,0,101.91,397.06Z" style="fill:#BA68C8"></path><path d="M101.55,421a1.12,1.12,0,0,1-.55-.14,1.18,1.18,0,0,1-.49-1.6,10.77,10.77,0,0,0-.88-11.38c-3.12-4.62-9-7.72-13.82-7.21a1.2,1.2,0,0,1-1.3-1.06,1.18,1.18,0,0,1,1-1.3c5.66-.6,12.4,2.87,16,8.25,3,4.46,3.38,9.37,1,13.81A1.18,1.18,0,0,1,101.55,421Z" style="fill:#BA68C8"></path><g style="opacity:0.1"><path d="M101.91,397.06c-6.75-8.8-17.22-13-30.78-16.15v2.43c13.09,3,22.61,7,28.9,15.16a17.24,17.24,0,0,1,3.52,13.09c-.57,4.12-2.47,7.48-4.06,8.68a1.18,1.18,0,0,0,.71,2.13,1.17,1.17,0,0,0,.71-.24c1.92-1.44,4.3-5.26,5-10.25A19.6,19.6,0,0,0,101.91,397.06Z"></path></g></g></g><g id="freepik--Hat--inject-7"><g id="freepik--hat--inject-7"><path d="M219.46,414c-8.8-5.08-23.19-5-32.13.15-4.51,2.6-6.76,6-6.76,9.39v3.38c0,3.35,2.12,6.68,6.51,9.21,8.8,5.08,23.19,5,32.13-.15,4.53-2.62,6.78-6,6.76-9.44,0-.56,0-2.87,0-3.47C226,419.74,223.79,416.46,219.46,414Z" style="fill:#37474f"></path><path d="M187.08,432.66c8.8,5.08,23.19,5,32.13-.15s9-13.47.25-18.54-23.19-5-32.13.15S178.27,427.58,187.08,432.66Z" style="fill:#455a64"></path><path d="M207,422.8a1.75,1.75,0,0,1-1.06,1.57,5.86,5.86,0,0,1-5.27,0,2,2,0,0,1-1.22-1.55h0V293.38l7.46.1Z" style="fill:#37474f"></path><path d="M202.84,425a4.77,4.77,0,0,1-2.13-.61,2,2,0,0,1-1.22-1.55h0V293.38l3.35,0Z" style="fill:#263238"></path><path d="M205.88,295a5.83,5.83,0,0,1-5.27,0c-1.47-.84-1.49-2.21,0-3a5.83,5.83,0,0,1,5.27,0C207.31,292.78,207.32,294.15,205.88,295Z" style="fill:#263238"></path><circle cx="203.27" cy="271.81" r="22.4" style="fill:#455a64"></circle><path d="M167.46,298.68c11.53,2.22,15.77,2.67,23.93,2.85,14,.29,25.93,0,39-4.89,16.9-6.26,20.71-10.09,26.08-16.89-4.17.86-22.23,8.6-26.44,9.18-27.24,3.8-56.18-5-83.67-3.87C146.82,291.14,155.94,296.47,167.46,298.68Z" style="fill:#BA68C8"></path><path d="M167.46,298.68c11.53,2.22,15.77,2.67,23.93,2.85,14,.29,25.93,0,39-4.89,16.9-6.26,20.71-10.09,26.08-16.89-4.17.86-22.23,8.6-26.44,9.18-27.24,3.8-56.18-5-83.67-3.87C146.82,291.14,155.94,296.47,167.46,298.68Z" style="opacity:0.30000000000000004"></path><path d="M238.84,241.23c8.55,2.71,17.45,7.83,20.93,16.56,2.93,7.38,1,17.93-4.74,23.64-10.72,10.65-27.82,13.49-42.27,13.41-14.74-.09-29.41-2.75-44.13-2.08-4.46.2-9,.7-13.34-.36-18.2-4.46-5.55-25.73,2.78-33.35C177.53,241.25,213.7,233.27,238.84,241.23Z" style="fill:#BA68C8"></path><path d="M238.84,241.23c8.55,2.71,17.45,7.83,20.93,16.56,2.93,7.38,1,17.93-4.74,23.64-10.72,10.65-27.82,13.49-42.27,13.41-14.74-.09-29.41-2.75-44.13-2.08-4.46.2-9,.7-13.34-.36-18.2-4.46-5.55-25.73,2.78-33.35C177.53,241.25,213.7,233.27,238.84,241.23Z" style="fill:#fff;opacity:0.2"></path><path d="M225.84,267c-.28-.89-.49-1.48-.82-2.35-1.07-2.55-3-7-5.39-11.93-3-6.2-10.07-8.8-22.28-5.69-11.17,2.84-15.68,6.91-16.48,13.2a71.83,71.83,0,0,0-.44,15.33h0c.36,4,3.17,7.47,8.87,9.27,10,3.16,24.32,0,32-7.07C225.24,274.16,226.63,270.33,225.84,267Z" style="fill:#BA68C8"></path><path d="M225.84,267c-.28-.89-.49-1.48-.82-2.35-1.07-2.55-3-7-5.39-11.93-3-6.2-10.07-8.8-22.28-5.69-11.17,2.84-15.68,6.91-16.48,13.2a71.83,71.83,0,0,0-.44,15.33h0c.36,4,3.17,7.47,8.87,9.27,10,3.16,24.32,0,32-7.07C225.24,274.16,226.63,270.33,225.84,267Z" style="opacity:0.1"></path><ellipse cx="199.93" cy="255.56" rx="17.67" ry="8" transform="translate(-50.36 49.07) rotate(-12.44)" style="fill:#BA68C8"></ellipse><ellipse cx="199.93" cy="255.56" rx="17.67" ry="8" transform="translate(-50.36 49.07) rotate(-12.44)" style="fill:#fff;opacity:0.01"></ellipse><ellipse cx="199.93" cy="255.56" rx="17.67" ry="8" transform="translate(-50.36 49.07) rotate(-12.44)" style="fill:#fff;opacity:0.15"></ellipse><path d="M221.34,277.72c3.9-3.56,5.29-7.39,4.5-10.76-.28-.89-.49-1.48-.82-2.35l-.57-1.33c-.85,5.21-5.89,11.72-18.93,15.36-11.27,3.14-22.27-.42-25.27-6.34.05,2.05.18,3.22.18,3.22.36,4,3.17,7.47,8.87,9.27C199.28,288,213.62,284.78,221.34,277.72Z" style="fill:#37474f"></path></g></g><g id="freepik--Character--inject-7"><g id="freepik--character--inject-7"><g id="freepik--Bottom--inject-7"><path d="M356.69,397.83c-1.45-13.63-.39-24-2.22-45.33h0c-.27-5.46-.65-11.32-1.19-16.51-1.81-17.48-4.81-23.39-5.17-26.76,0,0-1.3-27.24-3.65-65.53-1.1-18-6.72-23.31-11.37-32.75l-51.82,1.52c-5.08,23.78-5.19,75.33-4.28,99.66.46,12.41,4.57,75.89,4.78,80.39s-.76,7.41-2.91,9.75c-4.5,4.91-7.18,9.56-12.87,13.89.9,2.1,7.9,1.82,11.31.1A88.68,88.68,0,0,0,290,408c4.68-3.52,8.67-5.59,8.59-10.75,0-.64.14-2.93.1-3,0-3,8.07-46.36,8.37-56.68.26-8.87-1.31-23.87-1.31-23.87L310.57,276s4.34,22.08,8.52,37.11c3.4,12.24,9,33.13,12.9,48.2h0c3.8,17.38,8.58,29.69,9.67,38.41.31,2.08,3.8,22.51,5,27.18s11.85,4.48,12.29-3.62C359.22,417.84,357,400.4,356.69,397.83Z" style="fill:#ffa8a7"></path><path d="M310.57,276,305.39,249s-16.93-1.42-23.23-6.89c0,0,8,10.23,19.55,11.6l5.48,22.3-1.42,37.31Z" style="fill:#f28f8f"></path><path d="M253.33,420.87c-.29,0-.76,3.12.83,4.46,1.85,1.54,7.27,4.11,14.48,3.27s11.12-2.93,14-5.22,7-5.51,10.22-6.17c3-.61,6.33-1.9,7.3-2.79s.88-4.87.88-4.87Z" style="fill:#263238"></path><path d="M298.67,394.21s.55,0,.72.94c.22,1.1.43,4.29.89,6.1a30.93,30.93,0,0,1,.63,9.67c-.41,2-5.36,3.42-8.52,4.54a40.57,40.57,0,0,0-10.26,6.09c-3.4,2.64-10.54,5.27-15.23,5.3-7.16,0-11.78-1.86-13.2-4.33-1.74-3.07-.64-6.51,7.62-10.1,1.56-.68,7.06-3.74,8.93-4.85a41.23,41.23,0,0,0,5.64-3.94c.88-.75,1.73-1.53,2.53-2.36a11.23,11.23,0,0,0,2.11-2.53c.09-.21.16-.45.24-.67.37-.92.38-2.29,1.36-2.77,2.13-1.05,5.65.11,7.68.95a5,5,0,0,1,2.52,1.88c.59,1,.27,2.54.27,3.66,0,.2-.09.55.2.47s.58-.76.69-1c.23-.52.38-1.07.64-1.57a8.13,8.13,0,0,1,1-1.66,7.81,7.81,0,0,1,1.31-1.26,13.46,13.46,0,0,0,1.42-.87A3,3,0,0,0,298.67,394.21Z" style="fill:#37474f"></path><path d="M260,413c10.36.77,13.88,8.62,14.29,12.41a25.81,25.81,0,0,1-7.38,1.43c-7.16,0-12.08-1.86-13.49-4.33C251.76,419.63,252.61,415.62,260,413Z" style="fill:#fafafa"></path><path d="M275.83,414.93a.54.54,0,0,0,.32-.11.47.47,0,0,0,.08-.68c-1.43-1.71-5.88-5.67-9.65-5.31a.49.49,0,0,0-.45.53.5.5,0,0,0,.55.44c3.52-.33,7.63,3.59,8.76,4.95A.53.53,0,0,0,275.83,414.93Z" style="fill:#f0f0f0"></path><path d="M280.32,412.47a.5.5,0,0,0,.32-.11.47.47,0,0,0,.08-.68c-1.44-1.7-5.88-5.67-9.65-5.3a.49.49,0,0,0-.46.53.5.5,0,0,0,.56.43c3.52-.33,7.62,3.6,8.76,5A.48.48,0,0,0,280.32,412.47Z" style="fill:#f0f0f0"></path><path d="M284.48,409.66a.5.5,0,0,0,.32-.11.47.47,0,0,0,.08-.68c-1.43-1.71-5.9-5.67-9.65-5.3a.48.48,0,0,0-.45.53.49.49,0,0,0,.55.43c3.51-.33,7.62,3.6,8.76,5A.5.5,0,0,0,284.48,409.66Z" style="fill:#f0f0f0"></path><path d="M288.55,406.85a.54.54,0,0,0,.32-.11.47.47,0,0,0,.09-.68c-2-2.41-6.74-5.72-10.51-5.36a.49.49,0,1,0,.1,1c3.39-.33,7.87,2.85,9.61,5A.56.56,0,0,0,288.55,406.85Z" style="fill:#f0f0f0"></path><path d="M343,430.8c.44,4.84,1.32,8,3.2,10.83s5.31,3.58,8.72,2.65,7.74-3.29,8.6-7.51,1.35-7.09.43-11.57Z" style="fill:#263238"></path><path d="M356.42,395.24c1.42.06,2,6.56,3.05,13.06,1.08,7,3.35,9.8,4.3,15.51,1.09,6.52.05,9.48-2.23,13.51s-10.65,8.17-15,2.62c-3.55-4.53-3.84-9.65-3.73-16.2a139.7,139.7,0,0,0-.95-16.56c-.42-4.9-1.79-10-.58-10.55.12.72.33,1.79.45,2.49a11.63,11.63,0,0,0,.53,2.61c.16.36.48.73.6.13a3.85,3.85,0,0,0,0-1.22c-.26-1.8.68-2,1.19-2.13a63.64,63.64,0,0,1,6.54-1.08c1.08-.1,4.81-.37,5.31.21a3.8,3.8,0,0,1,.53,1.88c.15,1,.41,1.69.43,1.38.05-.71-.15-2.54-.18-3s-.12-1-.14-1.43S356.47,395.65,356.42,395.24Z" style="fill:#37474f"></path><path d="M364.28,427.59a15.86,15.86,0,0,1-2.35,10c-2.28,4-11.33,8.2-15.68,2.65-2.17-2.76-2.82-6.08-3.21-9.48C345.41,426.35,360.21,424,364.28,427.59Z" style="fill:#fafafa"></path><path d="M345.91,423.58a.61.61,0,0,0,.18-.05c.05,0,6.52-2.81,12.94-1.59a.53.53,0,0,0,.62-.39.5.5,0,0,0-.41-.59c-6.79-1.3-13.39,1.56-13.64,1.68a.49.49,0,0,0-.22.67A.51.51,0,0,0,345.91,423.58Z" style="fill:#f0f0f0"></path><path d="M358.57,417.07a.52.52,0,0,0,.43-.35.49.49,0,0,0-.35-.63c-6.4-1.87-13.35,1.42-13.61,1.57a.47.47,0,0,0-.2.68.54.54,0,0,0,.71.19c.06,0,6.83-3.23,12.79-1.48A.6.6,0,0,0,358.57,417.07Z" style="fill:#f0f0f0"></path><path d="M358.21,412.47a.52.52,0,0,0,.43-.34.49.49,0,0,0-.34-.63c-7.05-2.19-13.63,1.38-13.88,1.53a.49.49,0,0,0-.15.7.53.53,0,0,0,.72.14c.06,0,6.42-3.45,13-1.42A.49.49,0,0,0,358.21,412.47Z" style="fill:#f0f0f0"></path><path d="M357.72,408a.51.51,0,0,0,.43-.33.49.49,0,0,0-.32-.64c-6.61-2.15-13.71,1.52-14,1.68a.48.48,0,0,0-.17.69.54.54,0,0,0,.72.16c.06,0,6.94-3.58,13.08-1.58A.44.44,0,0,0,357.72,408Z" style="fill:#ebebeb"></path><path d="M341.7,209.33c5.94,12.53,7.75,21.79,7.82,53.69.06,29.18-.42,39.41-.18,43.25s2.79,10.64,5.41,29.52.87,41.5.87,41.5-1.32,3.09-8.87,4c-6.95.8-10.48-1.6-10.48-1.6S323.94,342,321,330.68s-10.15-47.55-10.15-47.55l-3.65,30.55s2.45,10.39.82,27.05-4.87,33.78-4.87,33.78a32.74,32.74,0,0,1-10.66,2c-6,.09-12.22-2.68-12.22-2.68s-4.84-48.53-5.41-67.35-1.4-67.78,4-95.82Z" style="fill:#37474f"></path><path d="M310.8,283.58l-7.31-36s-13.17-.51-20.69-7.61c3.19,7.69,14.14,12.81,18.91,13.76l6.45,29.53-1,30.88Z" style="fill:#263238"></path><path d="M347.72,315.72c-2.48-8.4-4.11-20.35-3.43-43.9.85-29.93-.39-41.42-8.27-56.29l-1,.48c4.62,8.72,7.1,17.48,7.94,29.1-2.26.61-5.44,1.11-7.73-.18-2.87-1.61-2.41-5.44-3.78-11.58-3.28-14.73-6.64-19.43-6.78-19.62l-.9.6s3.39,4.78,6.61,19.24c1.46,6.53,1.11,10.47,4.3,12.27a8.24,8.24,0,0,0,4.36,1,22.11,22.11,0,0,0,4.1-.72c.77,6.69.23,14.72.05,25.89-.39,23.68.95,35.52,3.45,44,.47,1.56.92,3.11,1.36,4.71,2.7,9.91,6.21,36.39,5.54,58.95a7.62,7.62,0,0,0,1.11-.82c.56-22.51-2.91-48.55-5.59-58.4C348.65,318.84,348.19,317.29,347.72,315.72Z" style="fill:#263238"></path><path d="M302.42,319.51c-.17-2.2-.34-4.47-.44-6.9-.25-5.94,2.35-24.35,4.65-39.15l1.11,0c-2.29,14.8-4.91,33.27-4.67,39.08.1,2.41.27,4.67.44,6.86a124.71,124.71,0,0,1-.68,29c-1.29,10.32-2.28,20.25-2.91,27l-1.12.26c.63-6.81,1.63-16.91,2.95-27.43A124,124,0,0,0,302.42,319.51Z" style="fill:#263238"></path></g><g id="freepik--Top--inject-7"><path d="M297,149c-10.72.25-15,1.92-21.26,13.68-4.06,7.6-14.59,26.21-14.59,26.21s-11.5-2.73-22.63-5.76l-7-2.55-.08,14.71c3.24,1.27,18.5,8.57,25.85,11.39,12.74,4.89,15.84,1.16,20.4-5.95,7.48-11.65,18.54-30,18.54-30Z" style="fill:#ffa8a7"></path><path d="M297.28,147.46c-9.35,1.11-12.89.5-19.63,11.48-3.26,5.32-12.73,21.84-12.73,21.84s.73,4.51,7.5,8.4c6.44,3.69,11.12,3.85,11.12,3.85L297,171Z" style="fill:#37474f"></path><path d="M238.49,183.11c-3.3-1.16-3.21-2.34-5.34-4.17-1-.85-4-3.34-5.79-3.76-1.4-.33-2.31,3.56-3.57,3.46-3.38-.25-5.74-.39-8.28-.35-2.78,0-5.94.2-6.48.91s.56,1.37.87,3.31,3.7,9,4.77,9.79,3.1,2.34,5.24,1.7,3,.48,5.3.74a31.36,31.36,0,0,0,4.08.09,11.18,11.18,0,0,1,4.18,1.27Z" style="fill:#ffa8a7"></path><path d="M211.91,178.22c-4.31,1-7.39,1.62-8.19,2.42a46.12,46.12,0,0,0-3.32,3.6c-.27.49.63,1.71,2.12,1.35a8,8,0,0,0,3-1.75l6.18-1.22-1.19,1,3.11.4S213.27,178.37,211.91,178.22Z" style="fill:#ffa8a7"></path><path d="M205.28,181.47a2,2,0,0,1,.22,2.37s-.55.47-1.11.87A3.33,3.33,0,0,0,205.28,181.47Z" style="fill:#f28f8f"></path><path d="M217.2,181.34c2.06,2.41,3.8,7.3,1,10.82a12.58,12.58,0,0,0,.66-5.29A19.65,19.65,0,0,0,217.2,181.34Z" style="fill:#f28f8f"></path><path d="M223.09,181.93a13.15,13.15,0,0,0,2.8,8.34c-3.62-2.68-3.92-6.69-3.68-9.34Z" style="fill:#f28f8f"></path><path d="M230.12,180.39a2.94,2.94,0,0,1-3.31.43,7.28,7.28,0,0,1-1.67-1.23,6.62,6.62,0,0,0-1.95-1.21,11.46,11.46,0,0,1-2.76-1.25,4,4,0,0,1-2.1-3.4,3.13,3.13,0,0,1,.33-1.55c.12-.25.55-.26,2.15.73a14.18,14.18,0,0,0,3.81,1.42,11.62,11.62,0,0,1,5.07,2.24C230.88,177.58,231.39,179.22,230.12,180.39Z" style="fill:#ffa8a7"></path><path d="M223.29,178.41a3.54,3.54,0,0,0,.65-1.55,2,2,0,0,1-.15,1.78C223.62,178.55,223.45,178.48,223.29,178.41Z" style="fill:#f28f8f"></path><path d="M219.9,194.34a7,7,0,0,0,.84-.38.81.81,0,0,0,.5-.75,1.61,1.61,0,0,0-.36-.87,1.4,1.4,0,0,0-.81-.49l0,.19.54-.25.27-.13a.51.51,0,0,0,.23-.28,1.53,1.53,0,0,0-.11-1.24,2.19,2.19,0,0,0-.93-.83,1.62,1.62,0,0,0-1.23-.21l.15.14a1.6,1.6,0,0,0-.26-1.3,2.69,2.69,0,0,0-1-.86,4.69,4.69,0,0,0-2.49-.47,5,5,0,0,1,2.41.6,2.53,2.53,0,0,1,.88.84,1.41,1.41,0,0,1,.23,1.11l-.06.21.22-.07a1.46,1.46,0,0,1,1,.23,2.08,2.08,0,0,1,.83.72,1.29,1.29,0,0,1,.11,1.05.29.29,0,0,1-.12.17l-.26.13-.53.25-.29.14.31,0a1.2,1.2,0,0,1,.72.41,1.41,1.41,0,0,1,.36.77.73.73,0,0,1-.41.69A7.67,7.67,0,0,1,219.9,194.34Z" style="fill:#f28f8f"></path><path id="freepik--Chest--inject-7" d="M347.57,225.65c-.34-7.9-5.59-16.12-5.89-21.09-.8-13.41,2.19-12.26,3.13-25.2s-5.43-24.84-8.2-27.54c0,0-3.28-1.07-6.06-1.78-2.19-.56-3.89-.95-6.77-1.87-7.18-2.3-15.29-1.14-18.1-1.06a29.79,29.79,0,0,0-5.73,0c-2,.31-6.7.78-6.71.78a53.25,53.25,0,0,0-14,16.46c-4.74,8.55-7.21,18.2,2,26.59a113.59,113.59,0,0,1-.75,15.17s-1.82,9-3.41,16.7C290.14,238.8,332.63,238.72,347.57,225.65Z" style="fill:#fafafa"></path><path d="M346.88,96a9.13,9.13,0,0,0-.53-.84c-2.25-3.1-6.53-4-9.27-6.64-.52-.5-1-1.07-1.55-1.52-2-1.61-4.87-1.46-7.41-1.06-3.25.51-8.42,1-10.84,3.38a8.6,8.6,0,0,0-2.44,6.21,3.36,3.36,0,0,0,.17,1.09,3.68,3.68,0,0,0,.62,1c1.24,1.6,4.19,3.09,4.38,5.29a4,4,0,0,1-.3,1.63c-.88,2.63-2,5.29-2.12,8.1a38.68,38.68,0,0,0,1.08,8.57c.53,2.74.09,5.16.39,7.91a12.24,12.24,0,0,0,1.24,4.57,5.65,5.65,0,0,0,3.58,2.91c4,.86,7.26-3.73,11.3-3.74,1.35,0,2.66.51,4,.46,2.13-.08,3.95-1.55,5.41-3.12a6.52,6.52,0,0,0,1.89-3.23c.44-2.69-2.25-5.33-1.3-8,.39-1.09,1.53-1.66,2-2.76.26-.57.91-3.1.1-3.53a3.45,3.45,0,0,1,1.23,4.75,4.15,4.15,0,0,0,2.09-3.58,6.62,6.62,0,0,0-1.41-4,7.37,7.37,0,0,1-1.74-2.93,5.35,5.35,0,0,1,.12-1.78C348.1,102.05,348.34,98.64,346.88,96Z" style="fill:#263238"></path><path d="M325,90c5.46-.84,10.88,6.85,8.54,13.69S316.43,90.86,325,90Z" style="fill:#BA68C8"></path><g id="freepik--Head--inject-7"><path d="M284.54,98.62c.71-6.3,7.8-6.78,9.68-6.62a8.92,8.92,0,0,0,7.18-3.27A9,9,0,0,1,310,85.88c5.07,1.16,4,3.31,8.28,4.62,3.83,1.17,6.62-.17,10.18,3a9.86,9.86,0,0,1,2.82,8.18c2.64,1.52,6.4,11,1.39,21.6-2.57,5.47-5.79,8.08-9.75,12.67l-4,.13c-1.4-3.33-4.75-2.6-7.87-3.28-2-.82-3.19-3-5.19-3.83s-4.36-.1-6.54-.42c-1.69-.24-3.42-1.19-5.15-.7-3.94,1.74-10-1.55-9.73-6.16.11-1.4.84-2.77.53-4.14-.41-1.79-2.36-2.73-3.43-4.22a4.78,4.78,0,0,1,.12-5.76C284.47,104.43,284.13,102.2,284.54,98.62Z" style="fill:#263238"></path><path d="M322.6,144.32c0-2.08.54-12.5.54-12.5.07.78,4.44,3.38,7.9-.57s3.15-8.62,1.17-11.38a4.94,4.94,0,0,0-5.54-1.82,5.79,5.79,0,0,0-2.83,2.14,2.2,2.2,0,0,0-.51,1.64c0,.55.33,1.35-.2,1.76a1.06,1.06,0,0,1-.78.16,3.19,3.19,0,0,1-2.47-2.54,11,11,0,0,1,0-3.76,7.16,7.16,0,0,0-.33-3.71,6.21,6.21,0,0,0-3.75-3,39.17,39.17,0,0,1-4.64-1.62,11.35,11.35,0,0,1-2.18-1.52,18.08,18.08,0,0,1-3.35-3.85,7.91,7.91,0,0,0,2,5,14.65,14.65,0,0,1-6-.35c-3.18-1.11-5.24-4.34-5.87-7.66a20.24,20.24,0,0,0-3.2,3.21,9.27,9.27,0,0,0-2.13,4,23.07,23.07,0,0,0,0,7c.1,1-1.17,3.16-1.12,7.69.14,11.22,3,14.6,6.32,16.9,1.95,1.36,4.15,2.08,8.3,1.82l-.06,2.18c0,1-.1,2.85-1.79,3.15-1.28.24-3.71.65-3.71.65s-8.5,11,6.88,12.09c16.2,1.12,23.82-9.77,23.82-9.77s-.89-.22-3.59-.94S322.58,146.4,322.6,144.32Z" style="fill:#ffa8a7"></path><path d="M309.24,126.9l-6.77,2a3.46,3.46,0,0,0,4.32,2.5A3.7,3.7,0,0,0,309.24,126.9Z" style="fill:#b16668"></path><path d="M308.78,128.44a3.91,3.91,0,0,0-3.95,2.95,3.35,3.35,0,0,0,2,0,3.66,3.66,0,0,0,2.51-2.89A4.34,4.34,0,0,0,308.78,128.44Z" style="fill:#f28f8f"></path><path d="M292.4,111.41l4.19-2.11a2.25,2.25,0,0,0-3.08-1.09A2.45,2.45,0,0,0,292.4,111.41Z" style="fill:#263238"></path><path d="M313.36,112.42l-4-2.55a2.28,2.28,0,0,1,3.22-.79A2.5,2.5,0,0,1,313.36,112.42Z" style="fill:#263238"></path><path d="M297.18,115.78a2,2,0,0,1-1.85,2.1,1.89,1.89,0,0,1-2.06-1.77,2,2,0,0,1,1.84-2.1A1.89,1.89,0,0,1,297.18,115.78Z" style="fill:#263238"></path><path d="M311.07,116.17a2,2,0,0,1-1.84,2.1,1.9,1.9,0,0,1-2.07-1.77,2,2,0,0,1,1.85-2.1A1.89,1.89,0,0,1,311.07,116.17Z" style="fill:#263238"></path><polygon points="296.26 122.17 302.39 125.24 303.88 113.36 296.26 122.17" style="fill:#f28f8f"></polygon><path d="M303.94,141.37c7.45-.6,14.62-2.51,16.53-7a7.63,7.63,0,0,1-4.36,6.26,26.87,26.87,0,0,1-12.23,2.94Z" style="fill:#f28f8f"></path></g><path d="M257,214.24l-57.08-82s6.3.27,23.33,18.31,51.56,64.87,51.56,64.87l-4.4,3.63Z" style="fill:#263238"></path><path d="M172.35,160.12s16.07,2.8,26.09,7.69S267,198.07,267,198.07l12.8,9.28-2.77,4L255.76,210s-55.42-30.58-67-37.24S169.35,159.54,172.35,160.12Z" style="fill:#455a64"></path><path d="M331,187.57c-12.42-2.23-22.46,5.16-32.48,7-12.45,2.27-31.46,3.51-31.46,3.51l12.8,9.28s17.19.74,24.44,1,15.78,5.68,22.53,8.7S348.52,221,352,208.45,343.4,189.79,331,187.57Zm12.6,18.59c-1.43,4.83-7.49,7.3-13.55,5.51s-9.81-7.14-8.39-12,7.49-7.3,13.55-5.51S345,201.34,343.58,206.16Z" style="fill:#BA68C8"></path><path d="M259.85,200a3.5,3.5,0,1,1-4.35,2.37A3.52,3.52,0,0,1,259.85,200Z" style="fill:#263238"></path><path d="M254.77,215s7.93,11.76,9.86,15.83,2.16,10.7,6.95,20.89,26.28,24.79,42,21.29S327.7,259.9,323,254.09s-11-6.5-23.68-15.67C280.91,225.08,273,216.88,273,216.88l-16.51-3.37ZM282.85,234a119.43,119.43,0,0,0,17.89,14.34c8.29,5.43,13,5.94,16.17,9.92,2.57,3.24.06,7.91-7.48,8.1-8,.2-17.3-3-25.91-11.33s-9.95-16.85-7.66-21.47C276.73,231.8,279.09,230.36,282.85,234Z" style="fill:#BA68C8"></path><path d="M302.15,248.94a4.91,4.91,0,0,0,2.09.19,2.69,2.69,0,0,0,2-1.17,4.64,4.64,0,0,0,.7-2.33,5,5,0,0,0-1.55-3.13,26.8,26.8,0,0,1-3.43-2.2,17.84,17.84,0,0,1,5.72-5.51c3.84-2.55,6.44-.92,13.27-9.55,8.21-10.38,15.47-22,15.47-22s-2.38-18.67-3.39-26c-.93-6.65-2.29-19.55,3.52-25,8,1.67,14.5,3.3,16.28,16.32,1.73,12.67,3,21.82,3.73,29.81,1,10.74,1.61,12.27-2.72,16.94-4.83,5.22-5.5,6-10.37,10.75-4.67,4.58-10.17,8.65-14.79,13.28a31.22,31.22,0,0,0-5.12,7.06c-1.26,2.26-2.67,5-4.7,6.7a13,13,0,0,1-2.34,1.44c-1.2.63-2.42,1.23-3.65,1.82s-3.17,1.31-3.95-.46c.06.16-1.49.5-1.64.5a2.4,2.4,0,0,1-1.6-.57,10.64,10.64,0,0,1-1.36-1.75c-.65-.88-1.55-.89-2.45-1.41a2.87,2.87,0,0,1-.9-.87,7.56,7.56,0,0,1-.78-1.65,15.16,15.16,0,0,1-.69-2.71A12.62,12.62,0,0,0,302.15,248.94Z" style="fill:#ffa8a7"></path><path d="M332.22,174.2c.8,5.66,3,23.15,3,23.15s2.56,2.15,11,1.41,10.47-3.71,10.47-3.71-1.61-19.15-4-29.89-8.31-11.41-16-13.34C332.07,155.32,330.85,164.46,332.22,174.2Z" style="fill:#37474f"></path><path d="M208.44,187.44c.8.62,1.29,1.07,1.29,1.07a2.11,2.11,0,0,0-.29,1.39c.18.68.33.92,1.39,1.52a16.2,16.2,0,0,0,1.76.88,1.45,1.45,0,0,0,.37,1.09,23.36,23.36,0,0,0,2.85,1.82,2.55,2.55,0,0,0,1.82.08,10.83,10.83,0,0,0,2.28-1c.74-.34,1.48-.58,1.22-1.36a1.4,1.4,0,0,0-1.08-1s.59-.27.83-.4a.86.86,0,0,0,.21-.76,1.51,1.51,0,0,0-.69-1.15c-1-.69-1.5-.44-1.5-.44a1.55,1.55,0,0,0-.44-1.48,4,4,0,0,0-3.18-1.11c-.75.06-1.1.09-1.57.09a8.36,8.36,0,0,1-1.2-.07l-.49-.86c-1-.58-2.05-1.15-3-1.69a4.26,4.26,0,0,0-1.29,1.23A2,2,0,0,0,208.44,187.44Z" style="fill:#ffa8a7"></path><path d="M216,190.35c1.05-.25,2.67-.27,2.8-1.22a2.9,2.9,0,0,1,.58.05c0,.11,0,.22,0,.35,0,.46-.6.95-1.44,1.05a18.7,18.7,0,0,0-3.56.72,2.48,2.48,0,0,1-2.27-.41,13.21,13.21,0,0,0-2-1.27c-.44-.14-.65.31-.47.88a2.09,2.09,0,0,1-.22-.6,2.07,2.07,0,0,1,.28-1.39,22.46,22.46,0,0,0,3.34,2.23C213.56,191,215,190.6,216,190.35Z" style="fill:#f28f8f"></path><path d="M215.64,193.2a5.87,5.87,0,0,0,2.29-.49c.89-.31,2-.81,2-.81a1.57,1.57,0,0,1,1,.7,2.92,2.92,0,0,0-1.45-.06c-.72.18-2.58,1-3.35,1.07a5.36,5.36,0,0,1-1.89-.23c-.62-.1-1.24,0,.13,1a10.91,10.91,0,0,1-1.45-1,1.45,1.45,0,0,1-.36-1.08A9.38,9.38,0,0,0,215.64,193.2Z" style="fill:#f28f8f"></path></g></g></g></svg>
