<svg width="345" height="388" viewBox="0 0 345 388" fill="none" xmlns="http://www.w3.org/2000/svg">
<path d="M344.253 158.32C345.783 116.9 330.903 74.9801 298.103 55.0301C281.913 45.1801 262.983 39.4101 244.043 40.2601C223.723 41.1701 204.593 49.4401 185.433 56.2601C166.273 63.0801 145.523 68.5301 125.773 63.6901C111.483 60.1901 98.9133 51.5401 84.7733 47.6001C29.0633 32.0901 -19.4467 95.3001 7.81328 145.55C14.5033 157.87 24.8133 167.75 33.4833 178.78C42.1533 189.81 49.4233 203.13 48.2533 217.1C47.2533 228.67 40.6933 238.97 37.9633 250.25C32.7433 271.86 43.1033 295.63 61.0133 308.8C78.9233 321.97 103.083 325.04 124.683 319.62C146.283 314.2 165.283 300.94 180.253 284.52C188.253 275.72 196.093 265.44 207.603 262.45C218.653 259.59 230.043 264.25 241.253 266.39C251.617 268.307 262.263 268.09 272.54 265.751C282.817 263.413 292.509 259.003 301.023 252.79C328.073 232.78 342.873 195.75 344.253 158.32Z" fill="#099289"/>
<path opacity="0.7" d="M344.253 158.32C345.783 116.9 330.903 74.9801 298.103 55.0301C281.913 45.1801 262.983 39.4101 244.043 40.2601C223.723 41.1701 204.593 49.4401 185.433 56.2601C166.273 63.0801 145.523 68.5301 125.773 63.6901C111.483 60.1901 98.9133 51.5401 84.7733 47.6001C29.0633 32.0901 -19.4467 95.3001 7.81328 145.55C14.5033 157.87 24.8133 167.75 33.4833 178.78C42.1533 189.81 49.4233 203.13 48.2533 217.1C47.2533 228.67 40.6933 238.97 37.9633 250.25C32.7433 271.86 43.1033 295.63 61.0133 308.8C78.9233 321.97 103.083 325.04 124.683 319.62C146.283 314.2 165.283 300.94 180.253 284.52C188.253 275.72 196.093 265.44 207.603 262.45C218.653 259.59 230.043 264.25 241.253 266.39C251.617 268.307 262.263 268.09 272.54 265.751C282.817 263.413 292.509 259.003 301.023 252.79C328.073 232.78 342.873 195.75 344.253 158.32Z" fill="white"/>
<path d="M166.073 387.75C240.748 387.75 301.283 375.644 301.283 360.71C301.283 345.776 240.748 333.67 166.073 333.67C91.3988 333.67 30.8633 345.776 30.8633 360.71C30.8633 375.644 91.3988 387.75 166.073 387.75Z" fill="#099289"/>
<path opacity="0.5" d="M166.073 387.75C240.748 387.75 301.283 375.644 301.283 360.71C301.283 345.776 240.748 333.67 166.073 333.67C91.3988 333.67 30.8633 345.776 30.8633 360.71C30.8633 375.644 91.3988 387.75 166.073 387.75Z" fill="white"/>
<path d="M309.613 1.00008H212.123C208.793 1.00008 206.093 3.6998 206.093 7.03008V114.5C206.093 117.83 208.793 120.53 212.123 120.53H309.613C312.944 120.53 315.643 117.83 315.643 114.5V7.03008C315.643 3.6998 312.944 1.00008 309.613 1.00008Z" fill="white" stroke="#263238" stroke-linecap="round" stroke-linejoin="round"/>
<path d="M212.123 1.00008H309.603C311.195 1.00008 312.721 1.63222 313.846 2.75743C314.971 3.88265 315.603 5.40877 315.603 7.00007V13.2601H206.093V7.03008C206.089 6.2371 206.243 5.45119 206.544 4.7178C206.846 3.98441 207.29 3.31809 207.851 2.75736C208.411 2.19663 209.078 1.75261 209.811 1.45098C210.544 1.14936 211.33 0.9961 212.123 1.00008Z" fill="#263238" stroke="#263238" stroke-linecap="round" stroke-linejoin="round"/>
<path d="M212.063 64.8201H256.143" stroke="#263238" stroke-linecap="round" stroke-linejoin="round"/>
<path d="M212.063 70.5101H256.143" stroke="#263238" stroke-linecap="round" stroke-linejoin="round"/>
<path d="M212.063 76.2001H256.143" stroke="#263238" stroke-linecap="round" stroke-linejoin="round"/>
<path d="M212.063 81.8901H256.143" stroke="#263238" stroke-linecap="round" stroke-linejoin="round"/>
<path d="M212.063 87.5801H256.143" stroke="#263238" stroke-linecap="round" stroke-linejoin="round"/>
<path d="M212.063 93.2801H256.143" stroke="#263238" stroke-linecap="round" stroke-linejoin="round"/>
<path d="M212.063 98.9701H256.143" stroke="#263238" stroke-linecap="round" stroke-linejoin="round"/>
<path d="M212.063 104.66H256.143" stroke="#263238" stroke-linecap="round" stroke-linejoin="round"/>
<path d="M212.063 110.35H256.143" stroke="#263238" stroke-linecap="round" stroke-linejoin="round"/>
<path d="M263.893 64.8201H307.973" stroke="#263238" stroke-linecap="round" stroke-linejoin="round"/>
<path d="M263.893 70.5101H307.973" stroke="#263238" stroke-linecap="round" stroke-linejoin="round"/>
<path d="M263.893 76.2001H307.973" stroke="#263238" stroke-linecap="round" stroke-linejoin="round"/>
<path d="M263.893 81.8901H307.973" stroke="#263238" stroke-linecap="round" stroke-linejoin="round"/>
<path d="M263.893 87.5801H307.973" stroke="#263238" stroke-linecap="round" stroke-linejoin="round"/>
<path d="M263.893 93.2801H307.973" stroke="#263238" stroke-linecap="round" stroke-linejoin="round"/>
<path d="M263.893 98.9701H307.973" stroke="#263238" stroke-linecap="round" stroke-linejoin="round"/>
<path d="M263.893 104.66H307.973" stroke="#263238" stroke-linecap="round" stroke-linejoin="round"/>
<path d="M263.893 110.35H307.973" stroke="#263238" stroke-linecap="round" stroke-linejoin="round"/>
<path d="M241.543 28.7901C241.761 28.1144 241.875 27.4099 241.883 26.7001C241.883 24.1101 239.253 23.9601 236.673 23.9601H236.023V23.3501H247.283V23.9601C244.353 23.9601 243.283 25.8301 242.373 28.6001L236.373 46.5101C235.923 47.8401 235.543 48.8301 234.133 48.8301H234.013L228.733 31.7201L223.823 46.5501C223.363 47.8801 222.983 48.8701 221.573 48.8701H221.463L213.783 23.9601H211.083V23.3501H220.963V23.9601H218.153L223.853 43.5801H224.083L228.383 30.5501L226.383 24.0101H223.683V23.3501H233.573V23.9601H230.763L236.463 43.5801H236.683L241.543 28.7901Z" fill="#099289"/>
<path d="M308.283 17.6801H262.923V58.6801H308.283V17.6801Z" fill="#099289" stroke="#263238" stroke-width="2" stroke-linecap="round" stroke-linejoin="round"/>
<path d="M308.283 34.8201C306.762 34.9067 305.25 35.1174 303.763 35.4501C296.873 36.9501 295.073 46.8401 287.283 46.8401C280.383 46.8401 279.793 37.5501 269.903 36.3501C267.497 35.9711 265.033 36.4075 262.903 37.5901V58.6801H308.283V34.8201Z" fill="#263238" stroke="#263238" stroke-linecap="round" stroke-linejoin="round"/>
<path d="M277.993 27.0601C277.995 28.0696 277.698 29.057 277.138 29.8972C276.578 30.7375 275.782 31.3927 274.85 31.7799C273.917 32.1672 272.891 32.269 271.901 32.0726C270.911 31.8761 270.001 31.3902 269.287 30.6763C268.573 29.9625 268.087 29.0528 267.891 28.0626C267.694 27.0723 267.796 26.0461 268.183 25.1138C268.571 24.1815 269.226 23.385 270.066 22.8254C270.906 22.2658 271.894 21.9681 272.903 21.9701C274.253 21.9701 275.548 22.5063 276.503 23.4609C277.457 24.4155 277.993 25.7101 277.993 27.0601Z" fill="white" stroke="#263238" stroke-linecap="round" stroke-linejoin="round"/>
<path d="M310.353 4.59007H209.383V8.48007H310.353V4.59007Z" fill="white" stroke="#263238" stroke-linecap="round" stroke-linejoin="round"/>
<path d="M304.053 144.38H260.343C258.625 144.38 256.976 145.063 255.761 146.278C254.546 147.493 253.863 149.141 253.863 150.86V174.24C253.863 175.959 254.546 177.607 255.761 178.822C256.976 180.037 258.625 180.72 260.343 180.72H261.683C260.323 183.72 257.683 188.32 253.513 191.05C253.513 191.05 262.383 190.43 271.623 180.72H304.033C305.752 180.72 307.4 180.037 308.615 178.822C309.831 177.607 310.513 175.959 310.513 174.24V150.86C310.513 149.145 309.833 147.5 308.622 146.285C307.412 145.07 305.768 144.385 304.053 144.38Z" fill="#263238" stroke="#263238" stroke-linecap="round" stroke-linejoin="round"/>
<path d="M274.683 161.72C274.685 161.059 274.491 160.412 274.125 159.861C273.758 159.31 273.237 158.88 272.626 158.626C272.015 158.372 271.343 158.305 270.694 158.434C270.045 158.562 269.449 158.881 268.982 159.348C268.514 159.816 268.196 160.412 268.067 161.061C267.938 161.71 268.005 162.382 268.259 162.993C268.513 163.604 268.943 164.125 269.494 164.491C270.045 164.858 270.692 165.052 271.353 165.05C272.236 165.047 273.081 164.696 273.705 164.072C274.329 163.448 274.681 162.602 274.683 161.72Z" fill="#099289" stroke="#263238" stroke-linecap="round" stroke-linejoin="round"/>
<path d="M286.013 161.72C286.013 161.061 285.818 160.418 285.452 159.87C285.086 159.322 284.566 158.896 283.958 158.644C283.349 158.392 282.68 158.326 282.034 158.454C281.388 158.583 280.794 158.9 280.329 159.365C279.863 159.831 279.546 160.424 279.417 161.07C279.289 161.716 279.355 162.386 279.607 162.994C279.859 163.603 280.286 164.123 280.833 164.489C281.381 164.855 282.025 165.05 282.683 165.05C283.566 165.047 284.411 164.696 285.035 164.072C285.659 163.448 286.011 162.602 286.013 161.72Z" fill="#099289" stroke="#263238" stroke-linecap="round" stroke-linejoin="round"/>
<path d="M297.353 161.72C297.355 161.059 297.161 160.412 296.795 159.862C296.429 159.311 295.909 158.882 295.298 158.627C294.688 158.373 294.016 158.305 293.368 158.433C292.719 158.561 292.123 158.878 291.655 159.345C291.187 159.811 290.868 160.407 290.738 161.055C290.609 161.703 290.674 162.375 290.927 162.986C291.179 163.597 291.607 164.119 292.157 164.486C292.706 164.854 293.352 165.05 294.013 165.05C294.897 165.047 295.743 164.696 296.369 164.072C296.994 163.449 297.348 162.603 297.353 161.72Z" fill="#099289" stroke="#263238" stroke-linecap="round" stroke-linejoin="round"/>
<path d="M63.6833 15.1801H135.683C137.397 15.1801 139.04 15.8607 140.251 17.0722C141.463 18.2837 142.143 19.9268 142.143 21.6401V71.5501H57.2533V21.6401C57.2533 19.932 57.9298 18.2934 59.1348 17.0827C60.3398 15.8721 61.9752 15.188 63.6833 15.1801Z" fill="#099289" stroke="#263238" stroke-linecap="round" stroke-linejoin="round"/>
<path d="M142.103 63.5001H57.2533V71.5201H142.103V63.5001Z" fill="#263238" stroke="#263238" stroke-linecap="round" stroke-linejoin="round"/>
<path d="M138.223 66.2401H61.1433V68.7801H138.223V66.2401Z" fill="white" stroke="#263238" stroke-linecap="round" stroke-linejoin="round"/>
<path d="M99.6833 52.4801C106.156 52.4801 111.403 47.2329 111.403 40.7601C111.403 34.2873 106.156 29.0401 99.6833 29.0401C93.2105 29.0401 87.9633 34.2873 87.9633 40.7601C87.9633 47.2329 93.2105 52.4801 99.6833 52.4801Z" fill="#263238" stroke="#263238" stroke-linecap="round" stroke-linejoin="round"/>
<path d="M94.3933 33.4701L107.043 40.7701L94.3933 48.0701V33.4701Z" fill="white" stroke="#263238" stroke-linecap="round" stroke-linejoin="round"/>
<path d="M105.403 92.0501H24.8733C23.3158 92.0501 22.0533 93.3126 22.0533 94.8701V125.56C22.0533 127.118 23.3158 128.38 24.8733 128.38H105.403C106.961 128.38 108.223 127.118 108.223 125.56V94.8701C108.223 93.3126 106.961 92.0501 105.403 92.0501Z" fill="#263238" stroke="#263238" stroke-linecap="round" stroke-linejoin="round"/>
<path d="M32.3133 97.0001L32.7333 97.7001C30.8333 98.7601 29.0633 100.62 29.0633 102.8C29.039 103.175 29.0896 103.55 29.2123 103.905C29.335 104.259 29.5273 104.586 29.7778 104.865C30.0283 105.145 30.3321 105.371 30.6713 105.532C31.0105 105.692 31.3784 105.784 31.7533 105.8C32.0333 105.8 32.2233 105.66 32.2233 105.38C32.2233 105.1 32.0833 105.01 31.8033 104.96C31.4257 104.858 31.0967 104.625 30.8751 104.302C30.6535 103.98 30.5536 103.589 30.5933 103.2C30.6006 102.89 30.6709 102.584 30.8001 102.301C30.9293 102.019 31.1145 101.766 31.3446 101.557C31.5747 101.348 31.8449 101.189 32.1386 101.088C32.4324 100.987 32.7436 100.947 33.0533 100.97C33.3902 100.971 33.7235 101.04 34.0334 101.172C34.3433 101.304 34.6236 101.497 34.8576 101.74C35.0916 101.982 35.2746 102.269 35.3958 102.583C35.517 102.898 35.574 103.233 35.5633 103.57C35.5584 103.993 35.4683 104.411 35.2983 104.799C35.1283 105.186 34.8819 105.536 34.5739 105.826C34.2659 106.116 33.9025 106.342 33.5055 106.488C33.1085 106.635 32.686 106.7 32.2633 106.68C31.7377 106.714 31.2108 106.637 30.7168 106.455C30.2228 106.272 29.7726 105.988 29.3955 105.62C29.0184 105.252 28.7228 104.81 28.5277 104.32C28.3327 103.831 28.2426 103.306 28.2633 102.78C28.2333 100.25 30.1833 98.2101 32.3133 97.0001ZM40.9033 97.0001L41.3233 97.7001C39.4133 98.7601 37.6533 100.62 37.6533 102.8C37.6276 103.175 37.6773 103.551 37.7994 103.906C37.9216 104.261 38.1138 104.589 38.3646 104.868C38.6154 105.148 38.9197 105.375 39.2596 105.535C39.5994 105.695 39.9679 105.785 40.3433 105.8C40.6233 105.8 40.8133 105.66 40.8133 105.38C40.8133 105.1 40.6733 105.01 40.3933 104.96C40.0157 104.858 39.6867 104.625 39.4651 104.302C39.2435 103.98 39.1436 103.589 39.1833 103.2C39.1891 102.889 39.2585 102.583 39.3872 102.3C39.5159 102.016 39.7012 101.763 39.9316 101.554C40.162 101.345 40.4327 101.185 40.7271 101.085C41.0215 100.985 41.3332 100.945 41.6433 100.97C41.9802 100.971 42.3135 101.04 42.6234 101.172C42.9333 101.304 43.2136 101.497 43.4476 101.74C43.6816 101.982 43.8646 102.269 43.9858 102.583C44.107 102.898 44.164 103.233 44.1533 103.57C44.147 103.993 44.0559 104.41 43.8855 104.797C43.715 105.184 43.4686 105.533 43.1609 105.823C42.8532 106.113 42.4904 106.338 42.094 106.485C41.6976 106.633 41.2757 106.699 40.8533 106.68C40.3281 106.713 39.8019 106.635 39.3085 106.452C38.8152 106.268 38.3657 105.984 37.9889 105.617C37.6122 105.249 37.3165 104.807 37.1209 104.319C36.9253 103.83 36.8341 103.306 36.8533 102.78C36.8133 100.25 38.7633 98.2101 40.9033 97.0001Z" fill="#099289"/>
<path d="M49.1233 104.4H98.1633" stroke="white" stroke-linecap="round" stroke-linejoin="round"/>
<path d="M49.1233 108.61H98.1633" stroke="white" stroke-linecap="round" stroke-linejoin="round"/>
<path d="M49.1233 112.82H98.1633" stroke="white" stroke-linecap="round" stroke-linejoin="round"/>
<path d="M49.1233 117.04H98.1633" stroke="white" stroke-linecap="round" stroke-linejoin="round"/>
<path d="M89.4865 184.71C99.6085 183.057 106.475 173.513 104.823 163.391C103.171 153.269 93.6257 146.403 83.5038 148.055C73.3818 149.707 66.5156 159.252 68.1677 169.374C69.8198 179.495 79.3645 186.362 89.4865 184.71Z" fill="#263238" stroke="#263238" stroke-linecap="round" stroke-linejoin="round"/>
<path d="M98.2738 176.743C103.984 170.241 103.343 160.34 96.8398 154.629C90.3372 148.918 80.4363 149.56 74.7256 156.063C69.0148 162.566 69.6568 172.467 76.1595 178.177C82.6622 183.888 92.5631 183.246 98.2738 176.743Z" fill="white" stroke="#263238" stroke-linecap="round" stroke-linejoin="round"/>
<path d="M86.5033 155.05V166.38H94.1633" stroke="#263238" stroke-width="2" stroke-linecap="round" stroke-linejoin="round"/>
<path d="M202.683 166.42C202.683 166.42 213.333 189.15 213.333 190.35C213.333 191.55 203.883 196.69 202.083 197.77C200.687 198.565 199.248 199.283 197.773 199.92L198.853 210.45C198.853 210.45 215.123 206.74 221.943 203.03C228.763 199.32 228.523 195.13 226.943 188.91C225.363 182.69 214.853 158.65 214.853 158.65L202.683 166.42Z" fill="white"/>
<mask id="mask0_1_154" style="mask-type:luminance" maskUnits="userSpaceOnUse" x="197" y="158" width="31" height="53">
<path d="M202.683 166.42C202.683 166.42 213.333 189.15 213.333 190.35C213.333 191.55 203.883 196.69 202.083 197.77C200.687 198.565 199.248 199.283 197.773 199.92L198.853 210.45C198.853 210.45 215.123 206.74 221.943 203.03C228.763 199.32 228.523 195.13 226.943 188.91C225.363 182.69 214.853 158.65 214.853 158.65L202.683 166.42Z" fill="white"/>
</mask>
<g mask="url(#mask0_1_154)">
<g style="mix-blend-mode:multiply" opacity="0.5">
<path d="M221.913 203.03C228.733 199.32 228.493 195.13 226.913 188.91C225.333 182.69 214.823 158.65 214.823 158.65L213.123 159.73L212.583 160.73C212.583 160.73 222.393 184.81 222.983 192.83C223.383 198.22 212.533 204.94 205.363 208.78C210.683 207.37 217.923 205.2 221.913 203.03Z" fill="#099289"/>
</g>
</g>
<path d="M202.683 166.42C202.683 166.42 213.333 189.15 213.333 190.35C213.333 191.55 203.883 196.69 202.083 197.77C200.687 198.565 199.248 199.283 197.773 199.92L198.853 210.45C198.853 210.45 215.123 206.74 221.943 203.03C228.763 199.32 228.523 195.13 226.943 188.91C225.363 182.69 214.853 158.65 214.853 158.65L202.683 166.42Z" stroke="#263238" stroke-linecap="round" stroke-linejoin="round"/>
<path d="M125.843 161.4C125.843 161.4 118.073 189.87 117.843 194.9C117.613 199.93 133.273 209.85 133.843 210.45C134.413 211.05 132.953 193.15 132.953 193.15L138.263 167.15L125.843 161.4Z" fill="white"/>
<mask id="mask1_1_154" style="mask-type:luminance" maskUnits="userSpaceOnUse" x="117" y="161" width="22" height="50">
<path d="M125.843 161.4C125.843 161.4 118.073 189.87 117.843 194.9C117.613 199.93 133.273 209.85 133.843 210.45C134.413 211.05 132.953 193.15 132.953 193.15L138.263 167.15L125.843 161.4Z" fill="white"/>
</mask>
<g mask="url(#mask1_1_154)">
<g style="mix-blend-mode:multiply" opacity="0.5">
<path d="M129.403 163.73L129.233 162.96L125.843 161.4C125.843 161.4 118.073 189.87 117.843 194.9C117.613 199.93 133.273 209.85 133.843 210.45C134.073 210.69 133.983 208.01 133.793 204.7C129.133 200.75 122.443 195.19 121.663 192.85" fill="#099289"/>
</g>
</g>
<path d="M125.843 161.4C125.843 161.4 118.073 189.87 117.843 194.9C117.613 199.93 133.273 209.85 133.843 210.45C134.413 211.05 132.953 193.15 132.953 193.15L138.263 167.15L125.843 161.4Z" stroke="#263238" stroke-linecap="round" stroke-linejoin="round"/>
<path d="M162.333 132.8C162.333 132.8 159.333 134.96 153.483 135.2C147.633 135.44 147.353 131.2 140.083 131.2C131.273 131.2 120.223 159.07 120.223 159.07C120.223 159.07 125.723 164.46 131.113 166.73C134.095 168.036 137.23 168.96 140.443 169.48L141.283 187.79H200.623L201.333 169.48L219.883 157.45C219.883 157.45 210.783 141.18 206.363 135.08C201.943 128.98 194.513 131.25 192.243 132.8C189.973 134.35 183.243 134.72 180.763 134.36C177.528 133.644 174.331 132.766 171.183 131.73C171.183 131.73 167.363 128.55 162.333 132.8Z" fill="#099289" stroke="#263238" stroke-linecap="round" stroke-linejoin="round"/>
<path d="M141.043 139.26L140.803 169.65" stroke="#263238" stroke-width="0.5" stroke-linecap="round" stroke-linejoin="round"/>
<path d="M143.193 142.02C143.193 142.02 144.033 156.85 147.193 165.11" stroke="#263238" stroke-width="0.5" stroke-linecap="round" stroke-linejoin="round"/>
<path d="M147.743 166.3C148.426 168.316 149.265 170.275 150.253 172.16" stroke="#263238" stroke-width="0.5" stroke-linecap="round" stroke-linejoin="round"/>
<path d="M145.103 140.34C146.239 145.732 147.841 151.016 149.893 156.13" stroke="#263238" stroke-width="0.5" stroke-linecap="round" stroke-linejoin="round"/>
<path d="M196.683 142.97C196.683 142.97 193.813 154.7 191.293 159.97" stroke="#263238" stroke-width="0.5" stroke-linecap="round" stroke-linejoin="round"/>
<path d="M201.333 169.53L201.213 145.84" stroke="#263238" stroke-width="0.5" stroke-linecap="round" stroke-linejoin="round"/>
<path d="M200.023 146.32C200.023 146.32 197.863 161.32 192.603 169.17" stroke="#263238" stroke-width="0.5" stroke-linecap="round" stroke-linejoin="round"/>
<path d="M197.393 166.18C197.393 166.18 194.993 170.73 193.323 173.12" stroke="#263238" stroke-width="0.5" stroke-linecap="round" stroke-linejoin="round"/>
<path d="M158.983 134.6C158.983 134.6 160.663 144.89 163.053 150.15C165.443 155.41 169.633 156.49 173.223 154.94C176.813 153.39 179.443 145.72 179.223 135.94" stroke="#263238" stroke-width="0.5" stroke-linecap="round" stroke-linejoin="round"/>
<path d="M150.493 113.06C150.493 113.06 148.213 109.12 146.423 111.15C144.633 113.18 147.863 117.85 149.653 119.4C151.443 120.95 152.763 120 152.653 118.33C152.543 116.66 150.493 113.06 150.493 113.06Z" fill="#099289" stroke="#263238" stroke-linecap="round" stroke-linejoin="round"/>
<path opacity="0.5" d="M150.493 113.06C150.493 113.06 148.213 109.12 146.423 111.15C144.633 113.18 147.863 117.85 149.653 119.4C151.443 120.95 152.763 120 152.653 118.33C152.543 116.66 150.493 113.06 150.493 113.06Z" fill="white"/>
<path d="M150.493 113.06C150.493 113.06 148.213 109.12 146.423 111.15C144.633 113.18 147.863 117.85 149.653 119.4C151.443 120.95 152.763 120 152.653 118.33C152.543 116.66 150.493 113.06 150.493 113.06Z" stroke="#263238" stroke-linecap="round" stroke-linejoin="round"/>
<path d="M186.683 113.06C186.683 113.06 188.953 109.12 190.753 111.15C192.553 113.18 189.313 117.85 187.523 119.4C185.733 120.95 184.403 120 184.523 118.33C184.643 116.66 186.683 113.06 186.683 113.06Z" fill="#099289" stroke="#263238" stroke-linecap="round" stroke-linejoin="round"/>
<path opacity="0.5" d="M186.683 113.06C186.683 113.06 188.953 109.12 190.753 111.15C192.553 113.18 189.313 117.85 187.523 119.4C185.733 120.95 184.403 120 184.523 118.33C184.643 116.66 186.683 113.06 186.683 113.06Z" fill="white"/>
<path d="M186.683 113.06C186.683 113.06 188.953 109.12 190.753 111.15C192.553 113.18 189.313 117.85 187.523 119.4C185.733 120.95 184.403 120 184.523 118.33C184.643 116.66 186.683 113.06 186.683 113.06Z" stroke="#263238" stroke-linecap="round" stroke-linejoin="round"/>
<path d="M161.253 131.97C162.383 137.076 163.822 142.109 165.563 147.04C167.723 152.42 171.783 152.42 173.463 148.95C175.143 145.48 176.213 132.55 176.213 132.55C176.213 132.55 164.963 134.12 161.253 131.97Z" fill="white" stroke="#263238" stroke-linecap="round" stroke-linejoin="round"/>
<path d="M150.733 114.38C150.733 114.38 153.843 125.38 159.733 131.85C165.623 138.32 167.733 139.85 170.863 139.38C173.993 138.91 177.323 134.84 181.983 126.38C186.643 117.92 186.983 111.43 187.373 110.83C187.763 110.23 186.373 98.2701 179.713 93.1201C173.053 87.9701 165.593 85.7101 159.133 91.3301C152.673 96.9501 148.573 106.12 150.733 114.38Z" fill="white"/>
<mask id="mask2_1_154" style="mask-type:luminance" maskUnits="userSpaceOnUse" x="150" y="88" width="38" height="52">
<path d="M150.733 114.38C150.733 114.38 153.843 125.38 159.733 131.85C165.623 138.32 167.733 139.85 170.863 139.38C173.993 138.91 177.323 134.84 181.983 126.38C186.643 117.92 186.983 111.43 187.373 110.83C187.763 110.23 186.373 98.2701 179.713 93.1201C173.053 87.9701 165.593 85.7101 159.133 91.3301C152.673 96.9501 148.573 106.12 150.733 114.38Z" fill="white"/>
</mask>
<g mask="url(#mask2_1_154)">
<g style="mix-blend-mode:multiply" opacity="0.5">
<path d="M179.683 93.0801C172.983 87.9401 165.563 85.6701 159.103 91.2901C152.643 96.9101 148.573 106.12 150.733 114.38C150.733 114.38 151.323 116.5 152.493 119.38C152.49 119.011 152.54 118.644 152.643 118.29C154.073 113.76 158.293 104.99 172.493 109.01C183.773 112.19 182.393 122.11 181.343 127.4L181.953 126.3C186.623 117.81 186.953 111.35 187.343 110.75C187.733 110.15 186.383 98.2301 179.683 93.0801Z" fill="#099289"/>
</g>
</g>
<path d="M150.733 114.38C150.733 114.38 153.843 125.38 159.733 131.85C165.623 138.32 167.733 139.85 170.863 139.38C173.993 138.91 177.323 134.84 181.983 126.38C186.643 117.92 186.983 111.43 187.373 110.83C187.763 110.23 186.373 98.2701 179.713 93.1201C173.053 87.9701 165.593 85.7101 159.133 91.3301C152.673 96.9501 148.573 106.12 150.733 114.38Z" stroke="#263238" stroke-linecap="round" stroke-linejoin="round"/>
<path d="M170.833 120.12C170.462 122.456 170.262 124.815 170.233 127.18C170.353 129.57 171.073 130.29 169.993 130.53C168.913 130.77 167.723 129.09 167.723 129.09" stroke="#263238" stroke-linecap="round" stroke-linejoin="round"/>
<path d="M158.863 122.04C159.556 122.541 160.385 122.82 161.24 122.842C162.095 122.863 162.936 122.625 163.653 122.16" stroke="#263238" stroke-linecap="round" stroke-linejoin="round"/>
<path d="M174.063 122.04C174.755 122.54 175.582 122.819 176.435 122.84C177.288 122.862 178.127 122.625 178.843 122.16" stroke="#263238" stroke-linecap="round" stroke-linejoin="round"/>
<path d="M166.503 118.01C166.503 118.01 164.223 112.38 156.693 115.01" stroke="#263238" stroke-linecap="round" stroke-linejoin="round"/>
<path d="M172.773 117.32C172.773 117.32 174.683 111.81 181.503 115.04" stroke="#263238" stroke-linecap="round" stroke-linejoin="round"/>
<path d="M167.953 122.45C167.953 125.53 164.423 128.02 160.063 128.02C155.703 128.02 152.163 125.53 152.163 122.45C152.163 119.37 155.463 118.09 159.823 118.09C164.183 118.09 167.953 119.38 167.953 122.45Z" stroke="#263238" stroke-linecap="round" stroke-linejoin="round"/>
<path d="M186.143 122.45C186.143 125.53 182.603 128.02 178.243 128.02C173.883 128.02 170.353 125.53 170.353 122.45C170.353 119.37 173.643 118.09 178.003 118.09C182.363 118.09 186.143 119.38 186.143 122.45Z" stroke="#263238" stroke-linecap="round" stroke-linejoin="round"/>
<path d="M85.3133 218.38L84.8233 339.61C84.8233 339.992 84.975 340.358 85.2451 340.628C85.5151 340.898 85.8814 341.05 86.2633 341.05C86.6357 341.05 86.9935 340.905 87.2606 340.645C87.5276 340.386 87.6829 340.032 87.6933 339.66L91.1533 218.55L85.3133 218.38Z" fill="white" stroke="#263238" stroke-linecap="round" stroke-linejoin="round"/>
<path d="M77.1533 246.72L76.6833 372.05C76.6819 372.24 76.7183 372.427 76.7902 372.603C76.8621 372.778 76.9681 372.937 77.1021 373.071C77.2361 373.205 77.3953 373.311 77.5706 373.383C77.7459 373.455 77.9338 373.491 78.1233 373.49C78.495 373.49 78.8525 373.347 79.1209 373.09C79.3892 372.833 79.5478 372.481 79.5633 372.11L83.0133 246.88L77.1533 246.72Z" fill="white" stroke="#263238" stroke-linecap="round" stroke-linejoin="round"/>
<path d="M252.913 218.38L253.403 339.61C253.405 339.799 253.369 339.986 253.297 340.16C253.226 340.335 253.121 340.494 252.988 340.628C252.855 340.762 252.697 340.868 252.523 340.94C252.349 341.013 252.162 341.05 251.973 341.05C251.6 341.05 251.241 340.905 250.972 340.646C250.704 340.387 250.546 340.033 250.533 339.66L247.083 218.55L252.913 218.38Z" fill="white" stroke="#263238" stroke-linecap="round" stroke-linejoin="round"/>
<path d="M261.083 246.72L261.573 372.05C261.575 372.24 261.538 372.427 261.466 372.603C261.394 372.778 261.288 372.937 261.154 373.071C261.02 373.205 260.861 373.311 260.686 373.383C260.511 373.455 260.323 373.491 260.133 373.49C259.763 373.49 259.406 373.347 259.139 373.089C258.873 372.832 258.716 372.481 258.703 372.11L255.243 246.88L261.083 246.72Z" fill="white" stroke="#263238" stroke-linecap="round" stroke-linejoin="round"/>
<path d="M133.973 251.93L133.683 363.17C133.652 363.448 133.729 363.727 133.898 363.949C134.068 364.17 134.317 364.318 134.593 364.36C134.863 364.323 135.108 364.184 135.279 363.972C135.45 363.76 135.534 363.491 135.513 363.22L137.683 252.06L133.973 251.93Z" fill="white" stroke="#263238" stroke-linecap="round" stroke-linejoin="round"/>
<path d="M204.383 248.35L204.653 345.43C204.676 345.665 204.608 345.9 204.463 346.086C204.318 346.272 204.107 346.395 203.873 346.43C203.641 346.395 203.43 346.272 203.287 346.085C203.143 345.899 203.077 345.664 203.103 345.43L201.253 248.43L204.383 248.35Z" fill="white" stroke="#263238" stroke-linecap="round" stroke-linejoin="round"/>
<path d="M132.883 248.35L133.153 345.43C133.176 345.665 133.108 345.9 132.963 346.086C132.818 346.272 132.607 346.395 132.373 346.43C132.141 346.395 131.93 346.272 131.787 346.085C131.643 345.899 131.577 345.664 131.603 345.43L129.753 248.43L132.883 248.35Z" fill="white" stroke="#263238" stroke-linecap="round" stroke-linejoin="round"/>
<path d="M202.373 251.93L202.683 363.17C202.715 363.448 202.638 363.727 202.468 363.949C202.299 364.17 202.049 364.318 201.773 364.36C201.505 364.32 201.261 364.181 201.091 363.97C200.92 363.759 200.835 363.491 200.853 363.22L198.683 252.06L202.373 251.93Z" fill="white" stroke="#263238" stroke-linecap="round" stroke-linejoin="round"/>
<path d="M167.683 259.72C192.26 259.72 212.183 255.167 212.183 249.55C212.183 243.933 192.26 239.38 167.683 239.38C143.107 239.38 123.183 243.933 123.183 249.55C123.183 255.167 143.107 259.72 167.683 259.72Z" fill="white" stroke="#263238" stroke-linecap="round" stroke-linejoin="round"/>
<path d="M146.013 335.88C146.013 335.88 143.683 339.22 145.353 340.88C147.023 342.54 148.683 341.88 148.513 343.55C148.343 345.22 145.683 350.88 143.353 356.88C141.023 362.88 145.853 368.88 150.353 367.22C154.853 365.56 154.353 348.88 155.013 345.88C155.673 342.88 156.183 342.38 156.013 339.55C155.843 336.72 155.683 333.72 153.513 333.38C151.343 333.04 147.013 334.72 146.013 335.88Z" fill="white" stroke="#263238" stroke-linecap="round" stroke-linejoin="round"/>
<path d="M153.163 362.62C150.163 361.48 145.563 361.71 142.973 361.97C143.843 365.74 147.173 368.39 150.353 367.22C151.683 366.73 152.553 364.95 153.163 362.62Z" fill="#099289" stroke="#263238" stroke-linecap="round" stroke-linejoin="round"/>
<path d="M140.853 328.55C140.853 328.55 145.683 336.72 147.013 338.88C148.343 341.04 152.853 340.38 153.353 337.38C153.853 334.38 151.513 326.05 151.513 326.05L141.513 328.55H140.853Z" fill="white" stroke="#263238" stroke-linecap="round" stroke-linejoin="round"/>
<path d="M129.353 315.55C129.353 315.55 128.013 317.72 128.683 319.22C129.353 320.72 131.183 325.05 132.353 327.22C133.523 329.39 138.853 330.72 145.013 329.72C151.173 328.72 154.683 325.88 154.853 323.38C155.023 320.88 153.853 317.55 153.013 313.55C152.173 309.55 150.013 309.72 147.013 309.72C144.013 309.72 131.853 313.22 129.353 315.55Z" fill="#099289" stroke="#263238" stroke-linecap="round" stroke-linejoin="round"/>
<path d="M147.353 266.55C147.443 262.45 149.813 260.43 149.993 257.62C150.275 253.905 149.968 250.169 149.083 246.55L144.523 240.32C131.403 240.49 122.003 240.71 121.853 240.76C121.353 240.92 121.013 243.76 120.683 246.09C120.683 246.09 115.113 246.8 116.113 262.3C116.253 264.46 121.873 289.45 122.283 292.3C124.783 309.71 130.353 318.43 130.353 318.43C130.353 318.43 130.853 320.6 137.353 320.1C143.853 319.6 150.353 315.27 150.353 315.27C150.353 315.27 147.013 281.38 147.353 266.55Z" fill="#263238" stroke="#263238" stroke-linecap="round" stroke-linejoin="round"/>
<path d="M119.783 243.55C119.783 243.55 112.893 244.55 108.673 249.37C104.453 254.19 108.033 257.37 116.233 256.51C124.433 255.65 133.893 247.26 134.293 246.81C134.693 246.36 125.743 240.66 119.783 243.55Z" fill="white" stroke="#263238" stroke-linecap="round" stroke-linejoin="round"/>
<path d="M132.013 246.55C136.403 246.776 140.759 247.446 145.013 248.55C150.683 250.22 160.683 253.55 163.013 253.55C165.343 253.55 164.683 244.88 164.683 243.22C164.683 241.56 134.683 240.55 131.013 240.55C127.343 240.55 132.013 246.55 132.013 246.55Z" fill="white" stroke="#263238" stroke-linecap="round" stroke-linejoin="round"/>
<path d="M164.683 243.22C164.683 243.22 162.013 244.55 161.013 249.55C160.013 254.55 158.683 257.22 160.683 258.55C162.683 259.88 171.353 260.88 172.683 259.55C174.013 258.22 177.683 251.55 178.353 247.22C179.023 242.89 164.683 243.22 164.683 243.22Z" fill="#099289" stroke="#263238" stroke-linecap="round" stroke-linejoin="round"/>
<path d="M176.013 244.88C174.463 246.659 173.226 248.688 172.353 250.88C171.647 253.175 171.089 255.513 170.683 257.88C173.874 258.755 176.993 259.871 180.013 261.22C185.353 263.55 194.353 265.22 203.013 267.22C211.673 269.22 214.013 271.22 217.013 271.22C220.013 271.22 223.683 268.88 228.353 263.22C233.023 257.56 229.013 245.55 224.353 241.88C219.693 238.21 194.683 235.22 191.353 236.22C188.023 237.22 176.013 244.88 176.013 244.88Z" fill="#263238" stroke="#263238" stroke-linecap="round" stroke-linejoin="round"/>
<path d="M113.473 256.6C112.815 253.608 111.481 250.807 109.573 248.41C109.263 248.7 108.963 249 108.673 249.33C104.963 253.55 107.283 256.55 113.473 256.6Z" fill="#099289" stroke="#263238" stroke-linecap="round" stroke-linejoin="round"/>
<path d="M146.843 259.24C146.843 259.24 143.403 296.05 136.383 301.78" stroke="white" stroke-width="0.5" stroke-linecap="round" stroke-linejoin="round"/>
<path d="M144.413 294.18C144.413 294.18 141.683 306.18 134.523 310.95" stroke="white" stroke-width="0.5" stroke-linecap="round" stroke-linejoin="round"/>
<path d="M188.683 252.55C188.683 252.55 178.013 253.22 185.013 257.88C192.013 262.54 204.683 265.55 204.683 265.55" stroke="white" stroke-width="0.5" stroke-linecap="round" stroke-linejoin="round"/>
<path d="M266.143 239.94L262.543 236.7L254.223 218.7C253.829 217.881 253.209 217.192 252.437 216.712C251.665 216.232 250.772 215.982 249.863 215.99H88.2633C87.3526 215.98 86.4578 216.229 85.6838 216.709C84.9098 217.189 84.2887 217.88 83.8933 218.7L73.5233 241.12L71.8133 240.49V245.62L71.8933 245.56C71.9952 246.245 72.3425 246.868 72.8706 247.316C73.3987 247.763 74.0714 248.002 74.7633 247.99H263.353C264.082 248.007 264.789 247.74 265.324 247.245C265.86 246.751 266.182 246.068 266.223 245.34L266.143 239.94Z" fill="#263238" stroke="#263238" stroke-linecap="round" stroke-linejoin="round"/>
<path d="M263.353 243.3H74.7633C74.2963 243.319 73.8322 243.218 73.4145 243.008C72.9969 242.799 72.6394 242.486 72.3755 242.1C72.1117 241.715 71.9501 241.268 71.906 240.803C71.8619 240.337 71.9367 239.869 72.1233 239.44L83.8933 214.01C84.2868 213.188 84.9074 212.496 85.6819 212.016C86.4563 211.536 87.3521 211.287 88.2633 211.3H249.863C250.773 211.289 251.666 211.538 252.439 212.019C253.211 212.499 253.831 213.19 254.223 214.01L265.993 239.44C266.18 239.869 266.255 240.337 266.211 240.803C266.166 241.268 266.005 241.715 265.741 242.1C265.477 242.486 265.12 242.799 264.702 243.008C264.284 243.218 263.82 243.319 263.353 243.3Z" fill="white" stroke="#263238" stroke-linecap="round" stroke-linejoin="round"/>
<g style="mix-blend-mode:multiply" opacity="0.5">
<path d="M84.3133 226.22C84.3133 226.22 80.0433 229.15 82.7133 230.22C85.3833 231.29 116.073 230.49 119.813 229.42C123.553 228.35 127.813 218.48 127.813 216.88C127.813 215.28 122.433 214.13 120.453 214.04C118.473 213.95 92.3133 215.54 92.3133 215.54L84.3133 226.22Z" fill="#099289"/>
</g>
<g style="mix-blend-mode:multiply" opacity="0.5">
<path d="M236.973 231.29C243.015 231.29 247.913 229.257 247.913 226.75C247.913 224.243 243.015 222.21 236.973 222.21C230.931 222.21 226.033 224.243 226.033 226.75C226.033 229.257 230.931 231.29 236.973 231.29Z" fill="#099289"/>
</g>
<g style="mix-blend-mode:multiply" opacity="0.5">
<path d="M167.323 236.9C188.989 236.9 206.553 233.614 206.553 229.56C206.553 225.506 188.989 222.22 167.323 222.22C145.657 222.22 128.093 225.506 128.093 229.56C128.093 233.614 145.657 236.9 167.323 236.9Z" fill="#099289"/>
</g>
<path d="M228.973 208.89C228.973 208.89 228.253 206.02 225.863 206.98C223.473 207.94 223.713 214.28 224.183 217.87C224.653 221.46 227.893 219.78 227.893 219.78V217.63C227.893 217.63 226.703 218.58 226.103 217.27C225.503 215.96 225.623 209.37 226.223 209.49C226.823 209.61 228.013 211.64 228.013 211.64C228.013 211.64 228.373 211.41 228.973 208.89Z" fill="#099289" stroke="#263238" stroke-linecap="round" stroke-linejoin="round"/>
<path d="M227.253 209.37V225.09C227.253 226.94 231.503 228.44 236.753 228.44C242.003 228.44 246.243 226.94 246.243 225.09V209.37H227.253Z" fill="#099289" stroke="#263238" stroke-linecap="round" stroke-linejoin="round"/>
<path d="M246.243 209.37C246.243 210.97 241.993 212.26 236.753 212.26C231.513 212.26 227.253 210.97 227.253 209.37C227.253 207.77 231.503 206.48 236.753 206.48C242.003 206.48 246.243 207.78 246.243 209.37Z" fill="white" stroke="#263238" stroke-linecap="round" stroke-linejoin="round"/>
<path d="M245.003 209.37C245.003 210.76 241.303 211.88 236.753 211.88C232.203 211.88 228.493 210.76 228.493 209.37C228.493 207.98 232.193 206.86 236.753 206.86C241.313 206.86 245.003 207.98 245.003 209.37Z" fill="white" stroke="#263238" stroke-linecap="round" stroke-linejoin="round"/>
<path d="M230.383 210.97C234.54 212.183 238.957 212.183 243.113 210.97C238.957 209.757 234.54 209.757 230.383 210.97Z" fill="#263238" stroke="#263238" stroke-linecap="round" stroke-linejoin="round"/>
<path d="M83.1333 216.55L83.2533 221.93L119.503 222.29V216.07L83.1333 216.55Z" fill="white" stroke="#263238" stroke-linecap="round" stroke-linejoin="round"/>
<path d="M119.503 222.29L124.773 210.93V207.58L119.263 217.15L119.503 222.29Z" fill="white" stroke="#263238" stroke-linecap="round" stroke-linejoin="round"/>
<path d="M83.1333 221.45L83.2533 226.84L119.503 227.2V220.98L83.1333 221.45Z" fill="white" stroke="#263238" stroke-linecap="round" stroke-linejoin="round"/>
<path d="M119.503 227.2L124.773 215.83V212.48L119.263 222.05L119.503 227.2Z" fill="white" stroke="#263238" stroke-linecap="round" stroke-linejoin="round"/>
<path d="M97.1333 202.91C97.1333 202.91 97.9733 201.24 96.7733 200.52C95.5733 199.8 94.2633 201.52 93.5433 202.07C92.8233 202.62 77.7533 212.6 77.2733 214.16C76.7933 215.72 77.2733 219.16 80.5033 219.54C83.7333 219.92 86.6033 217.75 88.0433 217.39C89.4833 217.03 90.0433 216.91 90.0433 216.91L99.9733 203.51L97.1333 202.91Z" fill="white" stroke="#263238" stroke-linecap="round" stroke-linejoin="round"/>
<path d="M80.5033 219.55C83.7333 219.91 86.6033 217.76 88.0433 217.4C89.4833 217.04 90.0433 216.92 90.0433 216.92L90.4033 216.43L81.0733 214.53C80.566 214.052 79.9139 213.757 79.2201 213.692C78.5264 213.627 77.8307 213.795 77.2433 214.17C76.7933 215.71 77.2733 219.18 80.5033 219.55Z" fill="white" stroke="#263238" stroke-linecap="round" stroke-linejoin="round"/>
<path d="M81.1033 214.55H109.103C117.843 214.55 120.473 214.07 120.473 214.07L125.853 202.94C125.853 202.94 108.853 204.02 103.603 203.66C101.434 203.598 99.2732 203.357 97.1433 202.94L81.1033 214.55Z" fill="white" stroke="#263238" stroke-linecap="round" stroke-linejoin="round"/>
<path d="M81.1033 214.55L81.5833 216.7C81.5833 216.7 104.313 216.82 110.293 216.82C116.273 216.82 120.823 217.06 120.823 217.06L120.463 214.06L81.1033 214.55Z" fill="white" stroke="#263238" stroke-linecap="round" stroke-linejoin="round"/>
<path d="M120.823 217.03L125.843 205.54V202.91L120.463 214.04L120.823 217.03Z" fill="white" stroke="#263238" stroke-linecap="round" stroke-linejoin="round"/>
<path d="M201.583 230.47H133.033C132.881 230.471 132.731 230.443 132.59 230.385C132.449 230.328 132.321 230.244 132.214 230.137C132.106 230.03 132.02 229.903 131.962 229.762C131.903 229.622 131.873 229.472 131.873 229.32C131.873 229.168 131.903 229.018 131.962 228.878C132.02 228.738 132.106 228.61 132.214 228.503C132.321 228.396 132.449 228.312 132.59 228.255C132.731 228.198 132.881 228.169 133.033 228.17H201.583C201.735 228.169 201.885 228.198 202.025 228.255C202.165 228.312 202.292 228.397 202.399 228.504C202.506 228.611 202.591 228.738 202.648 228.878C202.706 229.019 202.735 229.169 202.733 229.32C202.735 229.471 202.706 229.622 202.648 229.762C202.591 229.902 202.506 230.029 202.399 230.136C202.292 230.243 202.165 230.328 202.025 230.385C201.885 230.443 201.735 230.471 201.583 230.47Z" fill="white" stroke="#263238" stroke-linecap="round" stroke-linejoin="round"/>
<path d="M202.163 228.15H132.443C132.188 228.151 131.942 228.053 131.757 227.879C131.571 227.704 131.459 227.465 131.443 227.21L127.653 181.66C127.636 181.519 127.649 181.376 127.692 181.24C127.735 181.105 127.805 180.98 127.9 180.874C127.995 180.768 128.111 180.683 128.241 180.626C128.371 180.568 128.511 180.539 128.653 180.54H205.963C206.105 180.539 206.246 180.568 206.376 180.626C206.506 180.683 206.622 180.768 206.716 180.874C206.811 180.98 206.882 181.105 206.925 181.24C206.967 181.376 206.98 181.519 206.963 181.66L203.173 227.21C203.158 227.466 203.044 227.707 202.856 227.882C202.668 228.057 202.42 228.153 202.163 228.15Z" fill="white" stroke="#263238" stroke-linecap="round" stroke-linejoin="round"/>
<path d="M173.883 205.13C173.883 207.85 170.933 210.05 167.303 210.05C163.673 210.05 160.713 207.85 160.713 205.13C160.713 202.41 163.663 200.22 167.303 200.22C170.943 200.22 173.883 202.42 173.883 205.13Z" fill="white" stroke="#263238" stroke-linecap="round" stroke-linejoin="round"/>
<path d="M242.013 169.55C243.083 168.716 243.834 167.541 244.143 166.22C244.368 165.23 244.344 164.199 244.073 163.22" stroke="#263238" stroke-linecap="round" stroke-linejoin="round"/>
<path d="M234.033 205.21C234.033 205.21 240.683 201.21 238.513 196.64C236.343 192.07 229.003 189.04 229.003 181.92C229.003 175.78 235.533 173.51 239.793 171.05" stroke="#263238" stroke-linecap="round" stroke-linejoin="round"/>
<path d="M240.173 205.08C240.173 205.08 243.883 202.61 243.883 198.69C243.883 196.06 241.073 194.34 237.363 190.11" stroke="#263238" stroke-linecap="round" stroke-linejoin="round"/>
<path d="M235.313 187.55C235.313 187.55 232.883 185.64 234.673 182.05" stroke="#263238" stroke-linecap="round" stroke-linejoin="round"/>
<path d="M179.013 82.8001C180.203 82.5501 182.753 81.5701 184.473 77.5801C184.5 77.5197 184.514 77.4547 184.515 77.3888C184.517 77.3228 184.505 77.2573 184.481 77.196C184.456 77.1346 184.42 77.0787 184.375 77.0313C184.329 76.984 184.274 76.9462 184.213 76.9201C184.091 76.8693 183.954 76.868 183.831 76.9165C183.708 76.965 183.608 77.0596 183.553 77.1801C181.973 80.8401 179.713 81.6501 178.773 81.8301C180.455 79.7943 181.384 77.2408 181.403 74.6001C181.403 67.6601 174.973 62.0401 167.043 62.0401C159.113 62.0401 152.683 67.6601 152.683 74.6001C152.689 77.1344 153.533 79.5956 155.083 81.6001C153.573 81.5201 151.023 82.1601 147.793 85.9301C147.701 86.0252 147.649 86.1525 147.649 86.2851C147.649 86.4176 147.701 86.5449 147.793 86.6401C147.886 86.7171 148.003 86.7596 148.123 86.7601C148.196 86.7602 148.268 86.744 148.334 86.7129C148.399 86.6818 148.457 86.6364 148.503 86.5801C152.633 81.7701 155.363 82.5801 155.913 82.8001C154.98 83.3137 154.104 83.9273 153.303 84.6301C148.693 88.7801 145.883 96.6301 146.243 103.17C146.648 107.508 148.22 111.655 150.793 115.17C154.142 112.774 156.918 109.666 158.923 106.07C160.418 103.429 161.753 100.7 162.923 97.9001C162.923 100.83 163.303 104.37 164.843 106.9C165.954 108.898 167.582 110.562 169.556 111.716C171.529 112.87 173.777 113.472 176.063 113.46C176.853 113.471 177.641 113.394 178.413 113.23C178.481 113.213 178.545 113.182 178.6 113.139C178.655 113.096 178.7 113.042 178.733 112.98C182.593 113.8 186.433 113.73 187.023 112.91C187.973 111.6 189.323 107.51 189.773 102.51C190.593 94.0301 185.253 86.6701 179.013 82.8001ZM165.773 106.29C163.833 103.12 163.893 97.9501 164.123 94.9801L164.253 94.6401C164.346 97.6947 165.124 100.689 166.532 103.402C167.939 106.115 169.939 108.476 172.383 110.31C173.734 111.243 175.231 111.943 176.813 112.38C174.363 112.55 169.323 112.08 165.773 106.29Z" fill="#263238"/>
<path d="M165.943 90.5501C165.943 90.5501 165.123 96.6101 172.823 102.55C180.523 108.49 187.823 106.15 187.823 106.15" stroke="white" stroke-width="0.5" stroke-linecap="round" stroke-linejoin="round"/>
<path d="M167.073 88.5501C167.073 88.5501 175.183 100.36 186.383 97.2801" stroke="white" stroke-width="0.5" stroke-linecap="round" stroke-linejoin="round"/>
<path d="M163.063 84.6201C161.784 83.9707 160.352 83.6851 158.921 83.7944C157.491 83.9038 156.119 84.4038 154.953 85.2401C150.643 88.1101 148.483 94.8901 148.483 94.8901" stroke="white" stroke-width="0.5" stroke-linecap="round" stroke-linejoin="round"/>
<path d="M163.273 87.9101C163.273 87.9101 159.783 86.9801 157.623 89.1401C156.571 90.0941 155.67 91.2036 154.953 92.4301" stroke="white" stroke-width="0.5" stroke-linecap="round" stroke-linejoin="round"/>
</svg>
