<svg xmlns="http://www.w3.org/2000/svg" xmlns:xlink="http://www.w3.org/1999/xlink" viewBox="0 0 500 500"><defs><clipPath id="freepik--clip-path--inject-18"><path d="M250.43,155.56c-46.89.66-85,39.11-85.34,86a86.4,86.4,0,0,0,32.26,68,23.69,23.69,0,0,1,7.56,11.14l4,12.37h85.48l4.09-12.62a23,23,0,0,1,7.38-10.8,86.57,86.57,0,0,0-55.45-154.06Z" style="fill:#fff;stroke:#263238;stroke-linecap:round;stroke-linejoin:round"></path></clipPath><clipPath id="freepik--clip-path-2--inject-18"><polygon points="284.06 398.88 219.28 398.88 211.57 343.98 291.77 343.98 284.06 398.88" style="fill:#999;stroke:#263238;stroke-linecap:round;stroke-linejoin:round"></polygon></clipPath><clipPath id="freepik--clip-path-3--inject-18"><path d="M214.68,371.21a2.31,2.31,0,0,1-.17-4.62l74-5.47a2.31,2.31,0,1,1,.34,4.61l-74,5.47Z" style="fill:#bfbfbf;stroke:#263238;stroke-linecap:round;stroke-linejoin:round"></path></clipPath><clipPath id="freepik--clip-path-4--inject-18"><path d="M216,380.13a2.31,2.31,0,0,1-.17-4.62l71.44-5.29a2.31,2.31,0,0,1,.34,4.61l-71.44,5.29Z" style="fill:#bfbfbf;stroke:#263238;stroke-linecap:round;stroke-linejoin:round"></path></clipPath><clipPath id="freepik--clip-path-5--inject-18"><path d="M217.21,389.05a2.31,2.31,0,0,1-.16-4.62l68.9-5.09a2.31,2.31,0,0,1,.34,4.61l-68.9,5.1Z" style="fill:#bfbfbf;stroke:#263238;stroke-linecap:round;stroke-linejoin:round"></path></clipPath><clipPath id="freepik--clip-path-6--inject-18"><path d="M218.48,398a2.31,2.31,0,0,1-.17-4.62l66.37-4.91a2.31,2.31,0,1,1,.34,4.61L218.65,398Z" style="fill:#bfbfbf;stroke:#263238;stroke-linecap:round;stroke-linejoin:round"></path></clipPath><clipPath id="freepik--clip-path-7--inject-18"><polygon points="300.71 326.66 298.17 355 292.23 359.48 211.11 359.48 205.16 355 202.63 326.66 204.39 322.17 298.94 322.17 300.71 326.66" style="fill:#FFE500;stroke:#263238;stroke-linecap:round;stroke-linejoin:round"></polygon></clipPath></defs><g id="freepik--background-simple--inject-18"><path d="M453,379.17c-29.17,45.62-91.05,77.11-199.17,77.11-100.52,0-161.5-27.22-193.59-67.71C-33,271,117.45,41.46,250.54,41.46,380.17,41.46,529.69,259.2,453,379.17Z" style="fill:#FFE500"></path><path d="M453,379.17c-29.17,45.62-91.05,77.11-199.17,77.11-100.52,0-161.5-27.22-193.59-67.71C-33,271,117.45,41.46,250.54,41.46,380.17,41.46,529.69,259.2,453,379.17Z" style="fill:#fff;opacity:0.7000000000000001"></path></g><g id="freepik--Buildings--inject-18"><path d="M453,378.44v.73c-29.17,45.62-91.05,77.11-199.17,77.11-100.52,0-161.5-27.22-193.59-67.71v-17H71.84v11.08h6.85v12.66H92.48V371.58h8.75V352.85h15.13V327.27l2.57-2.56v28.15h5.22v30.33h6.09V418h8.06V393.21l13-13V355.5l3.62,3.61v35.15l4.33,4.34v12H174.5V396.9H169v-3.69h5.51v-5.28h14.43V371.36h3.7v16.57H199V423.8h17.21V410.62l10-10h8.09V382.13H239v18.46h5.78l10.07,10.08V423.8h13.25V399.54h12.2l14-14v-19.3h3.95v20.61l12.63,12.63h17.09v14.27h10.35V383.71h13.13V348h-2.44V334.19h2.44v-9.48h3.87v32.13l5.55,5.54v22.39h13.45v5.8h15V365h6.85v-26h2.27v26h9.44L419,376.25v9.57h9.42V370.53H443.7v7.91Z" style="fill:#FFE500;opacity:0.4"></path><rect x="105.12" y="356.07" width="6.23" height="6.23" style="fill:#fff"></rect><rect x="112.97" y="356.07" width="6.23" height="6.23" style="fill:#fff"></rect><rect x="105.12" y="364.03" width="6.23" height="6.23" style="fill:#fff"></rect><rect x="112.97" y="364.03" width="6.23" height="6.23" style="fill:#fff"></rect><rect x="105.12" y="371.98" width="6.23" height="6.23" style="fill:#fff"></rect><rect x="112.97" y="371.98" width="6.23" height="6.23" style="fill:#fff"></rect><rect x="105.12" y="379.94" width="6.23" height="6.23" style="fill:#fff"></rect><rect x="112.97" y="379.94" width="6.23" height="6.23" style="fill:#fff"></rect><rect x="105.12" y="387.9" width="6.23" height="6.23" style="fill:#fff"></rect><rect x="112.97" y="387.9" width="6.23" height="6.23" style="fill:#fff"></rect><rect x="105.12" y="395.86" width="6.23" height="6.23" style="fill:#fff"></rect><rect x="105.12" y="403.82" width="6.23" height="6.23" style="fill:#fff"></rect><rect x="112.97" y="403.82" width="6.23" height="6.23" style="fill:#fff"></rect><rect x="105.12" y="411.78" width="6.23" height="6.23" style="fill:#fff"></rect><rect x="112.97" y="411.78" width="6.23" height="6.23" style="fill:#fff"></rect><rect x="105.12" y="419.74" width="6.23" height="6.23" style="fill:#fff"></rect><rect x="112.97" y="419.74" width="6.23" height="6.23" style="fill:#fff"></rect><rect x="120.81" y="387.9" width="6.23" height="6.23" style="fill:#fff"></rect><rect x="120.81" y="395.86" width="6.23" height="6.23" style="fill:#fff"></rect><rect x="120.81" y="403.82" width="6.23" height="6.23" style="fill:#fff"></rect><rect x="120.81" y="419.74" width="6.23" height="6.23" style="fill:#fff"></rect><rect x="97.27" y="379.94" width="6.23" height="6.23" style="fill:#fff"></rect><rect x="97.27" y="387.9" width="6.23" height="6.23" style="fill:#fff"></rect><rect x="97.27" y="395.86" width="6.23" height="6.23" style="fill:#fff"></rect><rect x="97.27" y="403.82" width="6.23" height="6.23" style="fill:#fff"></rect><rect x="147.81" y="385.98" width="4.99" height="6.23" style="fill:#fff"></rect><rect x="147.81" y="393.85" width="4.99" height="6.23" style="fill:#fff"></rect><rect x="147.81" y="401.71" width="4.99" height="6.23" style="fill:#fff"></rect><rect x="147.81" y="409.57" width="4.99" height="6.23" style="fill:#fff"></rect><rect x="147.81" y="417.43" width="4.99" height="6.23" style="fill:#fff"></rect><rect x="147.81" y="425.29" width="4.99" height="6.23" style="fill:#fff"></rect><rect x="141.27" y="393.89" width="4.99" height="6.23" style="fill:#fff"></rect><rect x="141.27" y="401.75" width="4.99" height="6.23" style="fill:#fff"></rect><rect x="141.27" y="409.6" width="4.99" height="6.23" style="fill:#fff"></rect><rect x="141.27" y="417.46" width="4.99" height="6.23" style="fill:#fff"></rect><rect x="141.27" y="425.31" width="4.99" height="6.23" style="fill:#fff"></rect><rect x="141.27" y="433.17" width="4.99" height="6.23" style="fill:#fff"></rect><rect x="70.01" y="386.85" width="4.99" height="6.23" style="fill:#fff"></rect><rect x="70.01" y="394.81" width="4.99" height="6.23" style="fill:#fff"></rect><rect x="70.01" y="402.77" width="4.99" height="6.23" style="fill:#fff"></rect><rect x="70.01" y="418.68" width="4.99" height="6.23" style="fill:#fff"></rect><rect x="70.01" y="426.64" width="4.99" height="6.23" style="fill:#fff"></rect><rect x="63.47" y="386.85" width="4.99" height="6.23" style="fill:#fff"></rect><rect x="63.47" y="394.81" width="4.99" height="6.23" style="fill:#fff"></rect><rect x="63.47" y="402.77" width="4.99" height="6.23" style="fill:#fff"></rect><rect x="63.47" y="410.72" width="4.99" height="6.23" style="fill:#fff"></rect><rect x="63.47" y="418.68" width="4.99" height="6.23" style="fill:#fff"></rect><rect x="183.91" y="390.94" width="5.44" height="6.23" style="fill:#fff"></rect><rect x="190.76" y="390.94" width="5.44" height="6.23" style="fill:#fff"></rect><rect x="183.91" y="398.79" width="5.44" height="6.23" style="fill:#fff"></rect><rect x="190.76" y="398.79" width="5.44" height="6.23" style="fill:#fff"></rect><rect x="183.91" y="406.64" width="5.44" height="6.23" style="fill:#fff"></rect><rect x="190.76" y="406.64" width="5.44" height="6.23" style="fill:#fff"></rect><rect x="183.91" y="414.49" width="5.44" height="6.23" style="fill:#fff"></rect><rect x="190.76" y="414.49" width="5.44" height="6.23" style="fill:#fff"></rect><rect x="183.91" y="422.34" width="5.44" height="6.23" style="fill:#fff"></rect><rect x="190.76" y="422.34" width="5.44" height="6.23" style="fill:#fff"></rect><rect x="183.91" y="430.19" width="5.44" height="6.23" style="fill:#fff"></rect><rect x="190.76" y="430.19" width="5.44" height="6.23" style="fill:#fff"></rect><rect x="177.07" y="390.94" width="5.44" height="6.23" style="fill:#fff"></rect><rect x="177.07" y="398.79" width="5.44" height="6.23" style="fill:#fff"></rect><rect x="177.07" y="406.64" width="5.44" height="6.23" style="fill:#fff"></rect><rect x="177.07" y="414.49" width="5.44" height="6.23" style="fill:#fff"></rect><rect x="228.79" y="410.7" width="6.23" height="6.23" style="fill:#fff"></rect><rect x="236.64" y="410.7" width="6.23" height="6.23" style="fill:#fff"></rect><rect x="228.79" y="418.51" width="6.23" height="6.23" style="fill:#fff"></rect><rect x="236.64" y="418.51" width="6.23" height="6.23" style="fill:#fff"></rect><rect x="228.79" y="426.32" width="6.23" height="6.23" style="fill:#fff"></rect><rect x="236.64" y="426.32" width="6.23" height="6.23" style="fill:#fff"></rect><rect x="228.79" y="434.12" width="6.23" height="6.23" style="fill:#fff"></rect><rect x="236.64" y="434.12" width="6.23" height="6.23" style="fill:#fff"></rect><rect x="228.79" y="441.93" width="6.23" height="6.23" style="fill:#fff"></rect><rect x="236.64" y="441.93" width="6.23" height="6.23" style="fill:#fff"></rect><rect x="244.48" y="410.7" width="6.23" height="6.23" style="fill:#fff"></rect><rect x="244.48" y="418.51" width="6.23" height="6.23" style="fill:#fff"></rect><rect x="244.48" y="434.12" width="6.23" height="6.23" style="fill:#fff"></rect><rect x="244.48" y="441.93" width="6.23" height="6.23" style="fill:#fff"></rect><rect x="220.95" y="410.7" width="6.23" height="6.23" style="fill:#fff"></rect><rect x="220.95" y="418.51" width="6.23" height="6.23" style="fill:#fff"></rect><rect x="220.95" y="426.32" width="6.23" height="6.23" style="fill:#fff"></rect><rect x="349.58" y="387.9" width="6.23" height="6.23" style="fill:#fff"></rect><rect x="357.43" y="387.9" width="6.23" height="6.23" style="fill:#fff"></rect><rect x="349.58" y="395.88" width="6.23" height="6.23" style="fill:#fff"></rect><rect x="357.43" y="395.88" width="6.23" height="6.23" style="fill:#fff"></rect><rect x="349.58" y="403.85" width="6.23" height="6.23" style="fill:#fff"></rect><rect x="357.43" y="403.85" width="6.23" height="6.23" style="fill:#fff"></rect><rect x="349.58" y="411.83" width="6.23" height="6.23" style="fill:#fff"></rect><rect x="357.43" y="411.83" width="6.23" height="6.23" style="fill:#fff"></rect><rect x="349.58" y="419.81" width="6.23" height="6.23" style="fill:#fff"></rect><rect x="357.43" y="419.81" width="6.23" height="6.23" style="fill:#fff"></rect><rect x="365.28" y="387.9" width="6.23" height="6.23" style="fill:#fff"></rect><rect x="365.28" y="395.88" width="6.23" height="6.23" style="fill:#fff"></rect><rect x="365.28" y="419.81" width="6.23" height="6.23" style="fill:#fff"></rect><rect x="393.1" y="377.14" width="6.23" height="6.23" style="fill:#fff"></rect><rect x="400.95" y="377.14" width="6.23" height="6.23" style="fill:#fff"></rect><rect x="393.1" y="385.12" width="6.23" height="6.23" style="fill:#fff"></rect><rect x="400.95" y="385.12" width="6.23" height="6.23" style="fill:#fff"></rect><rect x="393.1" y="393.09" width="6.23" height="6.23" style="fill:#fff"></rect><rect x="400.95" y="393.09" width="6.23" height="6.23" style="fill:#fff"></rect><rect x="393.1" y="401.07" width="6.23" height="6.23" style="fill:#fff"></rect><rect x="400.95" y="401.07" width="6.23" height="6.23" style="fill:#fff"></rect><rect x="393.1" y="409.05" width="6.23" height="6.23" style="fill:#fff"></rect><rect x="400.95" y="409.05" width="6.23" height="6.23" style="fill:#fff"></rect><rect x="408.79" y="377.14" width="6.23" height="6.23" style="fill:#fff"></rect><rect x="408.79" y="385.12" width="6.23" height="6.23" style="fill:#fff"></rect><rect x="408.79" y="393.09" width="6.23" height="6.23" style="fill:#fff"></rect><rect x="408.79" y="401.07" width="6.23" height="6.23" style="fill:#fff"></rect><rect x="408.79" y="409.05" width="6.23" height="6.23" style="fill:#fff"></rect><rect x="431.06" y="381.25" width="5.23" height="6.23" style="fill:#fff"></rect><rect x="437.91" y="381.25" width="5.23" height="6.23" style="fill:#fff"></rect><rect x="431.06" y="389.21" width="5.23" height="6.23" style="fill:#fff"></rect><rect x="437.91" y="389.21" width="5.23" height="6.23" style="fill:#fff"></rect><rect x="431.06" y="397.17" width="5.23" height="6.23" style="fill:#fff"></rect><rect x="437.91" y="397.17" width="5.23" height="6.23" style="fill:#fff"></rect><rect x="437.91" y="405.13" width="5.23" height="6.23" style="fill:#fff"></rect><rect x="431.06" y="413.09" width="5.23" height="6.23" style="fill:#fff"></rect><rect x="444.76" y="381.25" width="5.23" height="6.23" style="fill:#fff"></rect><rect x="444.76" y="405.13" width="5.23" height="6.23" style="fill:#fff"></rect><rect x="341.74" y="387.9" width="6.23" height="6.23" style="fill:#fff"></rect><rect x="341.74" y="395.88" width="6.23" height="6.23" style="fill:#fff"></rect><rect x="341.74" y="403.85" width="6.23" height="6.23" style="fill:#fff"></rect><rect x="341.74" y="411.83" width="6.23" height="6.23" style="fill:#fff"></rect><rect x="302.7" y="411.72" width="6.23" height="6.23" style="fill:#fff"></rect><rect x="295.06" y="411.72" width="6.23" height="6.23" style="fill:#fff"></rect><rect x="287.43" y="411.72" width="6.23" height="6.23" style="fill:#fff"></rect><rect x="279.79" y="411.72" width="6.23" height="6.23" style="fill:#fff"></rect><rect x="272.15" y="411.72" width="6.23" height="6.23" style="fill:#fff"></rect><rect x="310.34" y="411.72" width="6.23" height="6.23" style="fill:#fff"></rect><rect x="317.98" y="411.72" width="6.23" height="6.23" style="fill:#fff"></rect><rect x="302.7" y="419.66" width="6.23" height="6.23" style="fill:#fff"></rect><rect x="295.06" y="419.66" width="6.23" height="6.23" style="fill:#fff"></rect><rect x="287.43" y="419.66" width="6.23" height="6.23" style="fill:#fff"></rect><rect x="279.79" y="419.66" width="6.23" height="6.23" style="fill:#fff"></rect><rect x="272.15" y="419.66" width="6.23" height="6.23" style="fill:#fff"></rect><rect x="310.34" y="419.66" width="6.23" height="6.23" style="fill:#fff"></rect><rect x="317.98" y="419.66" width="6.23" height="6.23" style="fill:#fff"></rect><rect x="302.7" y="427.61" width="6.23" height="6.23" style="fill:#fff"></rect><rect x="295.06" y="427.61" width="6.23" height="6.23" style="fill:#fff"></rect><rect x="287.43" y="427.61" width="6.23" height="6.23" style="fill:#fff"></rect><rect x="279.79" y="427.61" width="6.23" height="6.23" style="fill:#fff"></rect><rect x="310.34" y="427.61" width="6.23" height="6.23" style="fill:#fff"></rect><rect x="302.7" y="435.55" width="6.23" height="6.23" style="fill:#fff"></rect><rect x="295.06" y="435.55" width="6.23" height="6.23" style="fill:#fff"></rect><rect x="279.79" y="435.55" width="6.23" height="6.23" style="fill:#fff"></rect><rect x="310.34" y="435.55" width="6.23" height="6.23" style="fill:#fff"></rect><rect x="302.7" y="443.49" width="6.23" height="6.23" style="fill:#fff"></rect><rect x="295.06" y="443.49" width="6.23" height="6.23" style="fill:#fff"></rect><rect x="287.43" y="443.49" width="6.23" height="6.23" style="fill:#fff"></rect><rect x="279.79" y="443.49" width="6.23" height="6.23" style="fill:#fff"></rect><rect x="272.15" y="443.49" width="6.23" height="6.23" style="fill:#fff"></rect><rect x="310.34" y="443.49" width="6.23" height="6.23" style="fill:#fff"></rect><rect x="317.98" y="443.49" width="6.23" height="6.23" style="fill:#fff"></rect><rect x="302.7" y="451.43" width="6.23" height="6.23" style="fill:#fff"></rect><rect x="287.43" y="451.43" width="6.23" height="6.23" style="fill:#fff"></rect><rect x="279.79" y="451.43" width="6.23" height="6.23" style="fill:#fff"></rect><rect x="272.15" y="451.43" width="6.23" height="6.23" style="fill:#fff"></rect><rect x="302.7" y="459.38" width="6.23" height="6.23" style="fill:#fff"></rect><rect x="279.79" y="459.38" width="6.23" height="6.23" style="fill:#fff"></rect><rect x="317.98" y="459.38" width="6.23" height="6.23" style="fill:#fff"></rect><rect x="302.7" y="403.78" width="6.23" height="6.23" style="fill:#fff"></rect><rect x="295.06" y="403.78" width="6.23" height="6.23" style="fill:#fff"></rect><rect x="287.43" y="403.78" width="6.23" height="6.23" style="fill:#fff"></rect><rect x="279.79" y="403.78" width="6.23" height="6.23" style="fill:#fff"></rect><rect x="272.15" y="403.78" width="6.23" height="6.23" style="fill:#fff"></rect><rect x="310.34" y="403.78" width="6.23" height="6.23" style="fill:#fff"></rect><rect x="317.98" y="403.78" width="6.23" height="6.23" style="fill:#fff"></rect><rect x="400.95" y="417.02" width="6.23" height="6.23" style="fill:#fff"></rect><rect x="400.95" y="425" width="6.23" height="6.23" style="fill:#fff"></rect><rect x="393.1" y="432.97" width="6.23" height="6.23" style="fill:#fff"></rect><rect x="408.79" y="417.02" width="6.23" height="6.23" style="fill:#fff"></rect><rect x="408.79" y="425" width="6.23" height="6.23" style="fill:#fff"></rect><rect x="357.43" y="427.78" width="6.23" height="6.23" style="fill:#fff"></rect><rect x="349.58" y="435.76" width="6.23" height="6.23" style="fill:#fff"></rect><rect x="357.43" y="435.76" width="6.23" height="6.23" style="fill:#fff"></rect><rect x="349.58" y="443.74" width="6.23" height="6.23" style="fill:#fff"></rect><rect x="357.43" y="443.74" width="6.23" height="6.23" style="fill:#fff"></rect><rect x="365.28" y="427.78" width="6.23" height="6.23" style="fill:#fff"></rect><rect x="365.28" y="435.76" width="6.23" height="6.23" style="fill:#fff"></rect><rect x="341.74" y="427.78" width="6.23" height="6.23" style="fill:#fff"></rect><rect x="228.79" y="449.73" width="6.23" height="6.23" style="fill:#fff"></rect><rect x="236.64" y="449.73" width="6.23" height="6.23" style="fill:#fff"></rect><rect x="228.79" y="457.54" width="6.23" height="6.23" style="fill:#fff"></rect><rect x="220.95" y="449.73" width="6.23" height="6.23" style="fill:#fff"></rect><rect x="183.91" y="438.04" width="5.44" height="6.23" style="fill:#fff"></rect><rect x="190.76" y="438.04" width="5.44" height="6.23" style="fill:#fff"></rect><rect x="190.76" y="445.89" width="5.44" height="6.23" style="fill:#fff"></rect><rect x="177.07" y="438.04" width="5.44" height="6.23" style="fill:#fff"></rect><rect x="177.07" y="453.74" width="5.44" height="6.23" style="fill:#fff"></rect><rect x="147.81" y="448.87" width="4.99" height="6.23" style="fill:#fff"></rect><rect x="147.81" y="456.74" width="4.99" height="6.23" style="fill:#fff"></rect><rect x="141.27" y="441.03" width="4.99" height="6.23" style="fill:#fff"></rect><rect x="141.27" y="448.88" width="4.99" height="6.23" style="fill:#fff"></rect><rect x="112.97" y="427.78" width="6.23" height="6.23" style="fill:#fff"></rect><rect x="105.12" y="435.74" width="6.23" height="6.23" style="fill:#fff"></rect></g><g id="freepik--Lines--inject-18"><path d="M253.84,84.08c0-1.23,0-2.46-.05-3.69" style="fill:none;stroke:#263238;stroke-linecap:round;stroke-linejoin:round"></path><path d="M253.79,120.86q.17-11.33.14-22.66" style="fill:none;stroke:#263238;stroke-linecap:round;stroke-linejoin:round"></path><path d="M253.79,140.94v-6.4" style="fill:none;stroke:#263238;stroke-linecap:round;stroke-linejoin:round"></path><path d="M305.29,94.08c1-2.21,2-4.41,3.09-6.58" style="fill:none;stroke:#263238;stroke-linecap:round;stroke-linejoin:round"></path><path d="M290.89,128.3c4.11-8.9,7.57-18.07,11.34-27.11" style="fill:none;stroke:#263238;stroke-linecap:round;stroke-linejoin:round"></path><path d="M282.76,147.27q2.65-6.2,5.3-12.37" style="fill:none;stroke:#263238;stroke-linecap:round;stroke-linejoin:round"></path><line x1="275.44" y1="140.94" x2="286.12" y2="102.99" style="fill:none;stroke:#263238;stroke-linecap:round;stroke-linejoin:round"></line><path d="M214.11,110.35c3.64,11.36,6.73,22.93,10.41,34.11" style="fill:none;stroke:#263238;stroke-linecap:round;stroke-linejoin:round"></path><path d="M207.14,87.5q2.45,8,4.88,16" style="fill:none;stroke:#263238;stroke-linecap:round;stroke-linejoin:round"></path><path d="M215.7,143.94l1.5,3.33" style="fill:none;stroke:#263238;stroke-linecap:round;stroke-linejoin:round"></path><path d="M205.31,120.86l7.58,16.83" style="fill:none;stroke:#263238;stroke-linecap:round;stroke-linejoin:round"></path><path d="M162.64,161.49c3.86,4.46,7.69,8.95,11.42,13.53" style="fill:none;stroke:#263238;stroke-linecap:round;stroke-linejoin:round"></path><path d="M145.4,141.1c4,5.07,8.27,10,12.51,14.92" style="fill:none;stroke:#263238;stroke-linecap:round;stroke-linejoin:round"></path><path d="M137.46,131.72l3,3.59" style="fill:none;stroke:#263238;stroke-linecap:round;stroke-linejoin:round"></path><line x1="147.37" y1="160.79" x2="167.8" y2="180.51" style="fill:none;stroke:#263238;stroke-linecap:round;stroke-linejoin:round"></line><path d="M149.54,225.57l6.22,1.59" style="fill:none;stroke:#263238;stroke-linecap:round;stroke-linejoin:round"></path><path d="M105.05,214.2,143.24,224" style="fill:none;stroke:#263238;stroke-linecap:round;stroke-linejoin:round"></path><path d="M93.7,211.3l4.13,1.06" style="fill:none;stroke:#263238;stroke-linecap:round;stroke-linejoin:round"></path><path d="M141.23,212.66l14.53,6.57" style="fill:none;stroke:#263238;stroke-linecap:round;stroke-linejoin:round"></path><path d="M124.73,205.21l10,4.52" style="fill:none;stroke:#263238;stroke-linecap:round;stroke-linejoin:round"></path><path d="M378.16,136.13l2.49-2.06" style="fill:none;stroke:#263238;stroke-linecap:round;stroke-linejoin:round"></path><path d="M366.56,145.75l5.8-4.81" style="fill:none;stroke:#263238;stroke-linecap:round;stroke-linejoin:round"></path><path d="M342.69,165.53l18.1-15" style="fill:none;stroke:#263238;stroke-linecap:round;stroke-linejoin:round"></path><path d="M327.89,177.79l9.32-7.72" style="fill:none;stroke:#263238;stroke-linecap:round;stroke-linejoin:round"></path><line x1="330.03" y1="131.72" x2="309.9" y2="159.47" style="fill:none;stroke:#263238;stroke-linecap:round;stroke-linejoin:round"></line><path d="M409.82,195.55l4.37-1.32" style="fill:none;stroke:#263238;stroke-linecap:round;stroke-linejoin:round"></path><path d="M369.14,207.87c11.39-3.33,22.82-6.53,34.07-10.31" style="fill:none;stroke:#263238;stroke-linecap:round;stroke-linejoin:round"></path><path d="M348.93,214.05c4.36-1.43,8.75-2.78,13.15-4.1" style="fill:none;stroke:#263238;stroke-linecap:round;stroke-linejoin:round"></path><line x1="351.37" y1="225.03" x2="388.57" y2="220.17" style="fill:none;stroke:#263238;stroke-linecap:round;stroke-linejoin:round"></line><path d="M405,289.6l5.54,1.78" style="fill:none;stroke:#263238;stroke-linecap:round;stroke-linejoin:round"></path><path d="M350.15,272c16.37,4.63,31.78,10.79,48.17,15.44" style="fill:none;stroke:#263238;stroke-linecap:round;stroke-linejoin:round"></path><path d="M375.59,269l21.83,3" style="fill:none;stroke:#263238;stroke-linecap:round;stroke-linejoin:round"></path><path d="M351.37,265.6,368.2,268" style="fill:none;stroke:#263238;stroke-linecap:round;stroke-linejoin:round"></path><path d="M367.07,357.51l2.81,3.51" style="fill:none;stroke:#263238;stroke-linecap:round;stroke-linejoin:round"></path><path d="M327.89,308.52c11.65,14.37,23.21,29,35,43.73" style="fill:none;stroke:#263238;stroke-linecap:round;stroke-linejoin:round"></path><path d="M345.11,316.33q5.07,4.94,10.13,9.88" style="fill:none;stroke:#263238;stroke-linecap:round;stroke-linejoin:round"></path><path d="M332.47,304l8.42,8.21" style="fill:none;stroke:#263238;stroke-linecap:round;stroke-linejoin:round"></path><path d="M151.12,358.05l-2.22,3.06" style="fill:none;stroke:#263238;stroke-linecap:round;stroke-linejoin:round"></path><path d="M164.82,339.29c-3.14,4.41-6.32,8.8-9.59,13.12" style="fill:none;stroke:#263238;stroke-linecap:round;stroke-linejoin:round"></path><path d="M184,312.93c-5.19,6.67-10.09,13.57-15,20.47" style="fill:none;stroke:#263238;stroke-linecap:round;stroke-linejoin:round"></path><path d="M166.08,318.3l-11.39,10.24" style="fill:none;stroke:#263238;stroke-linecap:round;stroke-linejoin:round"></path><path d="M177.86,307.71l-6.73,6.05" style="fill:none;stroke:#263238;stroke-linecap:round;stroke-linejoin:round"></path><path d="M119.38,294.23l-13.17,6.57" style="fill:none;stroke:#263238;stroke-linecap:round;stroke-linejoin:round"></path><path d="M159,274.5c-10.58,5.23-22.14,10.62-33.3,16.6" style="fill:none;stroke:#263238;stroke-linecap:round;stroke-linejoin:round"></path><line x1="155.76" y1="258.49" x2="126.94" y2="263.52" style="fill:none;stroke:#263238;stroke-linecap:round;stroke-linejoin:round"></line><line x1="338.24" y1="194.23" x2="355.24" y2="183.86" style="fill:none;stroke:#263238;stroke-linecap:round;stroke-linejoin:round"></line><line x1="182.74" y1="143" x2="193.11" y2="159.47" style="fill:none;stroke:#263238;stroke-linecap:round;stroke-linejoin:round"></line><path d="M318.74,333.86l6.41,13.64" style="fill:none;stroke:#263238;stroke-linecap:round;stroke-linejoin:round"></path><path d="M313.26,322.17c.89,1.9,1.79,3.81,2.68,5.72" style="fill:none;stroke:#263238;stroke-linecap:round;stroke-linejoin:round"></path><path d="M373.08,300.05l3.6,2.12" style="fill:none;stroke:#263238;stroke-linecap:round;stroke-linejoin:round"></path><path d="M346.74,284.5l20.2,11.92" style="fill:none;stroke:#263238;stroke-linecap:round;stroke-linejoin:round"></path><path d="M396.05,249.57h9.6" style="fill:none;stroke:#263238;stroke-linecap:round;stroke-linejoin:round"></path><path d="M354.27,249.57c11.48.1,23,.1,34.93,0" style="fill:none;stroke:#263238;stroke-linecap:round;stroke-linejoin:round"></path><path d="M110,250l-17.51.29" style="fill:none;stroke:#263238;stroke-linecap:round;stroke-linejoin:round"></path><path d="M144.12,249.49c-9.25.19-18.5.23-27.76.35" style="fill:none;stroke:#263238;stroke-linecap:round;stroke-linejoin:round"></path><path d="M154.69,249.21l-3.74.12" style="fill:none;stroke:#263238;stroke-linecap:round;stroke-linejoin:round"></path><path d="M138,178.12l-14.39-9.23" style="fill:none;stroke:#263238;stroke-linecap:round;stroke-linejoin:round"></path><path d="M163.13,194.23l-18.87-12.09" style="fill:none;stroke:#263238;stroke-linecap:round;stroke-linejoin:round"></path></g><g id="freepik--light-bulb--inject-18"><path d="M250.43,155.56c-46.89.66-85,39.11-85.34,86a86.4,86.4,0,0,0,32.26,68,23.69,23.69,0,0,1,7.56,11.14l4,12.37h85.48l4.09-12.62a23,23,0,0,1,7.38-10.8,86.57,86.57,0,0,0-55.45-154.06Z" style="fill:#fff"></path><g style="clip-path:url(#freepik--clip-path--inject-18)"><path d="M230.6,325.91c.05,2.17,0,3.4,0,3.4" style="fill:none;stroke:#263238;stroke-linecap:round;stroke-linejoin:round"></path><path d="M228.5,299.42c1.07,7.86,1.61,15.05,1.88,20.41" style="fill:none;stroke:#263238;stroke-linecap:round;stroke-linejoin:round"></path><path d="M220.79,255.47h-6.08C221,265,224.8,278.13,227.1,290.69" style="fill:none;stroke:#263238;stroke-linecap:round;stroke-linejoin:round"></path><polyline points="232.89 252.98 232.18 255.47 222.84 255.47" style="fill:none;stroke:#263238;stroke-linecap:round;stroke-linejoin:round"></polyline><polyline points="239.57 260.05 238.76 262.79 234.09 248.76 233.35 251.35" style="fill:none;stroke:#263238;stroke-linecap:round;stroke-linejoin:round"></polyline><polyline points="249.22 256.74 247.37 262.79 242.88 248.76 240.47 256.98" style="fill:none;stroke:#263238;stroke-linecap:round;stroke-linejoin:round"></polyline><polyline points="262.33 255.15 260.46 248.76 255.97 262.79 251.67 248.76 250.41 252.87" style="fill:none;stroke:#263238;stroke-linecap:round;stroke-linejoin:round"></polyline><polyline points="273.92 255.47 271.15 255.47 269.25 248.76 264.57 262.79 263.1 257.76" style="fill:none;stroke:#263238;stroke-linecap:round;stroke-linejoin:round"></polyline><path d="M277.55,284.21c2.36-10.47,5.86-20.85,11.07-28.74h-11.8" style="fill:none;stroke:#263238;stroke-linecap:round;stroke-linejoin:round"></path><path d="M275,298.12c.48-3.37,1.07-6.86,1.77-10.36" style="fill:none;stroke:#263238;stroke-linecap:round;stroke-linejoin:round"></path><path d="M273.27,314.62c.25-3.52.61-7.49,1.12-11.73" style="fill:none;stroke:#263238;stroke-linecap:round;stroke-linejoin:round"></path><path d="M272.85,322.17c0-.92.09-1.92.14-3" style="fill:none;stroke:#263238;stroke-linecap:round;stroke-linejoin:round"></path><path d="M272.7,329.31s0-1.64.06-4.47" style="fill:none;stroke:#263238;stroke-linecap:round;stroke-linejoin:round"></path><path d="M250.43,155.56c-46.89.66-85,39.11-85.34,86a86.4,86.4,0,0,0,32.26,68,23.69,23.69,0,0,1,7.56,11.14l4,12.37h85.48l4.09-12.62a23,23,0,0,1,7.38-10.8,86.57,86.57,0,0,0-55.45-154.06Zm1.24,141.7A66.28,66.28,0,1,1,317.94,231,66.27,66.27,0,0,1,251.67,297.26Z" style="fill:#FFE500;opacity:0.2"></path></g><path d="M250.43,155.56c-46.89.66-85,39.11-85.34,86a86.4,86.4,0,0,0,32.26,68,23.69,23.69,0,0,1,7.56,11.14l4,12.37h85.48l4.09-12.62a23,23,0,0,1,7.38-10.8,86.57,86.57,0,0,0-55.45-154.06Z" style="fill:none;stroke:#263238;stroke-linecap:round;stroke-linejoin:round"></path><path d="M261.68,416.27h-20a2.8,2.8,0,0,1-2.44-1.42l-3-5.28-11.57-6.71h54.13l-11.56,6.71-3,5.28A2.83,2.83,0,0,1,261.68,416.27Z" style="fill:#263238;stroke:#263238;stroke-linecap:round;stroke-linejoin:round"></path><path d="M284.06,398.88H219.28a14.09,14.09,0,0,0,12.69,8h39.39a14.11,14.11,0,0,0,12.7-8Z" style="fill:#757575;stroke:#263238;stroke-linecap:round;stroke-linejoin:round"></path><polygon points="284.06 398.88 219.28 398.88 211.57 343.98 291.77 343.98 284.06 398.88" style="fill:#999"></polygon><g style="clip-path:url(#freepik--clip-path-2--inject-18)"><polygon points="222.6 380.82 223.31 387.11 280.52 382.68 281.25 376.16 222.6 380.82" style="fill:#fff;opacity:0.4"></polygon><path d="M244.15,397H274a5.48,5.48,0,0,0,4.74-2.75Z" style="fill:#fff;opacity:0.4"></path><path d="M223.61,389.78l.26,2.35a5.47,5.47,0,0,0,2,3.62l53.67-4.16.71-6.31Z" style="fill:#fff;opacity:0.4"></path><polygon points="282.55 364.63 282.77 362.65 251.16 362.65 249.86 362.65 220.57 362.65 221.32 369.38 282.55 364.63" style="fill:#fff;opacity:0.4"></polygon><polygon points="221.62 372.05 222.31 378.14 281.55 373.55 282.25 367.24 221.62 372.05" style="fill:#fff;opacity:0.4"></polygon></g><polygon points="284.06 398.88 219.28 398.88 211.57 343.98 291.77 343.98 284.06 398.88" style="fill:none;stroke:#263238;stroke-linecap:round;stroke-linejoin:round"></polygon><path d="M214.68,371.21a2.31,2.31,0,0,1-.17-4.62l74-5.47a2.31,2.31,0,1,1,.34,4.61l-74,5.47Z" style="fill:#bfbfbf"></path><g style="clip-path:url(#freepik--clip-path-3--inject-18)"><g style="opacity:0.4"><path d="M290.69,362.36a2.27,2.27,0,0,1-1.87,1.23l-74,5.47h-.17a1.38,1.38,0,1,1-.17-2.48l74-5.47A2.3,2.3,0,0,1,290.69,362.36Z" style="fill:#fff"></path></g></g><path d="M214.68,371.21a2.31,2.31,0,0,1-.17-4.62l74-5.47a2.31,2.31,0,1,1,.34,4.61l-74,5.47Z" style="fill:none;stroke:#263238;stroke-linecap:round;stroke-linejoin:round"></path><path d="M216,380.13a2.31,2.31,0,0,1-.17-4.62l71.44-5.29a2.31,2.31,0,0,1,.34,4.61l-71.44,5.29Z" style="fill:#bfbfbf"></path><g style="clip-path:url(#freepik--clip-path-4--inject-18)"><g style="opacity:0.4"><path d="M289.43,371.46a2.27,2.27,0,0,1-1.87,1.23L216.12,378H216a1.38,1.38,0,1,1-.17-2.48l71.44-5.29A2.33,2.33,0,0,1,289.43,371.46Z" style="fill:#fff"></path></g></g><path d="M216,380.13a2.31,2.31,0,0,1-.17-4.62l71.44-5.29a2.31,2.31,0,0,1,.34,4.61l-71.44,5.29Z" style="fill:none;stroke:#263238;stroke-linecap:round;stroke-linejoin:round"></path><path d="M217.21,389.05a2.31,2.31,0,0,1-.16-4.62l68.9-5.09a2.31,2.31,0,0,1,.34,4.61l-68.9,5.1Z" style="fill:#bfbfbf"></path><g style="clip-path:url(#freepik--clip-path-5--inject-18)"><g style="opacity:0.4"><path d="M288.16,380.58a2.24,2.24,0,0,1-1.87,1.23l-68.9,5.1h-.18a1.38,1.38,0,1,1-.17-2.49l68.9-5.09A2.31,2.31,0,0,1,288.16,380.58Z" style="fill:#fff"></path></g></g><path d="M217.21,389.05a2.31,2.31,0,0,1-.16-4.62l68.9-5.09a2.31,2.31,0,0,1,.34,4.61l-68.9,5.1Z" style="fill:none;stroke:#263238;stroke-linecap:round;stroke-linejoin:round"></path><path d="M218.48,398a2.31,2.31,0,0,1-.17-4.62l66.37-4.91a2.31,2.31,0,1,1,.34,4.61L218.65,398Z" style="fill:#bfbfbf"></path><g style="clip-path:url(#freepik--clip-path-6--inject-18)"><g style="opacity:0.4"><path d="M286.9,389.68a2.29,2.29,0,0,1-1.87,1.24l-66.38,4.91h-.17a1.38,1.38,0,1,1-.17-2.48l66.37-4.91A2.32,2.32,0,0,1,286.9,389.68Z" style="fill:#fff"></path></g></g><path d="M218.48,398a2.31,2.31,0,0,1-.17-4.62l66.37-4.91a2.31,2.31,0,1,1,.34,4.61L218.65,398Z" style="fill:none;stroke:#263238;stroke-linecap:round;stroke-linejoin:round"></path><polygon points="300.71 326.66 298.17 355 292.23 359.48 211.11 359.48 205.16 355 202.63 326.66 204.39 322.17 298.94 322.17 300.71 326.66" style="fill:#FFE500"></polygon><g style="clip-path:url(#freepik--clip-path-7--inject-18)"><polygon points="298.17 355 292.23 359.48 211.11 359.48 205.16 355 298.17 355" style="fill-opacity:0.7000000000000001;opacity:0.2"></polygon><polygon points="300.71 326.66 202.63 326.66 204.39 322.17 298.94 322.17 300.71 326.66" style="fill:#fff;opacity:0.4"></polygon></g><polygon points="300.71 326.66 298.17 355 292.23 359.48 211.11 359.48 205.16 355 202.63 326.66 204.39 322.17 298.94 322.17 300.71 326.66" style="fill:none;stroke:#263238;stroke-linecap:round;stroke-linejoin:round"></polygon><line x1="202.63" y1="326.66" x2="238.95" y2="326.66" style="fill:none;stroke:#263238;stroke-linecap:round;stroke-linejoin:round"></line><line x1="244.65" y1="326.66" x2="253.79" y2="326.66" style="fill:none;stroke:#263238;stroke-linecap:round;stroke-linejoin:round"></line><line x1="260.3" y1="326.66" x2="262.33" y2="326.66" style="fill:none;stroke:#263238;stroke-linecap:round;stroke-linejoin:round"></line><line x1="300.71" y1="326.66" x2="291.77" y2="326.66" style="fill:none;stroke:#263238;stroke-linecap:round;stroke-linejoin:round"></line><line x1="298.17" y1="355" x2="262.33" y2="355" style="fill:none;stroke:#263238;stroke-linecap:round;stroke-linejoin:round"></line><line x1="256.44" y1="355" x2="244.65" y2="355" style="fill:none;stroke:#263238;stroke-linecap:round;stroke-linejoin:round"></line><line x1="235.5" y1="355" x2="233.06" y2="355" style="fill:none;stroke:#263238;stroke-linecap:round;stroke-linejoin:round"></line><line x1="205.16" y1="355" x2="214.9" y2="355" style="fill:none;stroke:#263238;stroke-linecap:round;stroke-linejoin:round"></line><path d="M230.83,400.21c3.37,3.1,11.43,5.29,20.84,5.29s17.46-2.19,20.84-5.29Z" style="fill:#fff;opacity:0.4"></path><path d="M256,415H247.3a1.43,1.43,0,0,1-1.35-1l-1.22-3.75H258.6l-1.22,3.75A1.42,1.42,0,0,1,256,415Z" style="fill:#fff;opacity:0.2"></path><polygon points="244.73 408.8 258.6 408.8 260.15 407.62 243.19 407.62 244.73 408.8" style="fill:#fff;opacity:0.2"></polygon></g></svg>