<svg xmlns="http://www.w3.org/2000/svg" version="1.1" xmlns:xlink="http://www.w3.org/1999/xlink" xmlns:svgjs="http://svgjs.com/svgjs" width="512" height="512" x="0" y="0" viewBox="0 0 191.667 191.667" style="enable-background:new 0 0 512 512" xml:space="preserve" class=""><g><path d="M95.833 0C42.991 0 0 42.99 0 95.833s42.991 95.834 95.833 95.834 95.833-42.991 95.833-95.834S148.676 0 95.833 0zm55.029 79.646-60.207 60.207a13.463 13.463 0 0 1-9.583 3.969c-3.62 0-7.023-1.409-9.583-3.969l-30.685-30.685a13.464 13.464 0 0 1-3.97-9.583c0-3.621 1.41-7.024 3.97-9.584a13.46 13.46 0 0 1 9.583-3.97c3.62 0 7.024 1.41 9.583 3.971l21.101 21.1 50.623-50.623a13.463 13.463 0 0 1 9.583-3.969c3.62 0 7.023 1.409 9.583 3.969 5.286 5.286 5.286 13.883.002 19.167z" fill="#ffffff" data-original="#000000" class=""></path></g></svg>