<svg width="256" height="256" viewBox="0 0 256 256" fill="none" xmlns="http://www.w3.org/2000/svg">
<g clip-path="url(#clip0_23_57)">
<path d="M179.041 21.3345C178.862 21.3345 178.679 21.2962 178.506 21.2155C174.188 19.2057 169.706 17.4388 165.183 15.9638C164.516 15.7462 164.152 15.0292 164.369 14.3622C164.587 13.6951 165.304 13.3308 165.971 13.5483C170.59 15.0549 175.168 16.8595 179.578 18.9122C180.214 19.2083 180.49 19.9639 180.194 20.5999C179.978 21.0626 179.52 21.3345 179.041 21.3345ZM151.573 12.3758C151.491 12.3758 151.409 12.3679 151.326 12.3516C146.666 11.4321 141.891 10.7841 137.135 10.4256C136.435 10.3729 135.911 9.76298 135.963 9.06339C136.016 8.36379 136.626 7.83976 137.326 7.89214C142.183 8.25822 147.058 8.91997 151.818 9.85898C152.506 9.99482 152.954 10.6629 152.818 11.3512C152.699 11.9564 152.167 12.3758 151.573 12.3758ZM108.357 11.6678C107.745 11.6678 107.206 11.225 107.105 10.6017C106.992 9.90931 107.461 9.25641 108.154 9.14346C112.939 8.36297 117.834 7.86208 122.702 7.65462C123.404 7.62472 123.996 8.16882 124.025 8.86975C124.055 9.57073 123.511 10.1632 122.81 10.193C118.042 10.3961 113.249 10.8867 108.563 11.651C108.495 11.6621 108.426 11.6678 108.357 11.6678ZM51.8836 225.35C51.5929 225.35 51.311 225.25 51.0853 225.067C47.5292 222.189 44.0967 219.078 40.883 215.82C40.3903 215.32 40.3958 214.516 40.8954 214.023C41.3948 213.531 42.1992 213.536 42.6918 214.036C45.8392 217.227 49.2009 220.274 52.6835 223.092C53.2289 223.533 53.3132 224.333 52.8719 224.879C52.6209 225.189 52.2539 225.35 51.8836 225.35ZM32.7767 205.977C32.4005 205.977 32.0281 205.81 31.7774 205.492C28.9464 201.893 26.2908 198.097 23.8845 194.209C23.5153 193.613 23.6995 192.83 24.2961 192.46C24.8927 192.091 25.6756 192.276 26.0448 192.872C28.4013 196.679 31.0018 200.396 33.7743 203.921C34.208 204.472 34.1127 205.271 33.5613 205.705C33.3378 205.881 33.0614 205.977 32.7767 205.977ZM18.4582 182.839C17.9821 182.839 17.5257 182.57 17.3088 182.111C15.3529 177.972 13.6139 173.678 12.1403 169.348C11.9142 168.684 12.2694 167.962 12.9335 167.736C13.5977 167.51 14.3194 167.865 14.5454 168.53C15.9883 172.769 17.6909 176.973 19.6059 181.026C19.9057 181.66 19.6344 182.417 19.0001 182.717C18.8307 182.797 18.6457 182.839 18.4582 182.839ZM9.68946 157.082C9.10501 157.082 8.57904 156.676 8.44945 156.082C7.47645 151.618 6.74685 147.043 6.28103 142.484C6.20971 141.786 6.71771 141.163 7.41567 141.092C8.11368 141.02 8.73725 141.528 8.80857 142.226C9.26471 146.691 9.9791 151.17 10.9319 155.541C11.0813 156.226 10.6467 156.903 9.96123 157.053C9.8701 157.072 9.77906 157.082 9.68946 157.082ZM6.9177 130.012L6.90551 130.012C6.20397 130.005 5.64057 129.431 5.64712 128.73C5.69018 124.14 5.99098 119.517 6.54123 114.989C6.62581 114.293 7.2592 113.797 7.95552 113.881C8.652 113.966 9.14797 114.599 9.06334 115.296C8.52446 119.73 8.22985 124.258 8.18772 128.753C8.18121 129.451 7.61371 130.012 6.9177 130.012ZM10.2076 102.999C10.11 102.999 10.0111 102.987 9.91203 102.964C9.22953 102.801 8.80811 102.116 8.97072 101.434C10.0316 96.9813 11.3595 92.5422 12.9174 88.2396C13.1562 87.58 13.8847 87.2388 14.5443 87.4777C15.204 87.7165 15.5451 88.4449 15.3063 89.1046C13.781 93.3172 12.4809 97.6634 11.4422 102.023C11.3032 102.606 10.7822 102.999 10.2076 102.999ZM206.385 223.468C206.025 223.468 205.668 223.316 205.417 223.02C204.962 222.486 205.027 221.684 205.562 221.23C209.167 218.165 212.627 214.852 215.846 211.383C216.323 210.869 217.127 210.839 217.641 211.316C218.156 211.793 218.186 212.597 217.708 213.111C214.421 216.654 210.888 220.036 207.207 223.165C206.978 223.361 206.686 223.468 206.385 223.468ZM225.923 202.411C225.654 202.412 225.393 202.326 225.176 202.168C224.609 201.754 224.484 200.96 224.897 200.393C227.687 196.565 230.274 192.533 232.586 188.409C232.929 187.797 233.703 187.579 234.315 187.922C234.927 188.266 235.145 189.04 234.802 189.652C232.441 193.863 229.799 197.98 226.951 201.889C226.702 202.23 226.315 202.411 225.923 202.411ZM239.969 177.353C239.808 177.353 239.643 177.322 239.485 177.257C238.836 176.989 238.528 176.246 238.795 175.598C240.602 171.223 242.162 166.694 243.432 162.137C243.62 161.461 244.321 161.066 244.996 161.254C245.672 161.442 246.067 162.143 245.879 162.819C244.582 167.473 242.989 172.099 241.144 176.567C240.942 177.057 240.468 177.353 239.969 177.353ZM247.684 149.681C247.62 149.681 247.555 149.676 247.49 149.666C246.796 149.56 246.32 148.911 246.426 148.218C247.142 143.553 247.586 138.784 247.747 134.041C247.771 133.34 248.362 132.79 249.06 132.814C249.761 132.838 250.311 133.426 250.287 134.127C250.122 138.97 249.668 143.84 248.938 148.603C248.841 149.231 248.3 149.681 247.684 149.681ZM248.663 120.971C248.009 120.971 247.454 120.469 247.399 119.806C247.004 115.081 246.324 110.339 245.376 105.713C245.235 105.026 245.678 104.354 246.365 104.214C247.052 104.073 247.724 104.516 247.864 105.203C248.833 109.927 249.528 114.769 249.93 119.595C249.989 120.294 249.469 120.908 248.77 120.966C248.734 120.969 248.698 120.971 248.663 120.971Z" fill="#FDCA3F"/>
<path d="M128 218.805C177.101 218.805 216.905 179.001 216.905 129.9C216.905 80.7996 177.101 40.9956 128 40.9956C78.8993 40.9956 39.0953 80.7996 39.0953 129.9C39.0953 179.001 78.8993 218.805 128 218.805Z" fill="#FDCA3F" fill-opacity="0.2"/>
<path d="M207.634 36.6866H232.062C235.203 36.6866 237.749 39.233 237.749 42.3742V110.993C237.749 114.134 235.203 116.68 232.062 116.68H128.622C125.481 116.68 122.935 114.134 122.935 110.993V42.3741C122.935 39.233 125.481 36.6866 128.622 36.6866H159.638" fill="white"/>
<path d="M232.062 117.951H128.622C124.786 117.951 121.664 114.83 121.664 110.993V42.3742C121.664 38.5376 124.786 35.4163 128.622 35.4163H159.638C160.339 35.4163 160.908 35.985 160.908 36.6867C160.908 37.3883 160.339 37.957 159.638 37.957H128.622C126.187 37.957 124.205 39.9386 124.205 42.3742V110.993C124.205 113.429 126.187 115.41 128.622 115.41H232.062C234.498 115.41 236.479 113.429 236.479 110.993V42.3742C236.479 39.9385 234.498 37.957 232.062 37.957H207.634C206.933 37.957 206.364 37.3882 206.364 36.6866C206.364 35.985 206.932 35.4163 207.634 35.4163H232.062C235.899 35.4163 239.02 38.5376 239.02 42.3741V110.993C239.02 114.83 235.899 117.951 232.062 117.951Z" fill="#FDCA3F"/>
<path d="M192.749 133.62L188.595 116.681H171.605L167.451 133.62" fill="#80D0FF"/>
<path d="M192.748 134.891C192.177 134.891 191.658 134.503 191.515 133.923L187.598 117.951H172.601L168.685 133.923C168.517 134.604 167.83 135.021 167.148 134.854C166.467 134.687 166.05 133.999 166.217 133.318L170.371 116.378C170.439 116.102 170.597 115.856 170.821 115.681C171.045 115.506 171.321 115.41 171.605 115.41H188.595C188.879 115.41 189.155 115.506 189.379 115.681C189.603 115.856 189.761 116.102 189.829 116.378L193.983 133.318C194.15 133.999 193.733 134.687 193.052 134.854C192.95 134.879 192.848 134.891 192.748 134.891Z" fill="#FDCA3F"/>
<path d="M153.991 139.267V137.368C153.991 135.298 155.669 133.62 157.738 133.62H202.005C204.074 133.62 205.752 135.298 205.752 137.368V139.267" fill="#80D0FF"/>
<path d="M205.752 140.537C205.05 140.537 204.482 139.969 204.482 139.267V137.368C204.482 136.002 203.37 134.891 202.005 134.891H157.738C156.373 134.891 155.261 136.002 155.261 137.368V139.267C155.261 139.969 154.693 140.537 153.991 140.537C153.289 140.537 152.721 139.969 152.721 139.267V137.368C152.721 134.601 154.972 132.35 157.738 132.35H202.004C204.771 132.35 207.022 134.601 207.022 137.368V139.267C207.022 139.969 206.454 140.537 205.752 140.537Z" fill="#FDCA3F"/>
<path d="M237.749 107.269H123.703L122.935 107.403V110.993C122.935 114.134 125.481 116.68 128.622 116.68H232.062C235.203 116.68 237.749 114.134 237.749 110.993L237.749 107.269Z" fill="#80D0FF"/>
<path d="M232.062 117.951H128.622C124.786 117.951 121.664 114.83 121.664 110.993V107.403C121.664 106.786 122.109 106.258 122.717 106.152L123.485 106.018C123.557 106.005 123.63 105.999 123.703 105.999H237.749C238.451 105.999 239.02 106.568 239.02 107.27V110.993C239.02 114.83 235.898 117.951 232.062 117.951ZM124.205 108.54V110.993C124.205 113.429 126.187 115.41 128.622 115.41H232.062C234.498 115.41 236.479 113.429 236.479 110.993V108.54H124.205ZM237.749 99.1287H136.11C135.409 99.1287 134.84 98.56 134.84 97.8584C134.84 97.1567 135.409 96.588 136.11 96.588H237.749C238.451 96.588 239.02 97.1567 239.02 97.8584C239.02 98.56 238.451 99.1287 237.749 99.1287ZM130.464 99.1287H122.935C122.233 99.1287 121.664 98.56 121.664 97.8584C121.664 97.1567 122.233 96.588 122.935 96.588H130.464C131.165 96.588 131.734 97.1567 131.734 97.8584C131.734 98.56 131.165 99.1287 130.464 99.1287Z" fill="#FDCA3F"/>
<path d="M163.965 57.585C164.965 67.2854 172.615 74.7255 181.651 74.7255C190.69 74.7255 198.159 67.2609 199.338 57.5773C199.446 56.6868 199.5 55.7905 199.5 54.8935C199.5 52.1552 199.001 49.5466 198.097 47.174C198.097 47.174 190.542 38.5196 180.109 38.9369C169.677 39.3542 162.792 46.1875 163.965 57.585Z" fill="white"/>
<path d="M181.651 75.9958C176.952 75.9958 172.427 74.1167 168.91 70.7046C165.421 67.3195 163.216 62.7063 162.702 57.7152C162.114 52.0047 163.439 47.0986 166.534 43.527C168.092 41.7299 170.058 40.3131 172.379 39.3161C174.664 38.3347 177.248 37.7801 180.059 37.6676C182.597 37.5661 185.181 37.963 187.737 38.8474C189.762 39.5481 191.774 40.5548 193.716 41.8394C197.015 44.0205 198.973 46.2449 199.054 46.3386C199.153 46.4518 199.231 46.5816 199.285 46.7221C200.271 49.312 200.771 52.0612 200.771 54.8936C200.771 55.8423 200.713 56.7969 200.599 57.731C199.991 62.7285 197.764 67.331 194.33 70.6909C190.834 74.1118 186.331 75.9958 181.651 75.9958ZM180.829 40.1929C180.607 40.1929 180.385 40.1973 180.16 40.2062C175.155 40.4065 171.107 42.1301 168.454 45.1909C165.83 48.219 164.715 52.4598 165.229 57.4548C166.169 66.5765 173.229 73.4551 181.651 73.4551C189.903 73.4551 196.964 66.5632 198.077 57.4238C198.179 56.5842 198.23 55.7392 198.23 54.8935C198.23 52.4528 197.814 50.0841 196.994 47.8494C196.502 47.3242 194.798 45.5913 192.254 43.9185C189.632 42.1947 185.566 40.1929 180.829 40.1929Z" fill="#FDCA3F"/>
<path d="M147.403 97.8584V95.9045C147.403 86.5885 154.956 79.0364 164.272 79.0364H198.295C207.611 79.0364 215.163 86.5885 215.163 95.9045V97.8584H147.403Z" fill="#FC9A8D"/>
<path d="M215.163 99.1287H147.403C146.702 99.1287 146.133 98.56 146.133 97.8584V95.9044C146.133 93.4563 146.613 91.0807 147.559 88.8437C148.473 86.6837 149.78 84.744 151.446 83.0786C153.111 81.4131 155.051 80.1055 157.211 79.1919C159.448 78.2457 161.824 77.7659 164.272 77.7659H198.295C200.743 77.7659 203.119 78.2457 205.355 79.1919C207.516 80.1055 209.455 81.4132 211.121 83.0786C212.786 84.744 214.094 86.6837 215.007 88.8437C215.954 91.0807 216.433 93.4563 216.433 95.9044V97.8584C216.433 98.56 215.865 99.1287 215.163 99.1287ZM148.674 96.588H213.893V95.9045C213.893 87.3038 206.895 80.3066 198.295 80.3066H164.272C155.671 80.3066 148.674 87.3038 148.674 95.9045V96.588Z" fill="#FDCA3F"/>
<path d="M195.691 79.0363C194.142 86.0492 188.215 91.2707 181.14 91.2707C174.08 91.2707 168.162 86.0699 166.599 79.0781L195.691 79.0363Z" fill="white"/>
<path d="M181.14 92.541C179.259 92.541 177.414 92.203 175.659 91.5364C173.965 90.8936 172.393 89.9609 170.985 88.7642C168.181 86.3799 166.183 83.0385 165.359 79.3553C165.318 79.1697 165.318 78.9771 165.361 78.7918C165.404 78.6064 165.488 78.4331 165.607 78.2845C165.726 78.136 165.876 78.016 166.048 77.9335C166.219 77.851 166.407 77.808 166.597 77.8078L195.689 77.7659H195.691C195.881 77.7659 196.069 77.8086 196.241 77.8908C196.412 77.9729 196.563 78.0925 196.682 78.2408C196.801 78.389 196.885 78.562 196.928 78.7471C196.972 78.9322 196.973 79.1247 196.932 79.3103C196.116 83.0041 194.12 86.3565 191.312 88.7501C189.903 89.9511 188.329 90.8873 186.633 91.5325C184.874 92.2017 183.026 92.541 181.14 92.541ZM168.268 80.3461C170.195 86.103 175.293 90.0004 181.14 90.0004C187.006 90.0004 192.109 86.0884 194.025 80.3091L168.268 80.3461Z" fill="#FDCA3F"/>
<path d="M163.965 57.585C163.951 57.4656 163.937 57.3458 163.925 57.2258C163.92 57.1789 163.916 57.132 163.912 57.0851C163.656 53.6593 164.685 49.322 167.396 47.2129C175.134 41.1946 181.654 48.9859 192.868 48.4838C205.624 47.9126 204.054 33.3004 204.054 33.3004C202.375 34.4271 199.08 35.2519 195.724 33.2528C189.839 29.7467 181.401 28.0936 174.283 29.8912C168.649 31.3137 164.058 35.4987 162.004 40.9339C161.995 40.9596 161.985 40.9853 161.976 41.0111C161.65 41.8879 161.36 42.8933 161.154 43.9956C160.441 47.7998 160.719 52.7589 163.929 57.5748" fill="#FCF379"/>
<path d="M163.964 58.8555C163.835 58.8555 163.71 58.8359 163.592 58.7994C163.297 58.7186 163.041 58.5339 162.872 58.2794C161.293 55.9097 160.264 53.3301 159.817 50.6123C159.446 48.3596 159.476 46.0548 159.905 43.7617C160.112 42.6578 160.408 41.5836 160.785 40.5689L160.816 40.4858C161.899 37.6198 163.674 35.0194 165.95 32.9649C168.244 30.8943 171.018 29.4055 173.972 28.6596C177.541 27.7582 181.589 27.6444 185.676 28.3304C189.563 28.9826 193.262 30.3074 196.374 32.1615C199.342 33.9293 202.153 33.0462 203.346 32.2456C203.527 32.1237 203.737 32.0508 203.955 32.0339C204.173 32.017 204.392 32.0567 204.59 32.1491C204.789 32.2415 204.96 32.3836 205.087 32.5615C205.214 32.7394 205.293 32.9471 205.317 33.1646C205.35 33.4769 206.091 40.8686 201.921 45.7248C199.773 48.2265 196.746 49.5818 192.925 49.7528C192.556 49.7694 192.186 49.7776 191.816 49.7776C187.525 49.7777 183.931 48.667 180.73 47.6779C175.802 46.1548 172.241 45.0543 168.176 48.2157C165.804 50.061 164.96 54.0577 165.179 56.9902C165.182 57.0307 165.185 57.0655 165.188 57.0937C165.2 57.2053 165.213 57.3182 165.227 57.4307C165.312 58.1272 164.816 58.7608 164.12 58.8459C164.068 58.8523 164.016 58.8555 163.964 58.8555ZM180.493 30.4249C178.451 30.4249 176.455 30.6529 174.594 31.1229C169.385 32.4382 165.123 36.2737 163.193 41.3829L163.166 41.4539C162.84 42.333 162.583 43.2671 162.402 44.2295C161.988 46.4409 161.854 49.4582 162.947 52.7338C163.052 52.2344 163.18 51.7445 163.33 51.2707C164.022 49.0945 165.158 47.3445 166.616 46.2101C171.726 42.236 176.464 43.7002 181.48 45.2504C184.915 46.3117 188.467 47.4092 192.811 47.2147C195.899 47.0764 198.313 46.0214 199.986 44.0789C202.305 41.3852 202.777 37.5398 202.835 35.2836C202.126 35.5168 201.371 35.6648 200.602 35.7162C198.705 35.843 196.794 35.3685 195.074 34.3441C190.803 31.7998 185.508 30.4249 180.493 30.4249Z" fill="#FDCA3F"/>
<path d="M134.042 101.623H132.532C131.39 101.623 130.464 100.697 130.464 99.5542V95.2215C130.464 94.079 131.39 93.1529 132.532 93.1529H134.042C135.184 93.1529 136.11 94.0791 136.11 95.2215V99.5542C136.11 100.697 135.184 101.623 134.042 101.623Z" fill="white"/>
<path d="M134.042 102.893H132.532C130.691 102.893 129.193 101.395 129.193 99.5542V95.2215C129.193 93.3804 130.691 91.8825 132.532 91.8825H134.042C135.883 91.8825 137.381 93.3804 137.381 95.2215V99.5542C137.381 101.395 135.883 102.893 134.042 102.893ZM132.532 94.4233C132.092 94.4233 131.734 94.7814 131.734 95.2215V99.5543C131.734 99.9944 132.092 100.353 132.532 100.353H134.042C134.482 100.353 134.84 99.9944 134.84 99.5543V95.2215C134.84 94.7814 134.482 94.4233 134.042 94.4233H132.532Z" fill="#FDCA3F"/>
<path d="M173.817 247.188H85.6081C74.5576 247.188 65.6006 238.231 65.6006 227.178V171.471C65.6006 160.422 74.5576 151.463 85.6081 151.463H173.817C184.867 151.463 193.824 160.422 193.824 171.471V227.178C193.824 238.231 184.867 247.188 173.817 247.188Z" fill="white"/>
<path d="M173.817 248.458H85.6081C82.736 248.458 79.9492 247.895 77.3252 246.785C74.7912 245.714 72.5158 244.18 70.5622 242.226C68.6085 240.272 67.0746 237.997 66.0029 235.462C64.893 232.838 64.3304 230.051 64.3304 227.178V171.471C64.3304 168.599 64.8931 165.813 66.0029 163.189C67.0746 160.655 68.6086 158.379 70.5622 156.426C72.5159 154.472 74.7913 152.938 77.3252 151.866C79.9493 150.756 82.7361 150.193 85.6081 150.193H173.817C176.689 150.193 179.476 150.756 182.1 151.866C184.634 152.938 186.909 154.472 188.863 156.425C190.816 158.379 192.35 160.655 193.422 163.189C194.532 165.813 195.095 168.599 195.095 171.471V227.178C195.095 230.051 194.532 232.838 193.422 235.462C192.35 237.997 190.816 240.272 188.863 242.226C186.909 244.18 184.634 245.714 182.1 246.786C179.476 247.895 176.689 248.458 173.817 248.458ZM85.6081 152.734C75.2764 152.734 66.871 161.139 66.871 171.471V227.178C66.871 237.511 75.2764 245.917 85.6081 245.917H173.817C184.149 245.917 192.554 237.511 192.554 227.178V171.471C192.554 161.139 184.149 152.734 173.817 152.734H85.6081Z" fill="#FDCA3F"/>
<path d="M89.4595 200.169C89.8288 191.626 90.2879 187.025 93.9501 182.067C95.7414 179.641 98.5597 176.881 101.487 176.89C103.887 176.895 106.747 176.903 110.054 176.907C113.119 176.91 116.008 179.849 117.827 182.436C121.308 187.386 121.694 191.842 122.055 200.171L89.4595 200.169Z" fill="#FC9A8D"/>
<path d="M122.055 201.442L89.4595 201.439C89.288 201.439 89.1184 201.405 88.9607 201.337C88.803 201.27 88.6606 201.172 88.5421 201.048C88.4235 200.924 88.3312 200.777 88.2708 200.617C88.2103 200.457 88.183 200.286 88.1904 200.114C88.3629 196.123 88.5601 192.57 89.2287 189.503C89.9095 186.381 91.0505 183.855 92.9283 181.313C94.4988 179.185 97.6961 175.62 101.472 175.62H101.491C102.175 175.621 102.897 175.623 103.657 175.625C105.549 175.629 107.693 175.634 110.055 175.637C114.011 175.641 117.274 179.441 118.866 181.706C120.643 184.233 121.719 186.723 122.355 189.778C122.965 192.713 123.148 196.054 123.324 200.116C123.332 200.288 123.304 200.459 123.244 200.619C123.183 200.779 123.091 200.926 122.973 201.05C122.854 201.174 122.712 201.272 122.554 201.339C122.396 201.407 122.227 201.441 122.055 201.442ZM90.7888 198.899L120.727 198.901C120.393 191.763 119.918 187.618 116.788 183.167C114.592 180.045 112.075 178.18 110.052 178.177C107.689 178.175 105.544 178.17 103.651 178.165C102.892 178.163 102.169 178.162 101.484 178.16L101.475 178.16C99.5572 178.16 97.1277 179.902 94.9721 182.822C91.7734 187.152 91.1673 191.008 90.7888 198.899Z" fill="#FDCA3F"/>
<path d="M114.126 171.096C114.126 176.01 110.279 179.993 105.533 179.993C100.785 179.993 96.9384 176.01 96.9384 171.096C96.9384 166.181 100.785 162.2 105.533 162.2C110.279 162.2 114.126 166.181 114.126 171.096Z" fill="white"/>
<path d="M105.533 181.263C102.889 181.263 100.406 180.2 98.5416 178.27C96.6885 176.352 95.668 173.804 95.668 171.096C95.668 168.388 96.6885 165.84 98.5416 163.922C100.406 161.993 102.889 160.93 105.533 160.93C108.176 160.93 110.659 161.993 112.523 163.922C114.376 165.841 115.396 168.388 115.396 171.096C115.396 176.702 110.972 181.263 105.533 181.263ZM105.533 163.47C101.494 163.47 98.2087 166.891 98.2087 171.096C98.2087 175.301 101.494 178.723 105.533 178.723C109.571 178.723 112.856 175.301 112.856 171.096C112.856 166.891 109.571 163.47 105.533 163.47Z" fill="#FDCA3F"/>
<path d="M135.962 200.169C136.331 191.626 136.79 187.025 140.452 182.067C142.244 179.641 145.062 176.881 147.989 176.89C150.39 176.895 153.249 176.903 156.556 176.907C159.621 176.91 162.51 179.849 164.329 182.436C167.81 187.386 168.197 191.842 168.557 200.171L135.962 200.169Z" fill="#FC9A8D"/>
<path d="M168.557 201.442H168.557L135.962 201.439C135.79 201.439 135.621 201.405 135.463 201.337C135.305 201.27 135.163 201.171 135.044 201.048C134.926 200.924 134.833 200.777 134.773 200.617C134.713 200.457 134.685 200.286 134.693 200.114C134.865 196.123 135.062 192.57 135.731 189.503C136.412 186.381 137.553 183.855 139.43 181.313C141.001 179.185 144.198 175.62 147.975 175.62H147.993C148.677 175.621 149.4 175.623 150.159 175.625C152.051 175.629 154.195 175.634 156.557 175.637C160.514 175.641 163.776 179.441 165.368 181.706C167.146 184.233 168.222 186.723 168.857 189.778C169.467 192.713 169.651 196.054 169.827 200.116C169.834 200.288 169.807 200.459 169.746 200.619C169.686 200.779 169.593 200.926 169.475 201.05C169.356 201.174 169.214 201.272 169.056 201.339C168.898 201.407 168.729 201.442 168.557 201.442ZM137.291 198.899L167.229 198.901C166.896 191.763 166.42 187.618 163.29 183.167C161.095 180.045 158.577 178.18 156.555 178.177C154.191 178.175 152.046 178.17 150.153 178.165C149.394 178.163 148.671 178.162 147.986 178.16L147.977 178.16C146.059 178.16 143.63 179.902 141.474 182.822C138.276 187.152 137.669 191.008 137.291 198.899Z" fill="#FDCA3F"/>
<path d="M160.628 171.096C160.628 176.01 156.781 179.993 152.035 179.993C147.289 179.993 143.44 176.01 143.44 171.096C143.44 166.181 147.289 162.2 152.035 162.2C156.781 162.2 160.628 166.181 160.628 171.096Z" fill="white"/>
<path d="M152.035 181.263C146.595 181.263 142.17 176.702 142.17 171.096C142.17 168.388 143.191 165.841 145.044 163.922C146.909 161.993 149.392 160.93 152.035 160.93C154.678 160.93 157.161 161.993 159.025 163.922C160.878 165.841 161.898 168.388 161.898 171.096C161.898 176.702 157.474 181.263 152.035 181.263ZM152.035 163.47C147.996 163.47 144.711 166.891 144.711 171.096C144.711 175.301 147.996 178.723 152.035 178.723C156.073 178.723 159.358 175.301 159.358 171.096C159.358 166.891 156.073 163.47 152.035 163.47Z" fill="#FDCA3F"/>
<path d="M85.0839 191.198H174.342V221.216H85.0839V191.198Z" fill="#80D0FF"/>
<path d="M174.342 222.486H85.0839C84.3823 222.486 83.8135 221.917 83.8135 221.216V191.198C83.8135 190.497 84.3823 189.928 85.0839 189.928H174.342C175.043 189.928 175.612 190.497 175.612 191.198V221.216C175.612 221.917 175.043 222.486 174.342 222.486ZM86.3542 219.945H173.072V192.469H86.3542V219.945Z" fill="#FDCA3F"/>
<path d="M112.182 213.416C112.57 204.463 113.052 199.641 116.888 194.444C118.764 191.901 121.719 189.008 124.787 189.015C127.303 189.022 130.299 189.03 133.765 189.035C136.978 189.039 140.007 192.12 141.913 194.829C145.561 200.017 145.966 204.687 146.344 213.418L112.182 213.416Z" fill="#FCF379"/>
<path d="M146.344 214.689H146.344L112.182 214.687C112.01 214.686 111.841 214.652 111.683 214.584C111.525 214.517 111.383 214.419 111.264 214.295C111.146 214.171 111.053 214.024 110.993 213.864C110.932 213.703 110.905 213.532 110.913 213.361C111.094 209.181 111.301 205.46 112.001 202.251C112.712 198.987 113.904 196.347 115.866 193.69C117.504 191.469 120.839 187.745 124.776 187.745H124.79C127.226 187.751 130.257 187.76 133.767 187.765C137.887 187.769 141.29 191.735 142.952 194.099C144.81 196.741 145.934 199.343 146.599 202.536C147.238 205.609 147.429 209.108 147.614 213.363C147.621 213.535 147.594 213.706 147.533 213.866C147.473 214.027 147.381 214.173 147.262 214.297C147.143 214.421 147.001 214.519 146.843 214.587C146.686 214.654 146.516 214.689 146.344 214.689ZM113.511 212.146L145.016 212.148C144.666 204.615 144.173 200.252 140.873 195.56C138.562 192.272 135.904 190.308 133.764 190.306C130.251 190.301 127.22 190.292 124.784 190.285L124.776 190.285C122.746 190.285 120.18 192.121 117.91 195.198C114.541 199.762 113.909 203.819 113.511 212.146Z" fill="#FDCA3F"/>
<path d="M138.034 182.945C138.034 188.095 134.001 192.269 129.027 192.269C124.053 192.269 120.02 188.095 120.02 182.945C120.02 177.797 124.053 173.62 129.027 173.62C134 173.62 138.034 177.797 138.034 182.945Z" fill="white"/>
<path d="M129.027 193.54C123.36 193.54 118.749 188.787 118.749 182.944C118.749 177.102 123.36 172.35 129.027 172.35C134.694 172.35 139.304 177.102 139.304 182.944C139.304 188.787 134.694 193.54 129.027 193.54ZM129.027 174.89C124.761 174.89 121.29 178.503 121.29 182.944C121.29 187.386 124.761 190.999 129.027 190.999C133.293 190.999 136.763 187.386 136.763 182.944C136.763 178.503 133.293 174.89 129.027 174.89Z" fill="#FDCA3F"/>
<path d="M98.1915 202.149H160.628V234.726H98.1915V202.149Z" fill="#80D0FF"/>
<path d="M160.628 235.996H98.1915C97.4899 235.996 96.9211 235.427 96.9211 234.726V202.149C96.9211 201.447 97.4899 200.879 98.1915 200.879H160.628C161.33 200.879 161.899 201.447 161.899 202.149V234.726C161.899 235.427 161.33 235.996 160.628 235.996ZM99.4618 233.455H159.358V203.419H99.4618V233.455Z" fill="#FDCA3F"/>
<path d="M100.309 138.24C100.309 124.272 90.0777 112.139 76.2121 110.451C75.3387 110.344 74.461 110.277 73.5816 110.249L51.1605 110.265C50.3028 110.305 49.4471 110.382 48.5961 110.496C34.8853 112.333 24.8503 124.398 24.8503 138.231V138.24" fill="#FCF379"/>
<path d="M24.8503 139.51C24.1487 139.51 23.58 138.941 23.58 138.24V138.231C23.58 131.201 26.0777 124.387 30.6131 119.043C35.195 113.644 41.5215 110.162 48.4274 109.236C49.315 109.118 50.2074 109.038 51.102 108.996C51.1212 108.995 51.1404 108.995 51.1596 108.995L73.5807 108.979C73.5946 108.979 73.6084 108.979 73.6223 108.979C74.5395 109.009 75.4549 109.079 76.3658 109.19C83.3506 110.04 89.7636 113.493 94.4234 118.912C99.0381 124.279 101.579 131.143 101.579 138.24C101.579 138.941 101.011 139.51 100.309 139.51C99.6075 139.51 99.0387 138.941 99.0387 138.24C99.0387 124.712 89.1594 113.307 76.0585 111.712C75.2293 111.611 74.3961 111.547 73.5612 111.519L51.1907 111.536C50.3793 111.574 49.5699 111.647 48.7648 111.755C35.8555 113.484 26.1206 124.867 26.1206 138.231V138.24C26.1207 138.941 25.5519 139.51 24.8503 139.51Z" fill="#FDCA3F"/>
<path d="M73.7914 103.481V110.366C73.7914 114.514 68.7459 117.909 62.5793 117.909C56.4126 117.909 51.3671 114.514 51.3671 110.366V102.589" fill="white"/>
<path d="M62.5793 119.179C59.3468 119.179 56.2828 118.315 53.9516 116.747C52.7725 115.954 51.8393 115.02 51.1777 113.973C50.4605 112.837 50.0968 111.623 50.0968 110.366V102.589C50.0968 101.888 50.6655 101.319 51.3672 101.319C52.0688 101.319 52.6376 101.888 52.6376 102.589V110.366C52.6376 113.766 57.1903 116.638 62.5793 116.638C67.9683 116.638 72.5211 113.766 72.5211 110.366V103.481C72.5211 102.779 73.0899 102.211 73.7915 102.211C74.4931 102.211 75.0619 102.779 75.0619 103.481V110.366C75.0619 111.623 74.6981 112.837 73.9809 113.973C73.3194 115.02 72.3862 115.954 71.2071 116.747C68.8757 118.315 65.8117 119.179 62.5793 119.179Z" fill="#FDCA3F"/>
<path d="M90.3818 64.821C90.4095 64.7242 79.9449 58.7798 65.9342 58.2498C59.768 58.0165 49.4 58.6991 36.6798 65.0334C31.9994 64.925 28.1169 68.735 28.1169 73.3175C28.1169 77.8809 31.948 81.6147 36.6304 81.6147C36.6705 81.6147 36.7093 81.6094 36.7493 81.6089C38.0086 94.9327 49.5888 105.459 63.5741 105.459C77.5595 105.459 89.1397 94.9327 90.399 81.6089C90.439 81.6094 90.4778 81.6147 90.5179 81.6147C95.2003 81.6147 99.0314 77.881 99.0314 73.3175C99.0314 68.8041 95.284 65.1024 90.6719 65.0216C90.6207 65.0207 90.5694 65.0203 90.5179 65.0203L90.3524 65.0281V65.0272C90.3516 64.9138 90.3814 64.8227 90.3818 64.821Z" fill="white"/>
<path d="M63.5742 106.729C56.5261 106.729 49.7671 104.154 44.5422 99.4769C39.6263 95.0767 36.4827 89.2021 35.6123 82.8338C33.3974 82.6092 31.3384 81.6537 29.7311 80.0872C27.871 78.2743 26.8466 75.8702 26.8466 73.3176C26.8466 70.759 27.8737 68.3464 29.7387 66.5241C31.5446 64.7595 33.8942 63.7854 36.386 63.7612C46.261 58.892 56.2163 56.6107 65.9823 56.9804C73.3689 57.2598 79.7194 59.0293 83.7461 60.4645C86.0995 61.3033 87.9074 62.1117 89.0096 62.6422C90.2341 63.2316 90.8028 63.5597 91.0899 63.7662C93.5028 63.9031 95.7573 64.9025 97.4753 66.6051C99.2979 68.4112 100.302 70.7951 100.302 73.3176C100.302 75.8702 99.2773 78.2744 97.4171 80.0873C95.8098 81.6538 93.7508 82.6092 91.5359 82.8338C90.6655 89.2022 87.5219 95.0767 82.606 99.4769C77.3813 104.154 70.6223 106.729 63.5742 106.729ZM36.7496 80.3386C37.4037 80.3386 37.9523 80.8362 38.014 81.4894C39.217 94.2178 50.4444 104.188 63.5742 104.188C76.7039 104.188 87.9313 94.2178 89.1343 81.4894C89.1966 80.8303 89.7545 80.33 90.4165 80.3387C90.4582 80.3393 90.4999 80.3412 90.5415 80.3444C94.5247 80.3321 97.761 77.1846 97.761 73.3176C97.761 69.5122 94.5709 66.3605 90.6496 66.2918C90.6155 66.2912 90.5813 66.2908 90.547 66.2907L90.413 66.2971C90.1673 66.3088 89.9234 66.2489 89.711 66.1247C89.4987 66.0005 89.327 65.8173 89.2167 65.5974C88.2892 65.0885 85.9079 63.9024 82.4401 62.6983C78.6759 61.3913 72.7484 59.7788 65.8862 59.5192C56.4612 59.1625 46.8249 61.4005 37.246 66.1705C37.0612 66.2625 36.8568 66.3081 36.6504 66.3034C34.729 66.2588 32.9047 66.9827 31.5144 68.3413C30.1427 69.6816 29.3873 71.4489 29.3873 73.3176C29.3873 77.1846 32.6237 80.3321 36.6069 80.3444C36.6544 80.3408 36.702 80.3389 36.7496 80.3386Z" fill="#FDCA3F"/>
<path d="M35.8339 46.1949L9.19736 26.7838L63.5742 10.018L117.951 26.7838L91.3144 46.1949" fill="#80D0FF"/>
<path d="M91.3155 47.4654C90.9233 47.4654 90.5365 47.2844 90.2878 46.9431C89.8746 46.3761 89.9993 45.5815 90.5663 45.1683L115.153 27.2506L63.5742 11.3474L11.9949 27.2506L36.582 45.1683C37.149 45.5815 37.2737 46.3761 36.8605 46.9431C36.4472 47.5101 35.6527 47.6348 35.0856 47.2216L8.44923 27.8105C8.25872 27.6716 8.11061 27.4825 8.02146 27.2642C7.93232 27.046 7.90565 26.8073 7.94445 26.5748C7.98325 26.3422 8.08598 26.1251 8.24115 25.9476C8.39633 25.7702 8.59782 25.6394 8.82309 25.5699L63.1998 8.80415C63.4437 8.72894 63.7046 8.72894 63.9484 8.80415L118.325 25.5699C118.55 25.6394 118.752 25.7702 118.907 25.9476C119.062 26.1251 119.165 26.3422 119.204 26.5747C119.243 26.8073 119.216 27.046 119.127 27.2642C119.038 27.4825 118.89 27.6716 118.699 27.8105L92.0626 47.2216C91.8458 47.3801 91.5841 47.4655 91.3155 47.4654Z" fill="#FDCA3F"/>
<path d="M35.8339 61.8703C35.8339 64.7857 38.0443 66.5871 39.8198 65.1298C44.6789 61.1413 53.4993 59.4256 63.5742 59.4256C73.649 59.4256 82.4695 61.1413 87.3285 65.1298C88.4577 66.0566 89.7628 65.6654 90.5633 64.5077C91.0215 63.8452 91.3144 62.9315 91.3144 61.8703V45.5335C91.3144 37.9284 78.8946 31.7632 63.5741 31.7632C48.2536 31.7632 35.8338 37.9284 35.8338 45.5335L35.8339 61.8703Z" fill="#80D0FF"/>
<path d="M88.6678 66.9156C87.9117 66.9156 87.1632 66.6376 86.5226 66.1117C82.2679 62.6193 74.118 60.696 63.5742 60.696C53.0305 60.696 44.8806 62.6193 40.6259 66.1117C39.584 66.9669 38.2693 67.1499 37.1091 66.6012C35.5627 65.8699 34.5636 64.0129 34.5636 61.8703V45.5335C34.5636 43.3641 35.3991 41.2836 37.047 39.3496C38.5562 37.5784 40.6917 36.0001 43.3941 34.6586C48.8056 31.9723 55.9724 30.4929 63.5742 30.4929C71.1761 30.4929 78.3429 31.9723 83.7544 34.6586C86.4568 36.0001 88.5922 37.5783 90.1015 39.3496C91.7494 41.2836 92.5849 43.3641 92.5849 45.5335V61.8703C92.5849 63.1264 92.238 64.3196 91.6082 65.2303C90.9647 66.1609 90.0723 66.7489 89.0954 66.8858C88.953 66.9057 88.8102 66.9156 88.6678 66.9156ZM63.5742 58.1553C68.8966 58.1553 73.6456 58.6224 77.6894 59.5434C82.1304 60.555 85.6447 62.1042 88.1345 64.1479C88.4539 64.4101 88.6713 64.3796 88.7427 64.3697C89.0042 64.333 89.287 64.1201 89.5185 63.7852C89.8575 63.2951 90.0441 62.615 90.0441 61.8703V45.5335C90.0441 42.3633 87.4092 39.3094 82.6247 36.9343C77.5573 34.4189 70.7917 33.0336 63.5741 33.0336C56.3566 33.0336 49.591 34.4189 44.5236 36.9343C39.7391 39.3094 37.1041 42.3633 37.1041 45.5335V61.8703C37.1041 63.1882 37.6696 64.0559 38.1952 64.3044C38.3806 64.392 38.6413 64.4536 39.0138 64.1479C41.5036 62.1042 45.0178 60.555 49.4589 59.5434C53.5027 58.6223 58.2518 58.1553 63.5742 58.1553Z" fill="#FDCA3F"/>
<path d="M15.5055 57.4112C14.8039 57.4112 14.2351 56.8425 14.2351 56.1408V32.1052C14.2351 31.4036 14.8039 30.8348 15.5055 30.8348C16.2072 30.8348 16.7759 31.4035 16.7759 32.1052V56.1408C16.7759 56.8425 16.2071 57.4112 15.5055 57.4112Z" fill="#FDCA3F"/>
<path d="M15.5055 56.1408L24.099 73.5012H6.91202L15.5055 56.1408Z" fill="#FC9A8D"/>
<path d="M24.0991 74.7715H6.91202C6.6959 74.7715 6.48335 74.7164 6.29448 74.6114C6.10561 74.5063 5.94666 74.3549 5.83267 74.1712C5.71868 73.9876 5.65342 73.778 5.64306 73.5621C5.6327 73.3462 5.67759 73.1313 5.77348 72.9376L14.367 55.5773C14.472 55.3651 14.6343 55.1865 14.8355 55.0616C15.0366 54.9367 15.2687 54.8706 15.5055 54.8706C15.7422 54.8706 15.9743 54.9367 16.1755 55.0616C16.3766 55.1865 16.5389 55.3651 16.644 55.5773L25.2375 72.9376C25.3334 73.1313 25.3782 73.3462 25.3679 73.5621C25.3575 73.778 25.2922 73.9876 25.1782 74.1712C25.0643 74.3548 24.9054 74.5063 24.7165 74.6113C24.5277 74.7164 24.3152 74.7715 24.0991 74.7715ZM8.95833 72.2308H22.0528L15.5056 59.0044L8.95833 72.2308ZM63.5741 96.165C61.4334 96.165 59.3888 95.6697 57.497 94.6928C55.6982 93.7639 54.1059 92.4093 52.8921 90.7754C52.4737 90.2122 52.5911 89.4165 53.1543 88.9981C53.7175 88.5798 54.5132 88.6971 54.9316 89.2603C56.9919 92.0337 60.142 93.6243 63.5741 93.6243C67.0063 93.6243 70.1564 92.0337 72.2167 89.2603C72.6351 88.6971 73.4308 88.5798 73.994 88.9981C74.5572 89.4165 74.6746 90.2122 74.2562 90.7754C73.0424 92.4093 71.45 93.7639 69.6513 94.6928C67.7595 95.6697 65.7149 96.165 63.5741 96.165Z" fill="#FDCA3F"/>
</g>
<defs>
<clipPath id="clip0_23_57">
<rect width="256" height="256" fill="white"/>
</clipPath>
</defs>
</svg>
