<svg xmlns="http://www.w3.org/2000/svg" version="1.1" xmlns:xlink="http://www.w3.org/1999/xlink"
    xmlns:svgjs="http://svgjs.com/svgjs" width="512" height="512" x="0" y="0" viewBox="0 0 512 512"
    style="enable-background:new 0 0 512 512" xml:space="preserve" class="">
    <g>
        <path fill="#f0f0f3"
            d="M504.348 107.294c0-4.895-1.944-9.589-5.405-13.05l-81.339-81.339a18.455 18.455 0 0 0-13.05-5.405H183.05c-16.106 0-29.163 13.057-29.163 29.163v400.229c0 15.168 12.296 27.464 27.464 27.464h295.532c15.168 0 27.464-12.296 27.464-27.464V107.294z"
            data-original="#f0f0f3"></path>
        <path fill="#e0dde2"
            d="M498.943 94.245 469.348 64.65v372.243c0 15.168-12.296 27.465-27.464 27.465h35c15.168 0 27.464-12.296 27.464-27.465V107.294c0-4.894-1.944-9.588-5.405-13.049z"
            data-original="#e0dde2" class=""></path>
        <path fill="#fb636f"
            d="m498.943 94.245-81.339-81.339a18.442 18.442 0 0 0-5.405-3.726v61.307c0 16.106 13.057 29.163 29.163 29.163h61.307a18.416 18.416 0 0 0-3.726-5.405z"
            data-original="#fb636f" class=""></path>
        <path fill="#7aabdc"
            d="M452.448 192.738H298.832a4.986 4.986 0 0 1-4.986-4.986v-37.488a4.986 4.986 0 0 1 4.986-4.986h153.616a4.986 4.986 0 0 1 4.986 4.986v37.488a4.986 4.986 0 0 1-4.986 4.986z"
            data-original="#7aabdc"></path>
        <path fill="#5f98d5"
            d="M452.448 145.278h-35a4.986 4.986 0 0 1 4.986 4.986v37.488a4.986 4.986 0 0 1-4.986 4.986h35a4.986 4.986 0 0 0 4.986-4.986v-37.488a4.986 4.986 0 0 0-4.986-4.986z"
            data-original="#5f98d5"></path>
        <path fill="#ffeae1"
            d="M159.646 351.619c21.459 0 55.605-57.269 48.977-58.545l-4.845-2.561a19.222 19.222 0 0 1-10.239-16.994v-46.69h-67.786v46.69a19.22 19.22 0 0 1-10.239 16.994l-4.845 2.561c-6.628 1.276 27.519 58.545 48.977 58.545z"
            data-original="#ffeae1"></path>
        <path fill="#fc8086"
            d="M203.778 290.513c-15.71 40.17-72.554 40.17-88.264 0S7.651 306.168 7.651 399.385v80.128c0 13.8 11.187 24.986 24.986 24.986h254.017c13.8 0 24.986-11.187 24.986-24.986v-80.128c.001-93.217-107.862-108.872-107.862-108.872z"
            data-original="#fc8086"></path>
        <path fill="#fb636f"
            d="M203.778 290.513a49.556 49.556 0 0 1-4.316 8.523c31.886 12.111 77.179 39.94 77.179 100.349V504.5h10.014c13.8 0 24.986-11.187 24.986-24.986v-80.128c0-93.218-107.863-108.873-107.863-108.873z"
            data-original="#fb636f" class=""></path>
        <path fill="#a698a6"
            d="m183.652 331.531-24.006-14.1-24.006 14.1a18.04 18.04 0 0 1-1.7.87l14.95 19.611h21.511l15.688-19.304a17.82 17.82 0 0 1-2.437-1.177z"
            data-original="#a698a6"></path>
        <path fill="#fa4954"
            d="m110.399 287.506-14.163 6.359c-3.972 1.783-5.177 6.846-2.433 10.227l18.894 23.287c5.57 6.866 15.321 8.63 22.944 4.153l24.006-14.1-36.6-28.53a12.545 12.545 0 0 0-12.648-1.396z"
            data-original="#fa4954"></path>
        <path fill="#fa4954"
            d="m208.894 287.506 14.163 6.359c3.972 1.783 5.177 6.846 2.433 10.227l-18.894 23.287c-5.57 6.866-15.321 8.63-22.944 4.153l-24.006-14.1 36.6-28.53a12.545 12.545 0 0 1 12.648-1.396z"
            data-original="#fa4954"></path>
        <path fill="#8f818f" d="M170.402 352.012h-21.511L124.385 504.5h70.522z" data-original="#8f818f"></path>
        <path fill="#fb9538" d="M71.626 121.543v46.548h45.562V97.537H95.631c-13.258 0-24.005 10.748-24.005 24.006z"
            data-original="#fb9538"></path>
        <path fill="#ffdbcc"
            d="M94.982 147.392H84.003c-9.829.005-17.792 7.978-17.785 17.807l.014 19.417c.006 8.014 6.506 14.506 14.52 14.502h14.231v-51.726z"
            data-original="#ffdbcc"></path>
        <path fill="#ffeae1"
            d="m235.296 147.392-10.979-.001v51.723h6.382l7.849.004c8.014.004 14.514-6.488 14.52-14.502l.014-19.417c.006-9.829-7.957-17.802-17.786-17.807z"
            data-original="#ffeae1"></path>
        <path fill="#ffeae1"
            d="M225.288 87.655H150.5c-31.199 0-56.491 25.292-56.491 56.491v54.968c.461 18.175 8.08 35.637 21.762 47.46 10.466 9.044 24.958 16.957 43.859 17.848v.002l.017-.001h.004l.017.001v-.002c18.901-.89 33.392-8.803 43.859-17.848 13.682-11.823 21.301-29.286 21.762-47.46V87.655z"
            data-original="#ffeae1"></path>
        <path fill="#ffdbcc"
            d="M190.288 87.655v122.423c-.461 18.175-8.08 35.637-21.762 47.46a78.486 78.486 0 0 1-9.224 6.861c.111.006.217.018.328.023v.002l.017-.001h.004l.017.001v-.002c18.901-.89 33.392-8.803 43.859-17.848 13.682-11.823 21.301-29.286 21.762-47.46V87.655z"
            data-original="#ffdbcc"></path>
        <path fill="#fba65c"
            d="m225.288 147.388 5.832.003 4.177.001c4.807.002 9.159 1.919 12.36 5.018l-.002-35.73c-.002-27.787-22.528-50.313-50.316-50.313H76.781a5.138 5.138 0 0 0-5.138 5.138c0 25.182 20.414 45.596 45.596 45.596h82.356c14.19 0 25.693 11.503 25.693 25.693z"
            data-original="#fba65c"></path>
        <path fill="#fb9538"
            d="M247.654 116.68c-.002-27.787-22.528-50.313-50.316-50.313h-7.05V117.1h9.307c14.19 0 25.693 11.503 25.693 25.693v4.595l5.832.003 4.177.001c4.807.002 9.159 1.919 12.36 5.018z"
            data-original="#fb9538"></path>
        <path
            d="M457.434 220.514H293.846c-4.143 0-7.5 3.357-7.5 7.5s3.357 7.5 7.5 7.5h163.588c4.143 0 7.5-3.357 7.5-7.5s-3.358-7.5-7.5-7.5zM464.934 261.59c0-4.143-3.357-7.5-7.5-7.5H293.846c-4.143 0-7.5 3.357-7.5 7.5s3.357 7.5 7.5 7.5h163.588a7.5 7.5 0 0 0 7.5-7.5zM293.846 287.667c-4.143 0-7.5 3.357-7.5 7.5s3.357 7.5 7.5 7.5h81.794c4.143 0 7.5-3.357 7.5-7.5s-3.357-7.5-7.5-7.5z"
            fill="#000000" data-original="#000000" class=""></path>
        <path
            d="M504.349 158.979c4.143 0 7.5-3.357 7.5-7.5v-44.185c0-6.156-2.134-11.983-6.043-16.644l-.02-.023a26.236 26.236 0 0 0-1.539-1.686l-81.34-81.34a26.591 26.591 0 0 0-1.71-1.559C416.536 2.133 410.71 0 404.555 0H183.05c-20.216 0-36.663 16.447-36.663 36.663v22.204H76.781c-6.969 0-12.639 5.669-12.639 12.638a52.764 52.764 0 0 0 8.397 28.601c-5.361 5.753-8.413 13.348-8.413 21.437v28.018c-3.506 4.444-5.412 9.897-5.408 15.645l.015 19.415c.008 12.133 9.88 21.999 22.009 21.998H87.057c2.183 17.904 10.633 34.244 23.81 45.631a87.918 87.918 0 0 0 7.388 5.722v15.549c0 1.901-.482 3.773-1.359 5.443-3.228-.22-6.515.33-9.568 1.702l-14.161 6.357a14.182 14.182 0 0 0-3.694 2.425c-15.328 5.095-29.178 11.824-41.162 20.048a7.5 7.5 0 0 0-1.939 10.428c2.337 3.406 7.006 4.29 10.428 1.939 8.785-6.029 18.733-11.181 29.646-15.401a14.29 14.29 0 0 0 1.535 2.357l18.894 23.287c5.865 7.227 15.067 10.712 24.27 8.997L140.976 354l-23.011 143H70.567v-62.668c0-4.143-3.357-7.5-7.5-7.5s-7.5 3.357-7.5 7.5V497h-22.93c-9.642 0-17.486-7.845-17.486-17.486v-80.128c0-21.055 5.956-39.585 17.702-55.077a7.5 7.5 0 0 0-11.953-9.063C7.132 353.405.151 374.984.151 399.386v80.128C.151 497.427 14.725 512 32.638 512h254.018c17.913 0 32.486-14.573 32.486-32.486v-7.657h157.742c19.279 0 34.965-15.685 34.965-34.964v-249.89c0-4.143-3.357-7.5-7.5-7.5s-7.5 3.357-7.5 7.5v249.89c0 11.008-8.956 19.964-19.965 19.964H319.142v-57.471c0-55.613-36.555-92.404-89.351-109.965-2.842-2.549-4.383-2.503-17.825-8.757a20.007 20.007 0 0 0-9.567-1.701 11.728 11.728 0 0 1-1.36-5.443v-15.547a88.12 88.12 0 0 0 7.39-5.723c13.177-11.386 21.628-27.727 23.812-45.633l6.314.002c12.13 0 22.004-9.866 22.013-21.998l.014-19.416c.004-5.756-1.908-11.217-5.425-15.665l-.002-32.86c-.002-31.877-25.938-57.812-57.816-57.812h-35.951V36.663c0-11.945 9.718-21.663 21.663-21.663h221.505c.048 0 .095.006.144.007v55.48c0 20.216 16.447 36.663 36.663 36.663l55.48-.001c.001.048.007.096.007.144v44.185a7.498 7.498 0 0 0 7.499 7.501zM86.652 139.892h-2.653a25.509 25.509 0 0 0-4.873.471v-18.82a16.42 16.42 0 0 1 3.348-9.957A53.292 53.292 0 0 0 92 118.208a63.858 63.858 0 0 0-5.348 21.684zm-5.904 51.726h-.003a7.02 7.02 0 0 1-7.013-7.009l-.015-19.415c-.004-5.695 4.604-10.3 10.285-10.302h2.506v36.725zm37.773 131.035-18.182-22.409 13.132-5.896a5.045 5.045 0 0 1 3.835-.12l.045.016c1.319.508-.096-.233 28.975 22.313l-14.484 8.508c-4.386 2.574-10.015 1.663-13.321-2.412zm41.125 3.476 14.976 8.797-7.791 9.586h-14.228l-7.502-9.84zm-4.365 33.383h8.73L186.136 497h-52.979zm148.861 39.874v80.128c0 9.642-7.845 17.486-17.486 17.486h-22.93v-62.668c0-4.143-3.357-7.5-7.5-7.5s-7.5 3.357-7.5 7.5V497h-47.397L178.34 354.137l10.5-12.92c1.305.206 2.615.321 3.922.321 7.404 0 14.66-3.271 19.659-9.433l18.895-23.288a14.288 14.288 0 0 0 1.539-2.364c30.202 11.707 71.287 37.777 71.287 92.933zm-85.188-99.142-18.182 22.409a10.323 10.323 0 0 1-13.321 2.411l-14.484-8.508c29.392-22.796 27.664-21.809 28.974-22.313a5.055 5.055 0 0 1 3.88.103h.001zm-30.191-15.02-29.117 22.697-29.117-22.697a26.77 26.77 0 0 0 2.724-11.705v-7.335c18.135 7.475 33.912 7.78 52.785.001v7.334c.001 4.07.958 8.081 2.725 11.705zm9.858-44.325c-23.608 20.402-53.054 21.512-77.946 0-11.741-10.146-18.724-25.407-19.166-41.883v-54.87a48.927 48.927 0 0 1 4.602-20.729 53.071 53.071 0 0 0 11.128 1.183h82.356c10.032 0 18.193 8.161 18.193 18.193v56.223c-.443 16.476-7.426 31.739-19.167 41.883zm46.946-56.29c-.003 3.866-3.147 7.009-7.013 7.009l-5.767-.002v-36.724c1.396.223 5.391-1.026 9.785 3.023a10.226 10.226 0 0 1 3.008 7.279zm-5.413-67.929.001 23.681c-3.345-.649-5.577-.419-7.493-.469-1.475-16.949-15.742-30.291-33.067-30.291h-82.356c-20.213 0-36.799-15.824-38.023-35.733h118.123c23.606-.001 42.813 19.205 42.815 42.812zm179.544-46.193V25.606l66.542 66.543-44.879.001c-11.945 0-21.663-9.717-21.663-21.663z"
            fill="#000000" data-original="#000000" class=""></path>
        <path
            d="M464.934 150.264c0-6.885-5.602-12.485-12.486-12.485H298.832c-6.885 0-12.486 5.601-12.486 12.485v37.488c0 6.885 5.602 12.486 12.486 12.486h153.615c6.885 0 12.486-5.602 12.486-12.486v-37.488zm-15 34.974H301.346v-32.46h148.588z"
            fill="#000000" data-original="#000000" class=""></path>
    </g>
</svg>